<?xml version="1.0" standalone="no"?>
<!DOCTYPE svg PUBLIC "-//W3C//DTD SVG 1.1//EN" "http://www.w3.org/Graphics/SVG/1.1/DTD/svg11.dtd" >
<svg>
<metadata>
Created by FontForge 20090622 at Thu Mar  1 04:55:27 2018
 By deploy user
Copyright &#194;&#169; 2014 by Elena Genova. All rights reserved.
</metadata>
<defs>
<font id="SVN-VeryBerry" horiz-adv-x="307" >
  <font-face 
    font-family="SVN-Very Berry"
    font-weight="400"
    font-stretch="normal"
    units-per-em="1000"
    panose-1="0 0 5 0 0 0 0 0 0 0"
    ascent="658"
    descent="-342"
    x-height="383"
    cap-height="842"
    bbox="-860.6 -456.321 2129 1137.5"
    underline-thickness="50"
    underline-position="-50"
    unicode-range="U+0020-U+E049"
  />
<missing-glyph horiz-adv-x="625" 
d="M512 -425h-396v1250h396v-1250zM210 741v-41h82v-46h-83v-41h208v41h-83v46h83v41h-207zM209 580v-130h208v43h-83v87h-125zM291 493h-41v45h41v-45zM209 416v-41h83v-46h-83v-41h125v87h83v41h-208zM375 341v-82h-166v-43h208v125h-42zM292 189v-70h42v29h41v-59h-125
v100h-41v-141h208v141h-125zM209 -28v-141h208v141h-208zM375 -128h-125v59h125v-59zM209 -198v-41h88l-88 -59v-41h208v41h-128l88 59h40v41h-208z" />
    <glyph glyph-name=".notdef" horiz-adv-x="625" 
d="M512 -425h-396v1250h396v-1250zM210 741v-41h82v-46h-83v-41h208v41h-83v46h83v41h-207zM209 580v-130h208v43h-83v87h-125zM291 493h-41v45h41v-45zM209 416v-41h83v-46h-83v-41h125v87h83v41h-208zM375 341v-82h-166v-43h208v125h-42zM292 189v-70h42v29h41v-59h-125
v100h-41v-141h208v141h-125zM209 -28v-141h208v141h-208zM375 -128h-125v59h125v-59zM209 -198v-41h88l-88 -59v-41h208v41h-128l88 59h40v41h-208z" />
    <glyph glyph-name=".null" horiz-adv-x="0" 
 />
    <glyph glyph-name="nonmarkingreturn" horiz-adv-x="333" 
 />
    <glyph glyph-name="space" unicode=" " horiz-adv-x="300" 
 />
    <glyph glyph-name="space" unicode="&#xa0;" horiz-adv-x="300" 
 />
    <glyph glyph-name="numbersign" unicode="#" horiz-adv-x="590" 
d="M490 480q-5 -11 -24 -45q-20 -35 -30 -57l-3 -6l-5 -10t-5.5 -10.5t-4.5 -8.5q27 -3 41 -10q19 -7 21 -23q2 -15 -12 -23q-27 10 -69 13l-27 -66q33 -8 48 -16q24 -14 15 -27q-5 -8 -12 -6q-8 2 -24 5t-39 8l-82 -220q-10 -28 -17 -37q-6 -8 -18 -3q-5 1 -7 6q-2 4 0 9
l1 5q9 43 28.5 104t48.5 142q-20 3 -42 5.5t-45 4.5l-88 -237q-10 -28 -17 -37q-6 -8 -18 -3q-5 1 -7 6q-2 4 0 9l1 5q19 91 81 258q-8 0 -16 -0.5t-17 -1.5q-49 -6 -60 14q-8 10 9 15h11q10 -1 31 -1h53l16 40h-3q-44 -5 -60 25q-11 24 7 36q4 4 12 6q17 -5 67 -6l27 62
q33 76 67 127q19 25 43 12q5 -3 6 -7q2 -5 0 -11q-1 -4 -5 -12q-2 -3 -4 -6.5t-4 -8.5t-4 -8.5t-4 -7.5q-5 -11 -24 -45q-20 -35 -30 -57l-5 -11q-2 -5 -6 -13q-2 -3 -3 -5.5t-2 -4.5q57 2 86 0l10.5 25l15.5 35q33 76 67 127q19 25 43 12q5 -3 6 -7q2 -5 0 -11
q-1 -4 -5 -12q-2 -3 -4 -6.5t-4 -8.5t-4 -8.5t-4 -7.5zM237 243q29 -1 51 -2t36 -3l24 60q-14 0 -36.5 -1.5t-54.5 -5.5l-10 -24q-8 -18 -9 -24h-1z" />
    <glyph glyph-name="dollar" unicode="$" horiz-adv-x="452" 
d="M360 781q5 -2 8.5 -4.5t7.5 -4.5t7 -4.5t6 -4.5q5 -4 10 -12l3.5 -7t3.5 -5q4 -5 5 -14l3 -13q2 -6 2 -13v-12v-12v-8q-2 -18 -12 -18t-9 19q1 2 1 6q3 21 -7 47q-11 27 -31 42l-56 -283q-2 -11 -4.5 -22t-4.5 -22q2 -4 8 -13.5t15 -25.5l24 -42l8 -14l12 -22
q13 -26 18 -42q5 -18 9 -37q5 -21 3 -41q-4 -84 -44 -139q-39 -54 -104 -72l-3 -33q-4 -31 -9 -40q-4 -8 -16 -7q-6 0 -9 5q-3 4 -3 9v4q-2 11 0 56q-16 -3 -43 -1q-43 3 -73 21t-45 42q-14 23 -22 52q-7 27 -7 51q0 20 5 37q12 52 55 85q7 7 15 6q8 -2 8 -8t-6 -13
q-31 -31 -50 -74q-11 -20 -6 -48q5 -29 16 -55q12 -27 42 -48t72 -24q19 -2 42 3q3 54 12.5 147t25.5 228l-27 47.5l-17 30.5q-12 22 -27 66q-15 42 -13 75q4 79 50 134q45 54 107 56l9 32q12 29 38 23q5 -1 9 -5q3 -3 3 -9q0 -8 -1 -12q-1 -3 -1.5 -7t-2.5 -9t-2.5 -9.5
t-1.5 -8.5zM258 498q12 83 24 150t25 121q-30 -9 -51 -52q-20 -42 -22 -117q-2 -45 24 -101v-1zM317 192q3 53 -40 129q-11 -81 -33 -298q64 48 72 168z" />
    <glyph glyph-name="percent" unicode="%" horiz-adv-x="604" 
d="M179 -63q-5 1 -7 6q-2 4 0 9l1 5q12 58 54 183q21 63 47 128.5t57 134.5q33 76 67 127q19 25 43 12q5 -3 6 -7q2 -5 0 -11q-1 -4 -5 -12q-2 -3 -4 -6.5t-4 -8.5t-4 -8.5t-4 -7.5q-5 -11 -24 -45q-20 -35 -30 -57l-9 -18q-4 -7 -6 -11.5t-4 -6.5q-2 -3 -10 -19
q-8 -15 -12 -27q-2 -6 -5.5 -14.5t-8.5 -19.5t-9 -22.5t-9 -23.5t-10 -27t-12 -32l-30 -78l-17 -46.5l-19 -51.5q-10 -28 -17 -37q-6 -8 -18 -3zM141 250q-23 -11 -48 1q-26 12 -33 37q-14 37 -9 75q7 70 57 120q22 22 51 25q13 1 21 0q16 -6 18 -21q0 -11 -9 -14
q-7 -2 -8 4q0 11 -12 11q-19 -3 -31 -22q-12 -20 -21 -64q-5 -23 -6.5 -44.5t-0.5 -41.5q1 -14 9 -25q7 -11 18 -9q24 3 33 20q19 34 27 59q19 61 12 91q-2 14 -7 18q-2 3 1 7q3 5 7 6q5 2 8 0q5 -3 9 -10q8 -11 8 -36q0 -4 -0.5 -8t-1.5 -9q-1 -8 -6 -22t-6 -21
q-3 -11 -15 -43q-35 -68 -63 -81zM461 0q-23 -11 -48 1q-26 12 -33 37q-14 37 -9 75q7 70 57 120q22 22 51 25q13 1 21 0q16 -6 18 -21q0 -11 -9 -14q-7 0 -8 4q0 11 -12 11q-19 -3 -31 -22q-12 -20 -21 -64q-5 -23 -6.5 -44.5t-0.5 -41.5q1 -14 9 -25q7 -11 18 -9
q24 3 33 20q19 34 27 59q17 54 17 91q0 8 -12 17q-2 3 1 7q3 5 7 6q5 2 8 0q5 -3 9 -10q8 -11 8 -36q0 -4 -0.5 -8t-1.5 -9q-1 -8 -6 -22t-6 -21q-3 -11 -15 -43q-35 -68 -63 -81z" />
    <glyph glyph-name="ampersand" unicode="&#x26;" horiz-adv-x="648" 
d="M292 -58q-41 4 -73 12q-29 7 -64 26q-33 18 -51 54q-19 37 -20 88q-3 99 39 155q42 55 119 96q5 2 0 5q-31 12 -46 65q-15 54 -11 93q5 46 49 90q45 45 125 45q30 0 50 -10t30 -23q9 -12 15 -30t6 -26v-15q1 -13 -11 -16q-10 -1 -13 12l-1 7q-2 33 -16 50q-15 18 -29 23
q-12 4 -29 4h-4h-12.5t-10.5 -1q-10 -2 -25 -10q-16 -9 -28 -31q-11 -21 -19 -60t0 -71q7 -31 26 -51q17 -18 33 -28q8 -5 14.5 -8t11.5 -5q18 -6 17 -22q-1 -13 -19 -9q-56 18 -111 -14q-71 -41 -80 -204q-3 -68 42 -111t104 -48q54 -5 95 27q40 31 51 84q6 16 2 32
l-3.5 14.5t-3.5 11.5q-3 9 -12 21t-14 17q-2 2 -6 5.5t-9 8.5t-8 7.5t-4 3.5q-2 2 -3 2q-36 -1 -46 -8q-9 -7 -16 -20q-6 -12 -6 -21q0 -10 3 -11q7 -7 -2 -13q-11 -6 -18 4q-12 22 -3 42q9 19 26 36q25 21 90 27q64 6 90 24q25 18 36 48q3 7 9 9q6 1 9 -3t1 -12
q-9 -40 -38 -66q-32 -26 -82 -33q-6 0 -2 -4q39 -47 38 -119q-1 -62 -53 -103q-50 -40 -123 -34z" />
    <glyph glyph-name="quotesingle" unicode="'" horiz-adv-x="162" 
d="M17 372q-10 13 24 109q17 47 33 47q13 0 27 -11q13 -11 9 -21q-24 -53 -60 -117q-17 -17 -33 -6v-1z" />
    <glyph glyph-name="parenleft" unicode="(" horiz-adv-x="319" 
d="M224 -139q-197 85 -177 438q7 157 74 261q66 103 177 138q14 5 14 -3q1 -9 -15 -15q-46 -16 -85 -90q-38 -72 -58 -156q-20 -83 -21 -150q-2 -51 3 -123q2 -36 9 -77t19 -88q24 -93 64 -117q16 -10 10 -18q-4 -3 -11 -1z" />
    <glyph glyph-name="parenright" unicode=")" horiz-adv-x="349" 
d="M38 -127q44 17 83 104q40 89 56 158q16 70 24 120q16 111 -6 246t-86 171q-15 7 -13 17q3 7 15 3q103 -54 150 -168q46 -114 27 -271q-41 -350 -249 -399q-11 -2 -11 6q0 7 13 13h-3z" />
    <glyph glyph-name="asterisk" unicode="*" horiz-adv-x="475" 
d="M386 552q23 -11 11 -21q-8 -5 -15 -3l-35.5 10.5t-50.5 16.5q22 -55 21 -91q0 -15 -9 -19t-20 2t-15 18l-36 84l-25.5 -32t-12.5 -17q-26 -41 -48 -39q-14 0 -8 16q2 5 6 11l23 29l50 65l-3 5q-38 15 -63 24q-46 13 -52 36q-3 13 12 13q5 0 13 -3l69 -26q-2 3 -3.5 7
l-3.5 9q-18 46 3 69q16 16 31 -1q2 -4 3 -7q2 -7 33 -74l43 50.5t17 19.5q10 10 18 9q8 -2 8 -9t-3 -13q-23 -38 -66 -93q1 -1 1 -3l57.5 -23t49.5 -22v2z" />
    <glyph glyph-name="plus" unicode="+" horiz-adv-x="475" 
d="M373 243q14 -2 17 -7q3 -6 -1 -12q-4 -5 -12 -7q-50 -5 -108 -3q-7 -94 -27 -130q-11 -20 -33 -9q-23 10 -21 30q2 11 4.5 39.5l6.5 73.5q-53 1 -63 0q-55 -6 -63 8q-5 5 6 8q8 2 14 2l106 3q5 43 6 67q4 46 36 57q25 8 32 -13l2 -11l-3 -26q-1 -8 -1 -16.5v-19.5v-19.5
t-1 -15.5q46 1 102 0z" />
    <glyph glyph-name="comma" unicode="," horiz-adv-x="193" 
d="M54 -128q-10 13 24 109q1 2 1.5 5t2.5 8t3 8.5t2 5.5t2 4.5t3 5.5q3 5 8 9q4 3 12 3q20 0 30 -13t4 -27q-4 -8 -7.5 -17t-8.5 -20l-8.5 -18.5t-5.5 -12.5l-12 -21q-7 -11 -18 -22q-17 -17 -33 -6z" />
    <glyph glyph-name="hyphen" unicode="-" horiz-adv-x="454" 
d="M166 196q-44 -5 -60 25q-11 24 7 36q4 4 12 6q29 -8 113 -5q86 3 116 -12q19 -7 21 -23q2 -15 -12 -23q-28 10 -61 13q-32 3 -51 0q-20 -3 -48 -9q-14 -3 -24 -4.5t-15 -2.5z" />
    <glyph glyph-name="period" unicode="." horiz-adv-x="173" 
d="M85 2q-14 0 -21 9q-8 10 -8 23q0 12 6 20t17 8q19 0 30 -8t11 -18q0 -17 -12 -26q-13 -9 -23 -8z" />
    <glyph glyph-name="slash" unicode="/" horiz-adv-x="602" 
d="M542 704q5 -13 2 -21q-3 -10 -16 -27q-3 -5 -7.5 -10t-9.5 -12l-27 -33q-17 -20 -27 -33q-72 -87 -166 -255q-92 -165 -184 -397q-1 -2 -2 -5.5t-3 -8.5t-3 -8t-2 -5q-1 -3 -5 -9q-3 -5 -7 -6q-6 -2 -9 -2h-1q0 1 -10 10l3 17q13 64 137 323q122 257 218 369q12 13 30 36
l17 21t16 19q15 18 31 34q24 19 28 2z" />
    <glyph glyph-name="zero" unicode="0" horiz-adv-x="423" 
d="M180 -15q-56 3 -100 68q-44 64 -33 177q10 126 69 201t153 68q24 -2 44 -16q21 -15 39 -49q17 -33 19 -90q1 -55 -15 -136q-17 -78 -36 -125q-20 -49 -43 -69t-43 -25t-48 -3zM197 19q31 -4 63 38q32 43 50 101t21 111q6 91 -6 145q-12 55 -55 56q-56 4 -96 -81
q-41 -86 -39 -159q1 -6 1.5 -19t0.5 -33t0.5 -34.5t1.5 -23.5q1 -18 6 -45q4 -26 17 -40q11 -13 32 -16h3z" />
    <glyph glyph-name="one" unicode="1" horiz-adv-x="302" 
d="M161 313q-11 -14 -36 -39q-27 -27 -42 -46q-6 -7 -14 -9t-12 3q-13 10 -1 24q97 120 144 236q4 13 17 19q12 6 23 0t11 -23q1 -16 -5 -76.5t-18 -167.5q-24 -213 -33 -234q-11 -23 -42 -24q-29 -2 -30 18v6z" />
    <glyph glyph-name="two" unicode="2" horiz-adv-x="472" 
d="M400 -11q-2 0 -18 -0.5t-45 -1.5q-59 -2 -114 -3q-56 -2 -108 0q-53 1 -60 9q-17 14 1 47t58 70q187 176 194 270q4 46 -11 71q-15 24 -41 24q-104 -2 -93 -125q2 -14 -8 -17q-9 -3 -19 1t-13 9q-9 14 -3 41q6 25 20 54q14 28 45 47q32 20 74 20q36 0 66 -11
q29 -11 41 -27q13 -17 20 -35t6 -34q-1 -8 -1 -15v-12q-4 -18 -9 -34t-11 -30q-12 -29 -33 -54l-19.5 -22.5t-16.5 -17.5t-19.5 -18.5t-28.5 -24.5q-34 -29 -49 -43l-20.5 -20.5t-17.5 -18.5q-16 -19 -21 -28q-3 -5 -5 -9.5t-4 -7.5q-3 -6 -3 -12v-6q-2 -5 130 -5
q66 0 101 0.5t40 1.5q6 0 12 -7q6 -8 3 -15t-18 -7z" />
    <glyph glyph-name="three" unicode="3" horiz-adv-x="451" 
d="M195 -16q-58 4 -92 29q-33 24 -53 74q-6 14 9 14q13 0 15 -9q3 -10 15 -26q11 -15 42 -37q29 -20 65 -22q53 -2 83 44q29 44 34 95q3 46 -16 84q-20 39 -60 42q-60 4 -88 -8q-15 -6 -24 6t9 20q7 3 24 9q16 6 30 12q11 5 22 14q60 49 63 90q5 65 -43 72h-16q-7 0 -16 -4
q-11 -5 -15 -6q-7 -2 -14 -7q-9 -6 -12 -9q-2 -2 -4.5 -3.5t-6.5 -3.5q-8 -5 -9 -6q-11 -8 -23 -2t3 18q52 48 125 43q55 -5 81 -31q27 -27 22 -65q-9 -56 -68 -104q11 -5 19.5 -8.5t14.5 -5.5q11 -4 34 -18q22 -13 33 -29q10 -15 18 -41q7 -26 3 -57q-6 -52 -41 -92
q-34 -38 -78 -55t-84 -12z" />
    <glyph glyph-name="four" unicode="4" horiz-adv-x="405" 
d="M336 4q2 -15 -17 -23q-18 -8 -36 0q-18 7 -16 27q3 66 3 121q-8 0 -31.5 -0.5t-61.5 -1.5t-61.5 -1.5t-32.5 -0.5q-24 0 -30 17t6 32l46 66.5l75 105.5q90 124 111 150q23 23 35 17t14 -26q3 -20 3 -121q0 -103 -3 -179q-7 -157 -6 -181zM150 153h43h31t17 1q30 1 27 46
q-2 14 0 44q1 15 2 33t3 40t3 39t2 31q-14 -17 -66 -90q-53 -74 -75 -108q-11 -15 -9 -23t7 -9q6 -2 14 0z" />
    <glyph glyph-name="five" unicode="5" horiz-adv-x="397" 
d="M142 -15q-55 1 -76 32q-21 30 -15 55q4 16 15 12q10 -5 12 -15q2 -9 7 -18q6 -10 22 -22q16 -11 39 -13q52 -2 81 33q28 34 27 111q-3 80 -16 109q-14 31 -42 32q-48 4 -76 -54q-12 -25 -39 -16q-28 9 -23 35l4.5 34.5l9.5 71.5q12 90 15 111q1 12 12 24q10 11 27 13
q11 1 52 -5q39 -6 53 -6q7 0 19.5 1.5l30.5 3.5q36 5 50 3q12 0 15 -7q3 -8 0 -15t-6 -7q-1 0 -10 -1l-26 -3q-4 0 -12 -1t-20 -3t-20 -3t-13 -1q-7 0 -19.5 1.5t-32.5 5.5q-41 6 -45 -19q-1 -5 -1.5 -17t-0.5 -32v-43q-5 -36 -3 -39q3 -3 9 -2q14 2 27 3.5t24 1.5
q59 0 96 -40t37 -121q0 -86 -49 -135t-139 -46v-9z" />
    <glyph glyph-name="six" unicode="6" horiz-adv-x="404" 
d="M220 -8q-31 0 -58 9q-26 9 -55 30t-45 63q-17 42 -15 102q1 58 27 114t60 92t75 66q20 15 36.5 25.5t29.5 17.5q25 13 39 18q16 4 18 -3q2 -8 -4 -12q-1 -1 -2 -1.5t-3 -2.5l-17 -12q-7 -5 -15.5 -12t-19.5 -15q-43 -32 -104 -142q-2 -4 -3 -7t-2 -5l-3 -9q-2 -5 0 -6
q2 -2 6 -2q2 0 10 3q9 4 21 5q14 2 38 0q18 0 35 -7q9 -4 18.5 -9t19.5 -13q20 -16 32 -45q13 -31 14 -70q1 -79 -42 -124q-44 -45 -88 -45zM226 31q28 -1 48 14q20 16 29 39q5 12 8 22.5t5 19.5q4 18 6 35q-5 107 -84 113q-53 5 -81 -34q-29 -39 -30 -82q-5 -50 21 -90
q25 -41 78 -42v5z" />
    <glyph glyph-name="seven" unicode="7" horiz-adv-x="435" 
d="M160 20q0 -17 -16 -27t-34 -4q-17 6 -19 32q-1 38 17 126q18 84 53 135q20 29 58 76l95 112q11 12 -1 15t-31 0h-220q-10 0 -13 6t1 12t15 6q5 1 39.5 1h98.5h141q24 2 36 -13t-1 -34q-3 -6 -44 -51q-39 -44 -78 -93q-40 -50 -54 -79q-38 -77 -42 -222z" />
    <glyph glyph-name="eight" unicode="8" horiz-adv-x="368" 
d="M170 -16q-49 0 -80 29q-30 29 -36 61t-1 59q12 56 96 119q-23 19 -36 33q-12 12 -28 44q-15 29 -13 62q8 120 136 116q44 0 77 -24t32 -79q-2 -30 -13 -54q-12 -26 -30 -44l-16.5 -16t-13.5 -12q-11 -10 -22 -16q2 -3 30 -28q27 -24 45 -51t18 -57q0 -137 -145 -138v-4z
M214 287q13 0 45 42q31 41 31 71q0 33 -15 53t-58 20q-42 0 -59 -23t-17 -48q-1 -37 24 -76t48 -39h1zM169 10q43 0 61 24q18 23 16 50q-2 33 -19 65q-18 33 -36 51q-19 19 -24 20q-17 1 -51 -33q-35 -35 -36 -75q-2 -42 21 -72q22 -30 69 -30h-1z" />
    <glyph glyph-name="nine" unicode="9" horiz-adv-x="391" 
d="M156 0q-51 0 -77 29q-26 28 -27 51q-2 12 6 14q7 1 12 -6q2 -2 8 -15q6 -14 12 -24q5 -9 23 -19q16 -9 37 -9q33 0 54 10q22 10 34 30q6 10 11 19.5t9 20.5q8 21 9 49q1 14 1 26v23t-0.5 22.5t-1.5 25.5t-1 23.5v14.5q-15 -26 -42 -39q-26 -13 -47 -13q-97 4 -120 59
q-10 22 -7 54q8 71 64 117t128 46q14 0 23 -10q9 -11 9 -24q0 -23 -12 -39q-7 -5 -12 -5q-6 0 -8 5q-2 4 0 12l3 15q2 10 3 14q2 6 0 11q-1 4 -6 4q-44 -5 -75 -52q-32 -48 -36 -90q-3 -34 9 -61t47 -27q74 0 102 190q1 9 15 15q13 6 25 3t12 -20q0 -5 0.5 -34l1.5 -83
q1 -107 0 -171q-2 -159 -183 -159z" />
    <glyph glyph-name="colon" unicode=":" horiz-adv-x="226" 
d="M137 266q-15 0 -25 12q-10 11 -10 29q0 14 8 24q7 9 20 9q23 0 36 -13q14 -14 14 -27q0 -14 -15 -24q-15 -11 -27 -9zM134 70q-14 0 -25 11q-10 10 -10 27q0 14 8 24q7 9 20 9q23 0 36 -10q14 -11 14 -22q0 -21 -15 -31t-28 -9v1z" />
    <glyph glyph-name="semicolon" unicode=";" horiz-adv-x="185" 
d="M85 312q-14 0 -21 9q-8 10 -8 23q0 12 6 20t17 8q19 0 30 -8t11 -18q0 -17 -12 -26q-13 -9 -23 -8zM72 40q-2 6 0 6q1 2 3.5 5.5t7.5 9.5q10 13 14 20q13 15 6 24q-8 -3 -12 -7q-10 -15 -33 -4q-7 1 -9 14q-2 12 3 20q15 25 44 25q10 0 24 -9q13 -9 15 -20q0 -19 -5 -27
q-8 -13 -18.5 -28t-24.5 -32l-11 -3z" />
    <glyph glyph-name="less" unicode="&#x3c;" horiz-adv-x="360" 
d="M244 56l-17.5 9.5l-16.5 8.5q-11 5 -29 14.5l-44 23.5q-49 26 -55 30q-23 16 -31 36q-5 30 15 41l115 60.5t83 40.5q19 6 30 1q28 -11 6 -30q-22 -17 -88 -48l-103 -53q-8 -5 0 -18q2 -3 89 -58q2 -2 43 -24q1 -1 6 -4t14 -9q20 -13 32 -20q6 -4 3 -13t-13 -9z" />
    <glyph glyph-name="equal" unicode="=" horiz-adv-x="656" 
d="M486 204q-186 40 -279 30q-49 -6 -60 14q-8 10 9 15h11q5 -1 27 -1h60q76 0 138 -6t91 -22q24 -14 15 -27q-5 -8 -12 -6v3zM211 87q-44 -5 -60 25q-11 24 7 36q4 4 12 6q29 -8 148 -5q121 3 151 -12q19 -7 21 -23q2 -15 -12 -23q-26 8 -54 11q-15 2 -31.5 2.5t-34.5 -0.5
l-56 -3q-21 -2 -56 -6l-37 -5z" />
    <glyph glyph-name="greater" unicode="&#x3e;" horiz-adv-x="350" 
d="M65 33q-10 0 -13 9t3 13q12 7 32 20q18 12 20 14q41 22 43 24q87 55 89 58q7 13 0 18l-103 53q-66 31 -88 48q-23 19 6 30q11 5 30 -1q34 -15 83 -40.5l115 -60.5q20 -11 15 -41q-8 -20 -31 -36q-6 -4 -55 -30l-44 -23t-29 -14l-16.5 -8.5l-17.5 -9.5l-39 -21v-2z" />
    <glyph glyph-name="question" unicode="?" horiz-adv-x="420" 
d="M128 218q0 60 59 116q73 70 102 120t29 105q0 52 -22 81q-23 30 -61 30q-56 0 -84 -30t-24 -94q2 -14 -8 -17q-9 -3 -19 1t-13 9q-2 6 -2.5 14t-1.5 18q-2 19 9 42q10 22 27 42q16 19 48 33q33 14 72 14q90 0 126 -43q36 -44 36 -102q0 -56 -28 -100t-93 -106
q-17 -17 -30 -33q-12 -15 -21 -29q-8 -12 -12 -24q-5 -13 -6 -19l-3 -15l-1 -7q0 -23 -30 -29q-31 -7 -45 11q-4 4 -4 12zM190 8q-12 -8 -27 -6q-15 1 -24 9q-16 16 -6 34q4 15 24 21q17 6 36 -1q17 -14 17 -30q0 -20 -18 -30z" />
    <glyph glyph-name="at" unicode="@" horiz-adv-x="600" 
d="M252 -32q-32 1 -66 12q-36 11 -72 31q-38 21 -62 63t-24 98q0 59 21 110t54 84q32 32 77 57t90 35q44 10 93 10q45 0 86 -11q53 -15 80 -54q28 -40 29 -84q1 -45 -3 -78q-4 -32 -12 -52q-4 -10 -7.5 -17.5l-6.5 -13.5q-5 -10 -20 -30q-13 -17 -35 -28q-21 -11 -48 -12
q-12 -2 -21 3q-8 4 -13 12q-5 9 -8 18q-2 5 -3 10.5l-2 11.5t-1.5 11.5t-1.5 10.5q-2 14 -3 20q-2 8 -4 11q-3 4 -9 0q-5 -4 -16 -18q-37 -52 -79 -65q-44 -14 -66 -6q-10 3 -18 11q-8 7 -12 21q-4 13 2 36q6 21 23 51q19 31 40 51q22 21 47 30q24 9 39 12q8 2 17.5 3
t21.5 2l18 1.5t7 0.5q13 1 15 -9q2 -6 -6 -8h-8q-27 3 -68 -12q-20 -8 -36 -27q-18 -21 -26 -40q-9 -22 -15 -43q-6 -23 -6 -36t3 -16q2 -1 6 -1t7 1l8 3q2 1 4.5 2t5.5 3q4 2 10 6q2 2 5 4t7 4t7 4t5 4q20 14 38 41q19 29 29 51q9 22 29 24q14 -1 16 -18q0 -6 -3 -27
q-2 -11 -2.5 -20.5t-1.5 -19.5t-1 -19.5v-20.5q0 -21 6 -33t18 -11q33 1 56 23q22 21 39 66q9 24 12 60q3 34 -2 74q-5 38 -27 68q-23 31 -60 38q-78 18 -135 8q-59 -11 -99 -36q-41 -26 -66 -66q-24 -39 -37 -83q-11 -40 -13 -88q-2 -51 15 -87q16 -36 42 -54
q26 -19 50 -26q24 -8 48 -9q31 -2 69 6q40 8 42 8q20 0 28 -11q4 -8 -12 -12q-4 -2 -19 -6q-17 -5 -25 -6q-9 -2 -30 -3q-21 -2 -47 0z" />
    <glyph glyph-name="A" unicode="A" horiz-adv-x="546" 
d="M510 -89q-15 1 -36 6q-19 4 -52 23q-31 18 -51 47q-22 34 -25 83q-3 46 5 87q-3 -3 -22 -30q-18 -26 -30 -39q-12 -14 -33 -33q-20 -19 -46 -28q-27 -9 -54 -8q-84 2 -110 74q-47 126 -14 293q35 176 132 290t183 114q20 0 34 -7q16 -8 23 -18q9 -12 14 -24q7 -15 8 -28
q1 -8 1.5 -14.5t1.5 -13.5q1 -14 0 -24q-2 -11 0 -17q0 -15 -10 -15q-12 6 -15 22q0 118 -59 118q-38 0 -78 -46q-39 -45 -70 -111t-51 -124q-21 -60 -27 -97q-6 -35 -10 -70.5t-6 -70.5q-5 -71 9 -132q13 -61 50 -63q25 -1 54 17t50 41q11 11 22 24.5t22 29.5q22 31 30 45
l7.5 13l6.5 11q4 7 24 114q5 28 13 58.5t19 64.5q21 67 36 99q13 25 33 21q20 -5 21 -25q1 -27 -27 -172q-11 -59 -20 -116.5t-15 -114.5q-12 -115 -2 -166q5 -27 26 -47q22 -20 38 -20t16 -13q0 -10 -13 -9z" />
    <glyph glyph-name="B" unicode="B" horiz-adv-x="715" 
d="M539 483q136 -31 136 -206q0 -65 -22 -115q-23 -51 -56 -83q-32 -30 -75 -52q-42 -21 -78 -30t-66 -9q-38 0 -63 17q-24 16 -27 39q-3 22 15 45q18 22 54 33q96 31 209 38q31 55 33 123q5 141 -75 173q-37 -51 -82 -82q-44 -31 -76 -13t-12 60q20 44 74 62q24 8 47 8h3
q21 40 33 84q12 43 15 81t-12 62t-46 24q-39 0 -124 -105q-5 -93 -16 -177t-28 -162q-27 -130 -75 -214q-48 -83 -113 -85q-33 0 -51 23q-17 22 -19 57q-1 33 8 74q9 39 27 72q6 12 36 78t69 141t78 135q11 52 15 88q10 58 9 88q-2 30 -25 30q-28 0 -67 -14q-38 -14 -57 -24
q-20 -11 -30 -18q-14 -9 -24 -5q-6 3 9 14l25.5 15t37.5 20q43 22 71 30q22 4 50 6t50 -16q23 -18 23 -56v-23.5t-1 -18.5q73 76 138 75q43 -1 70 -18q28 -17 35 -42q8 -27 8 -54q0 -29 -9 -60q-5 -16 -8.5 -28.5t-7.5 -23.5q-7 -19 -15 -37l-12 -21zM103 30q50 6 137 465
q-110 -175 -146 -284q-23 -74 -27 -115q-5 -42 6 -54q10 -11 31 -10zM436 464q-41 -5 -60 -43q-13 -26 -1 -34q13 -7 46 27q8 8 17 20.5t20 29.5q-17 0 -22 -1v1zM376 17q35 0 87 32q50 31 87 86q-140 -18 -179 -37q-25 -12 -37 -31t-1 -34q10 -15 42 -15z" />
    <glyph glyph-name="C" unicode="C" horiz-adv-x="385" 
d="M181 -8q-117 -3 -164 104t-12 281q34 175 131 297q96 122 212 122q30 0 51 -9q20 -9 31 -18q10 -9 16 -28q6 -20 6 -27q0 -4 0.5 -11.5t1.5 -18.5q0 -13 -10 -12q-10 3 -9 16v16q0 11 -6 23q-6 11 -14 23q-7 10 -26 18t-42 8q-41 0 -78 -36q-38 -36 -65 -86
q-26 -48 -51 -110q-24 -60 -36 -102l-10.5 -38t-6.5 -31q-69 -347 77 -345q52 0 92 17q39 17 56 35q18 20 32 42l12 18t5 7q13 15 21 3q4 -8 -3 -15l-10 -18q-5 -8 -10 -17t-12 -18q-14 -18 -35 -38t-57 -33t-80 -15z" />
    <glyph glyph-name="D" unicode="D" horiz-adv-x="706" 
d="M533 741q97 -6 144 -110t29 -249q-12 -102 -58 -191t-123 -148q-76 -58 -165 -58q-57 0 -82 21t-19 50q6 28 27 54q21 25 47 36q124 46 207 33q58 94 72 198q19 143 -2 234q-21 90 -85 102q-39 8 -94 -22q-56 -30 -117 -90q-2 -52 -7 -107t-15 -114q-6 -37 -13.5 -70.5
t-17.5 -65.5t-22 -62.5t-27 -60.5q-30 -60 -75 -93q-46 -33 -100 -29q-104 7 -3 225q64 139 156 267l11 15l18 24q37 238 27 252q-29 34 -150 -30q-33 -17 -41 -12q-4 3 6 13l18 9q9 5 16.5 8.5t13.5 5.5t14 5.5l19 8.5q21 9 38 12q16 3 36 6q18 3 36 -2q17 -5 29 -15
q32 -27 33 -154q115 111 219 105v-1zM46 31q31 -4 61 40q30 45 51 112t33 144l25 160l-30 -42l-31 -46q-125 -195 -138 -303q-8 -59 27 -65h2zM363 15q34 7 78 44q44 36 83 92q-114 12 -184 -29q-39 -24 -47 -53t13 -45q21 -17 57 -9z" />
    <glyph glyph-name="E" unicode="E" horiz-adv-x="431" 
d="M231 -13q-36 0 -67 7q-17 4 -33.5 10.5t-33.5 15.5q-34 18 -58 45t-36 72q-12 46 -5 101q4 41 17 81q6 19 12.5 34.5t13.5 28.5q13 25 35 47t37 33t39 22q22 10 36 15q13 4 33 9q19 4 22 6q-17 13 -24 21q-8 7 -21 27q-13 18 -19 45q-6 24 -4 57q4 64 44 102t98 38
q22 0 39 -6t23 -12l7.5 -7.5t9.5 -11.5q4 -9 -3 -13t-13 6q-16 28 -63 28q-26 0 -47 -34q-21 -35 -24 -103q-2 -35 12 -66q13 -32 30 -48q8 -8 17 -15.5l18 -15.5t14 -11.5t6 -4.5q7 -11 0 -18q-8 -8 -18 -3l-8 6q-6 4 -11 6q-2 1 -5 2t-7 3q-9 4 -17 5q-5 1 -10 1.5
t-11 0.5q-51 0 -90 -43q-38 -43 -55 -99t-18 -108q-2 -84 36 -149q37 -65 111 -63q17 0 32 3q16 3 29 9t24 12q9 5 21 17l18 18q7 7 15 18l11 17q2 3 4 6.5t4 8.5q4 8 6 10q13 24 24 21t-1 -40q-17 -52 -67 -93q-51 -42 -125 -42z" />
    <glyph glyph-name="F" unicode="F" horiz-adv-x="472" 
d="M657 832q10 16 15 3q2 -7 -1 -12l-3 -5q-4 -6 -6 -8l-9 -9l-6 -6t-6 -5q-5 -4 -16 -10q-5 -3 -10.5 -5.5t-10.5 -4.5t-11.5 -3.5l-14.5 -3.5t-16 -2.5t-17 -1.5q-29 -2 -61 -0.5t-68 5.5q-14 -50 -48 -288l-5 -35q63 6 113 31q6 1 10 0t4 -7q0 -5 -5 -12q-8 -9 -47 -23
t-79 -18q-56 -392 -194 -404q-44 -5 -75 3q-32 7 -48 21q-16 13 -27 35q-10 19 -13 36q-2 8 -2.5 16.5t-1.5 19.5q-3 37 18 84t41 59q12 6 20 3q7 -3 6 -12q-2 -9 -10 -15q-16 -10 -28 -34t-24 -84q-6 -31 8 -57q13 -24 38 -37q24 -12 51 -12q26 0 46 15q13 10 27 42
q14 33 26 89l18 92l18 105q4 22 6 35q-71 15 -103 53q-17 22 -17 42q0 21 14 27q9 5 23 -18q16 -26 24 -33q28 -31 63 -43l6 36q28 168 87 285q-43 5 -73.5 6.5t-49.5 0.5q-62 -3 -106 -28t-49 -66v-17.5t-1 -12.5q-2 -11 3 -21q2 -5 3.5 -8l2.5 -5q2 -4 7 -9l7 -7
q9 -13 4 -21q-5 -6 -15 4q-42 37 -33 96q8 47 53 86q46 39 125 38q26 0 67 -3t98 -10q112 -13 145 -7q91 19 111 48z" />
    <glyph glyph-name="G" unicode="G" horiz-adv-x="540" 
d="M579 287q14 9 21 2t-6 -19q-10 -8 -152 -98q-10 -41 -22.5 -84t-27.5 -90q-34 -109 -101 -190q-66 -79 -142 -79q-38 0 -64 17q-25 16 -34 41q-9 24 -6 51q3 26 17 51q23 40 107 111l80.5 66t74.5 57q2 0 5 3q2 2 3 2.5t2 1.5q21 88 27 132q-9 -13 -19 -26l-21 -27
t-24.5 -28.5l-30.5 -31.5q-34 -34 -70 -54q-38 -21 -69 -21q-74 2 -108 52t-28 168q6 111 41 209q35 97 84 158t108 96t114 35q37 0 63 -18q25 -18 34 -46q9 -29 12 -48q3 -22 2 -36q-2 -17 -9 -17q-11 1 -12 24q0 15 -8 42q-8 26 -30 53q-23 27 -52 27q-53 0 -102 -49
t-82 -120t-54 -141q-20 -68 -25 -123q-20 -219 54 -231q31 -4 64 15q34 20 53 42q10 11 24 28.5l32 40.5q36 46 48 60q28 34 42 69q7 17 12.5 36t10.5 39q9 38 20 63q20 47 39 32q20 -14 17 -56l-1 -5q-11 -130 -39 -260l25.5 15.5t31.5 19.5l30.5 19t22.5 14l14.5 9.5
t7.5 5.5zM142 -251q29 5 54 31q26 28 45 67q19 40 33 78q13 37 24 78q19 78 24 93q-59 -42 -139 -112q-82 -71 -101 -105q-14 -29 -15 -60q-2 -32 21 -54q22 -22 60 -16h-6z" />
    <glyph glyph-name="H" unicode="H" horiz-adv-x="631" 
d="M663 473q21 -14 15 -33t-40 -12q-45 14 -58 15l-36 -219q-18 -116 -10 -193q7 -74 38 -88q37 -17 60 12q11 14 17 2q4 -8 0 -12q-22 -26 -56 -31q-46 -6 -83 25q-38 32 -54 97q-26 100 40 407q-25 -4 -52 -15q-14 -5 -47 -21.5t-85 -45.5q-36 -206 -121 -300
q-89 -99 -169 -38q-19 13 -21 50t19 82q21 46 62 81q55 46 144 102q77 430 77 429q2 12 -3 17q-5 4 -18 6q-54 8 -146 -42q-14 -8 -18 0q-4 5 8 13q11 5 17.5 9t10.5 6q7 4 33 15q28 11 42 14q16 3 40 3q25 0 42 -7q16 -6 24 -16t16 -33q7 -22 6 -64q-1 -21 -3 -47t-7 -57
q-2 -11 -4.5 -33.5t-7.5 -55.5t-8.5 -59t-6.5 -45q67 37 120 60q35 14 64 21q61 271 66 288q10 34 36 21q4 -3 10 -9q4 -5 6 -12q1 -4 1.5 -7t0.5 -6v-21v-23q0 -28 -33 -220q52 1 75 -12zM218 308q-99 -61 -130 -93q-44 -45 -57 -102t12 -73q7 -4 18 -4t24 7t27 18
q15 11 29 30q15 19 27 42q13 25 23 54q11 34 17 68z" />
    <glyph glyph-name="I" unicode="I" horiz-adv-x="407" 
d="M87 -15q-38 3 -61 23q-23 19 -27 39q-5 20 -3 41q2 43 15 71q6 14 17 14t8 -19q0 -1 -0.5 -3t-1.5 -7q-2 -9 -3 -15q-2 -6 -3 -18q-1 -6 -1 -10.5v-8.5v-19q0 -12 3 -19q2 -4 4 -7.5t4 -8.5q4 -8 12 -13q9 -5 18 -8q10 -3 24 -3q31 0 60 24t48 61q10 19 18 37t14 35
t10.5 33.5l8.5 32.5q7 34 15 88t17 129q18 151 24 220q1 7 1.5 15t2.5 18t2.5 17.5t1.5 12.5t1.5 11t0.5 12q0 14 -1 18q-1 5 -6 7q-53 18 -165 -49q-13 -7 -15 2q-1 6 8 12q35 22 89 42t84 17q37 -3 51 -24q14 -22 14 -92q0 -95 -15 -240q-15 -143 -41 -225
q-33 -101 -96 -171q-63 -71 -136 -65z" />
    <glyph glyph-name="J" unicode="J" horiz-adv-x="389" 
d="M479 350q13 10 21 -2q6 -10 -8 -21q-20 -17 -186 -117q-8 -42 -15.5 -74.5t-15.5 -57.5q-34 -109 -101 -190q-66 -79 -142 -79q-38 0 -64 17q-25 16 -34 41q-9 24 -6 51q3 26 17 51q25 41 111 109q85 67 150 105l3 2q40 175 51 249q11 73 22 133.5t22 109.5q22 101 1 109
q-53 18 -165 -49q-13 -7 -15 2q-1 6 8 12q35 22 89 42t84 17q40 -3 57 -26q16 -23 9 -90q-14 -125 -29.5 -236t-32.5 -211q141 85 166 103h3zM29 -169q29 5 54 31q26 28 45 67q19 40 33 78q13 37 24 78q8 25 15 64q-33 -20 -67.5 -44.5t-71.5 -53.5q-74 -57 -93 -90
q-14 -29 -15 -60q-2 -32 21 -54q22 -22 60 -16h-5z" />
    <glyph glyph-name="K" unicode="K" horiz-adv-x="644" 
d="M506 727q-14 2 -57 -31t-76 -79l-13.5 -18t-14.5 -19q-3 -73 -8.5 -130t-13.5 -99q-38 -204 -94 -291q-57 -88 -139 -54q-40 16 -42 68q-2 53 28 122q15 35 33 70.5t38 70.5q40 70 90 138q3 5 10 14.5l18 23.5q10 67 15 111q22 159 -19 159q-28 0 -67 -14
q-38 -14 -57 -24q-20 -11 -30 -18q-14 -9 -24 -5q-6 3 9 14l25.5 15t37.5 20q43 22 71 30q22 4 50 6t50 -16q23 -18 23 -56q1 -53 0 -108q129 158 188 144q24 -4 33 -20q9 -15 6 -30q0 -3 -1 -6t-1 -6l-2 -6q-2 -5 -3 -6t-2 -1.5t-3 -2.5q-3 -3 -7 -2q-5 1 -12 0
q-17 2 -23 23q-6 22 -12 23zM635 -36q10 -1 10 -7q1 -8 -12 -9q-55 -9 -100 24q-21 16 -30 24q-8 6 -28 33q-19 25 -27 53q-4 14 -7 33t-6 45q-6 53 -2 115l6 98q1 17 1.5 34t0.5 35q0 36 -3 51t-8 20q-18 14 -38 12q-7 -1 -12 8q-4 9 9 13q65 6 90 -10q8 -5 14 -12
q5 -6 10 -18l4 -10l4 -10q4 -11 5 -27q1 -17 3 -28q1 -5 1.5 -13.5t0.5 -19.5v-35v-40v-40v-94q0 -30 3 -76q3 -47 12 -72q9 -26 24 -39q15 -14 30 -22q13 -7 20 -7h6.5t7.5 1q5 1 9 1zM246 406q8 36 12 61l-4 -7q-2 -5 -21 -36l-19.5 -32.5t-20.5 -33.5t-22 -37.5
l-24 -43.5t-24 -45t-20 -43q-18 -42 -30 -81q-12 -38 -7 -64q4 -26 27 -33q31 -11 57 18q25 28 42 84q16 54 27 107q10 50 18 110q4 29 6 47t3 24v5z" />
    <glyph glyph-name="L" unicode="L" horiz-adv-x="415" 
d="M956 -90q7 15 21 10q13 -5 6 -27q-49 -139 -215 -144q-72 -1 -156 38q-84 40 -188 114l-83.5 59t-39.5 26l-42 24t-39 20q-60 -80 -149 -119q-64 -28 -118 -4t-54 81q0 59 48 89q47 29 115 31q71 0 132 -14q35 73 49 147q6 31 15 92t20 154q22 184 24 195q17 96 3 104
q-25 15 -85 -9q-61 -24 -91 -43q-16 -10 -22 -4t14 18q34 22 104 48q69 26 107 9q23 -9 32 -28t6 -61q-1 -5 -2.5 -28.5l-4.5 -67.5t-6 -79.5t-5 -63.5q-5 -56 -15 -132q-10 -75 -21 -118q-22 -83 -60 -151q26 -10 52.5 -22.5t55.5 -29.5q35 -20 118 -85q42 -33 82.5 -61.5
t78.5 -52.5q76 -47 134 -49q122 -5 186 130q1 2 3 4h-10zM59 -63q53 20 108 112q-69 26 -113 26q-19 0 -40 -3q-20 -3 -43 -12q-22 -9 -37 -27t-15 -44q0 -34 24 -49q25 -15 54 -14q32 2 63 13z" />
    <glyph glyph-name="M" unicode="M" horiz-adv-x="931" 
d="M927 -31q7 8 19 4q15 -6 1 -30q-9 -14 -30 -25q-20 -10 -38 -10q-19 0 -36 4q-20 4 -48 21q-29 16 -48 45q-20 29 -30 82t-1 125q9 69 24 137l15 63t14 51l13 43.5t11 39.5q11 39 11 59q0 21 -14 27q-32 13 -126 -72q-5 -68 -27 -174q-28 -128 -81 -232t-102 -105
q-21 0 -36 9t-24 30q-9 20 -7 51q1 30 15 75q13 44 39 100q43 96 135 204q8 114 -7 183q-15 71 -55 72q-65 3 -161 -107q1 -118 -12 -247q-10 -98 -45 -196q-34 -97 -84 -160q-49 -63 -98 -55q-36 4 -54 36q-18 31 -18 75q0 42 14 93t37 93l8 16t17 32t20.5 39.5t19.5 37.5
l22.5 40.5t28.5 48.5q31 51 62 95q1 22 6 81q1 9 1.5 19.5t2.5 21.5t2.5 19.5t1.5 13.5t1 11v12q0 11 -6 16q-5 4 -16 4q-28 0 -67 -14q-38 -14 -57 -24q-20 -11 -30 -18q-14 -9 -24 -5q-6 3 9 14l25.5 15t37.5 20q43 22 71 30q114 31 120 -60q1 -17 1.5 -30.5t0.5 -24.5
q101 101 181 89q126 -20 132 -192q93 76 153 48q29 -14 42 -43q13 -30 15 -65q1 -35 -6 -84l-7.5 -46.5t-8.5 -39.5t-10 -40l-11 -48l-10.5 -45t-6.5 -30q-19 -97 0 -169q19 -71 62 -73q34 -1 52 23zM246 385q5 34 8.5 68.5t7.5 69.5q-27 -40 -65 -104l-89 -154
q-26 -48 -38 -104q-12 -57 -3 -103t42 -52q23 -4 49 44q25 46 43 120l16.5 68t12.5 60q10 54 15 89zM445 55q32 0 70 119q37 118 54 263q-74 -89 -108 -162q-10 -22 -17.5 -42t-13.5 -39q-12 -38 -15 -63t0 -43q3 -17 11 -27q7 -9 18 -9z" />
    <glyph glyph-name="N" unicode="N" horiz-adv-x="695" 
d="M679 -45q10 7 15 1q5 -7 -4 -14q-40 -36 -111 -16q-55 16 -82 78q-27 61 -27 142q0 80 9 172q9 91 21 168q12 76 12 128q0 51 -19 54q-63 7 -142 -57q-3 -137 -18 -235q-4 -28 -9 -55t-11 -53q-12 -54 -33 -110q-22 -59 -46 -96q-26 -39 -61 -57q-36 -18 -77 -1
q-41 16 -42 81q-2 66 28 149q30 85 82 175q53 93 114 161q3 33 6 81q2 24 2.5 39.5t1.5 22.5q5 16 2 44q-3 29 -25 29q-28 0 -67 -14q-38 -14 -57 -24q-20 -11 -30 -18q-14 -9 -24 -5q-6 3 9 14l25.5 15t37.5 20q43 22 71 30q22 4 48 6q25 1 48 -18q23 -20 26 -57
q1 -13 1.5 -35.5t0.5 -54.5q82 63 147 53q50 -8 72 -46q23 -40 23 -96q0 -57 -6 -132q-3 -38 -7 -74.5t-9 -72.5q-11 -72 -9 -149q1 -77 21 -129q8 -22 22 -32q15 -11 30 -12q14 -1 27 2t19 7zM97 23q26 -9 53 36t48 121q11 38 20.5 75.5t17.5 75.5q17 76 27 145
q2 8 3.5 21.5l3.5 32.5q-115 -138 -175 -309q-60 -170 4 -198h-2z" />
    <glyph glyph-name="O" unicode="O" horiz-adv-x="442" 
d="M523 545q11 8 14 -3q2 -8 -6 -14q-14 -11 -57 -27q-9 -5 -19 -6q-7 -59 -21 -109q-45 -173 -108 -279t-133 -105q-74 1 -130 69q-55 67 -60 218q-3 110 28 225q32 119 97 203q66 86 148 86q55 0 75 -42q3 -7 -4 -7q-5 0 -12 5l-7 7l-10 10q-5 5 -15 8q-11 3 -22 3
q-41 0 -78 -60q-38 -60 -60 -144q-23 -85 -36 -163q-7 -40 -10 -72t-3 -56q0 -46 6 -91q6 -44 18 -85t33 -66q21 -26 49 -27q55 -2 117 108q61 109 102 258q15 55 21 105q-40 -4 -80 8q-38 12 -58 44q-20 33 -21 75t20 77t60 44q50 11 80 -54t23 -172q27 5 65 31zM332 589
q42 -72 107 -75q7 100 -18 160q-26 60 -63 51q-29 -8 -38 -55t11 -82z" />
    <glyph glyph-name="P" unicode="P" horiz-adv-x="468" 
d="M471 802q47 -5 71 -39q24 -35 24 -78q0 -44 -6 -89q-35 -179 -132 -248q-49 -33 -85 -13q-36 19 -28 57q1 4 6 6q4 1 9 0q4 -1 4 -6q-4 -21 21 -31q26 -11 50 9q21 18 45 72q23 52 40 137q4 20 6.5 37.5l4.5 32.5t2.5 30t-0.5 30q-1 29 -14 48q-12 18 -36 21
q-23 2 -59 -43q-37 -47 -84 -124q1 -122 -9 -225q-11 -113 -45 -209q-35 -98 -79 -146q-45 -50 -87 -38q-29 9 -31 63q-1 54 21 130q11 38 26 79t35 85t41 84t44 77l16 29q2 36 3 115q3 130 -33 130q-28 0 -67 -14q-38 -14 -57 -24q-20 -11 -30 -18q-14 -9 -24 -5q-6 3 9 14
l25.5 15t37.5 20q43 22 71 30q22 4 48 6t50 -18q23 -19 28 -57q2 -10 2 -18q0 -5 0.5 -11.5t1.5 -14.5q1 -13 3 -25q50 84 87 116q38 33 76 29zM93 14q18 -5 35 12q16 16 30 53q13 36 24 72q5 18 10 39t10 46l8.5 43t5.5 30q4 22 9 56q8 48 12 130q-68 -112 -126 -289
q-59 -179 -18 -192z" />
    <glyph glyph-name="Q" unicode="Q" horiz-adv-x="505" 
d="M537 -19q6 15 14 4q4 -8 3 -15q-5 -17 -22 -36q-18 -20 -47 -20q-25 0 -58 14q-16 7 -28 13.5t-21 12.5q-18 12 -57 42l-32.5 24.5l-19.5 14.5q-84 -57 -169 -51q-97 8 -107 51q-8 33 34 60q49 30 114 20q56 -8 113 -39q91 94 134 236q13 43 24 84l11 44.5t12 53.5
q12 57 15 104q3 46 0 90t-21 71q-18 26 -51 31q-64 7 -130 -57q-66 -65 -111 -160q-46 -98 -68 -200q-17 -90 -15 -141q2 -52 10 -72q13 -29 0 -33q-8 -2 -15 12q-8 18 -13 37q-5 20 -5 68q0 25 2.5 55.5t7.5 66.5q6 43 21 97t45 120q15 33 32 62.5t36 55.5q37 52 93 85
t117 26q52 -6 87 -36q35 -31 47 -76q12 -47 15 -97q3 -51 -6 -108q-9 -55 -18 -97l-10 -39t-10 -36q-20 -62 -73 -139t-123 -130q22 -15 66 -51q42 -35 71 -51q26 -15 56 -13q35 2 51 43zM102 3q68 -3 131 54q-53 32 -94 36q-74 7 -105 -24q-24 -24 0 -44q22 -19 69 -20z
" />
    <glyph glyph-name="R" unicode="R" horiz-adv-x="573" 
d="M581 -80q10 4 12 -3q2 -6 -8 -11q-11 -6 -27 -9q-15 -3 -49 11q-33 13 -60 51t-33 112q-6 75 0 185q6 109 6 114q0 40 -12 67t-26 36t-26 8q-13 -1 -15 11q-1 15 23 24l4 1q26 7 61 47q34 39 48 78q16 40 9 85q-8 45 -36 44q-75 -3 -171 -109q-1 -17 -3.5 -46t-7.5 -71
q-9 -81 -12 -119q-10 -107 -47 -214q-36 -105 -91 -172t-112 -60q-44 6 -51 54t9 103q17 57 43 109l5 10.5l12 24.5l15.5 31.5l15.5 32.5t18 35.5l21 40.5q22 43 51 90q28 46 57 87q16 86 16 91q14 89 2 96q-25 15 -85 -9q-61 -25 -92 -45q-16 -10 -22 -4t14 18
q38 25 106 51q69 27 106 11q36 -15 39 -90v-18q94 97 180 97q53 0 71 -49q18 -50 9 -105q-3 -17 -16 -37q-14 -21 -30 -39q-17 -18 -33 -33l-27 -24l-10 -8q1 0 9 -3q7 -3 21 -12q13 -9 25 -22q12 -14 21 -37q9 -24 9 -54q0 -32 -6 -95q-3 -32 -6 -60t-5 -54q-5 -51 -3 -104
q1 -51 14 -78q34 -75 78 -58zM165 397q2 14 5.5 33.5t8.5 44.5q9 49 12 69q-79 -117 -165 -305q-44 -86 -51 -165q-8 -75 33 -75q86 0 155 395z" />
    <glyph glyph-name="S" unicode="S" horiz-adv-x="422" 
d="M172 -14q-44 0 -75 15q-32 15 -47 39q-14 22 -25 51q-11 27 -9 50q1 22 3 36q9 51 50 88q12 11 20 3q7 -8 -3 -18q-27 -32 -45 -78t17 -105q34 -58 116 -58q66 0 105 54t39 146q0 40 -29 95q-29 54 -63 99q-34 44 -63 101q-29 56 -29 101q-2 85 45 144t113 57
q28 -2 47 -12q21 -11 29 -22q10 -13 14 -33q5 -23 5 -28q0 -4 0.5 -10t1.5 -14q0 -18 -10 -19t-10 18v6q3 29 -19 63q-23 34 -60 33q-35 -1 -58 -47q-22 -44 -19 -129q1 -46 30 -100q14 -27 29 -51t32 -45q33 -42 60 -96t27 -100q0 -112 -60 -172t-157 -60z" />
    <glyph glyph-name="T" unicode="T" horiz-adv-x="398" 
d="M652 824q10 16 15 3q2 -7 -1 -12l-3 -5q-4 -6 -6 -8l-9 -9l-6 -6t-6 -5q-5 -4 -16 -10q-5 -3 -10.5 -5.5t-10.5 -4.5t-11.5 -3.5l-14.5 -3.5t-16 -2.5t-17 -1.5q-44 -3 -138 8q-26 -85 -66 -346q-63 -412 -203 -412q-71 0 -106 41q-34 40 -34 90q0 106 60 142q12 6 19 3
t7 -12t-9 -15q-14 -8 -21 -15q-8 -8 -15 -34q-7 -25 -7 -67q0 -53 36 -78q35 -25 68 -22q26 3 47 36t36 90t24 108q5 26 10 55t10 63q10 65 15 91q2 14 5 32.5l7 41.5t6.5 39.5t4.5 26.5q3 19 9 51q3 16 6.5 29.5t7.5 24.5q8 25 18 47q-65 8 -104 6q-60 -3 -104 -31
q-46 -29 -50 -70v-17.5t-1 -12.5q-2 -11 3 -21q2 -5 3.5 -8l2.5 -5q2 -4 7 -9l7 -7q9 -13 4 -21q-5 -6 -15 4q-42 37 -33 96q8 47 53 86q46 39 125 38q28 0 69 -3.5t96 -10.5q109 -14 144 -9q41 5 70 19q30 15 41 32z" />
    <glyph glyph-name="U" unicode="U" horiz-adv-x="683" 
d="M706 681q-5 -30 -21.5 -77t-45.5 -111q-57 -128 -132 -240q-8 -107 4 -189q12 -85 46 -117q28 -29 51 -33q12 -3 12 -12t-12 -10q-36 -2 -99 39q-31 19 -58 69q-28 51 -35 131q-118 -133 -220 -133q-31 0 -52 10q-22 10 -34 31q-11 20 -19 43q-8 22 -6 57q2 37 3 62
q1 14 3 31t7 37t8.5 36.5t5.5 28.5q4 24 15 63q5 20 8 33l5 21l16.5 68.5t19.5 77.5l19.5 73t15.5 56l14 50q-3 10 -27 9q-25 -2 -59 -12q-32 -10 -55 -23q-14 -9 -24 -6q-9 3 5 12l3 3q18 10 42 21q12 5 25.5 10t28.5 10q31 9 58 8q29 -2 45 -16q13 -11 17 -27q4 -15 1 -48
q-2 -16 -3.5 -29.5t-3.5 -25.5t-6 -31t-9 -45l-9 -47l-7 -37t-8.5 -41.5l-13.5 -60.5l-15 -65t-12 -56q-11 -52 -18 -106t2 -90q9 -34 33 -43q70 -25 204 140q-2 100 27 222q51 219 100 312q49 94 121 79q40 -7 48 -35q7 -27 -3 -70zM531 413q-11 -47 -18 -99q7 13 15 24
q74 121 126 256q60 159 10 162q-12 1 -25 -8q-11 -8 -22 -32q-10 -21 -18 -44q-4 -11 -8.5 -26.5l-10.5 -36.5q-12 -42 -18 -69l-19 -82q-4 -14 -6 -24.5t-4 -18.5z" />
    <glyph glyph-name="V" unicode="V" horiz-adv-x="494" 
d="M613 565q5 0 7 -8q0 -9 -14 -12q-1 -1 -3 -1q-31 -6 -55 -3q-42 8 -64 16q-3 -35 -9 -74.5t-16 -84.5q-13 -57 -36 -121q-23 -63 -54 -126t-73 -103q-42 -41 -84 -39q-127 6 -112 279q13 237 33 369q18 130 -21 130q-28 0 -67 -14q-38 -14 -57 -24q-20 -11 -30 -18
q-14 -9 -24 -5q-6 3 9 14l25.5 15t37.5 20q43 22 71 30q22 4 48 6t50 -18q23 -19 28 -57q-2 -78 -5.5 -189.5l-8.5 -260.5q-8 -131 -3 -186q5 -56 30 -59q55 -7 115 96t105 270q20 74 28 160q-74 32 -101 105q-14 39 -16 70q-1 29 8 45q8 13 20 22q10 7 23 9q35 5 52 -10
q19 -15 23 -39q15 -82 11 -168q31 -29 69 -33q11 -1 18 -1h12t9 0.5t9 1.5t7 1h3zM426 694q22 -50 45 -78q1 96 -14 138q-8 24 -26 21q-20 -4 -19 -37q1 -20 12 -45z" />
    <glyph glyph-name="W" unicode="W" horiz-adv-x="691" 
d="M809 558q5 0 7 -8q0 -9 -14 -12q-1 -1 -3 -1q-31 -6 -55 -3q-42 8 -64 16q-3 -35 -9 -74.5t-16 -84.5q-9 -40 -21 -81t-28 -83q-32 -84 -81 -156t-97 -69q-83 7 -111 129q-83 -132 -141 -128q-41 3 -67 27t-35 62q-9 37 -12 87q-2 25 -1 50.5t3 51.5q4 61 15 154t31 221
q2 11 3 20.5l2 19.5t1 20v21q0 22 -7 33q-8 12 -19 11q-28 -1 -67 -17q-19 -8 -33 -14.5l-24 -11.5q-20 -11 -30 -18q-14 -9 -24 -5q-6 3 9 14l23.5 14t38.5 21l40.5 20.5t31.5 13.5q18 7 39 8q23 2 47 -3q24 -4 40 -22q17 -19 17 -47q-3 -76 -24 -253q-11 -89 -16 -140
t-6 -65q-2 -20 -3 -49l-2 -50q-1 -10 -1 -21v-24v-23.5t1 -18.5l2 -15.5t3 -15.5q3 -14 9 -22q6 -7 15 -7q25 0 61 36q18 18 36 42.5t37 55.5q-5 29 -7 63.5t0 73.5q3 79 12 140t21 114q14 57 43 80q31 24 62 17q40 -9 33 -111q-3 -47 -33 -135q-31 -90 -73 -175
q-2 -204 63 -204q45 0 102 106q29 54 54 120.5t47 147.5q20 74 28 160q-74 32 -101 105q-14 39 -16 70q-1 29 8 45q8 13 20 22q10 7 23 9q35 5 52 -10q19 -15 23 -39q15 -82 11 -168q31 -29 69 -33q11 -1 18 -1h12t9 0.5t9 1.5t7 1h3v-6zM622 687q22 -50 45 -78
q1 96 -14 138q-8 24 -26 21q-20 -4 -19 -37q1 -20 12 -45zM396 539q-1 -7 -2.5 -22.5t-4.5 -39.5t-5.5 -49.5t-4.5 -51.5q-5 -53 -6 -99q65 144 79 258q9 79 -16 82q-12 2 -24 -22t-15 -55z" />
    <glyph glyph-name="X" unicode="X" horiz-adv-x="638" 
d="M619 -63q9 7 15 -2q5 -8 -3 -11q-1 -1 -10 -7q-10 -7 -16 -9q-8 -3 -27 -6q-18 -3 -42 5q-29 6 -54 24q-25 17 -57 59q-31 40 -63 122q-31 79 -58 196q-75 -32 -105 -66q-59 -65 -69 -213q-2 -23 -12 -32q-10 -8 -30 -13q-17 -3 -27 6t-10 25q0 41 35 131q34 88 74 126
q33 31 138 66q-1 7 -9 40q-14 67 -26.5 136.5t-23.5 142.5q-1 5 -1.5 13.5t-2.5 19.5t-2.5 20t-1.5 16q-2 13 -6 30q-5 16 -12 24q-8 8 -18 8q-28 0 -67 -14q-38 -14 -57 -24q-20 -11 -30 -18q-14 -9 -24 -5q-6 3 9 14q8 5 24.5 13.5l41.5 20.5q47 23 78 31q98 26 126 -70
l83 -361q22 12 30 18q58 45 66 159l10.5 162.5t5.5 64.5q-1 10 6 16q9 7 21 11q21 8 32 -3t11 -33q0 -3 -4 -51.5l-12 -142.5l-2 -21.5t-3 -20.5q-3 -21 -10 -36q-4 -8 -7 -15.5t-5 -13.5q-4 -10 -17 -25q-14 -15 -17 -21t-20 -19l-12.5 -9.5t-6.5 -5.5t-7.5 -5.5
t-14.5 -8.5q-17 -10 -19 -12l-20 -12q81 -385 156 -404q19 -6 35 -9q13 -3 21 -3h10q2 0 7 3q3 2 6 5v-6z" />
    <glyph glyph-name="Y" unicode="Y" horiz-adv-x="563" 
d="M491 689q15 76 65 105q40 24 67 -7q24 -27 18 -89q-11 -116 -108 -254q-41 -440 -190 -543q-46 -31 -94 -27t-66 39q-19 32 -7 70q12 37 55 67q32 22 76 48t101 56q6 28 14 72.5t18 107.5q-79 -71 -141 -82q-99 -16 -132 35t-15 161q10 100 36 210q10 37 6 82
q-5 45 -28 45q-28 0 -82 -24q-27 -12 -44.5 -21t-25.5 -14q-14 -9 -24 -6q-6 1 9 13q18 13 61 36q44 23 73 31q9 2 16.5 4t13.5 4q12 3 33 3t35 -6t26 -21q13 -16 17 -41q3 -22 -5 -117q-8 -93 -15 -129q-1 -7 -3 -16.5l-5 -23.5q-6 -27 -9 -45q-3 -19 -6 -43q-3 -26 0 -42
q3 -17 10 -31q7 -15 23 -21q15 -6 39 -3q58 8 143 99q4 26 8 57.5l9 68.5l9 67.5t8 54.5l7 42.5l5 31.5zM625 693q7 57 -15 70q-21 12 -39 -25q-12 -22 -18 -59q-1 -2 -4.5 -49.5t-11.5 -141.5q80 125 89 204zM325 -71q41 34 77 199q-35 -17 -74 -40t-81 -54
q-62 -44 -51 -90q7 -34 44 -42q42 -8 84 27h1z" />
    <glyph glyph-name="Z" unicode="Z" horiz-adv-x="479" 
d="M842 -175q7 16 21 10q10 -5 3 -18q-8 -11 -18 -21q-12 -12 -33 -26q-22 -14 -61 -22t-87 -3q-61 6 -141 56t-172 127t-103 85q-31 22 -53 32q-73 -86 -180 -115q-80 -21 -115 26q-27 36 -4 80q19 37 66 51q91 25 174 9q43 74 120 275l27 74q-21 10 -31 11q-61 9 -78 -8
q-9 -7 -15 -4t2 18q16 10 47 15q30 5 53 3q4 -1 17 -3l18 -3q67 182 138 265l-36 14.5l-28 11.5t-27 8.5l-33 7.5q-34 7 -64 4q-38 -4 -102 -41q-65 -37 -92 -57q-14 -11 -21 -3q-6 6 5 14q1 1 15 12q13 10 21 15q4 2 10 6t14 10q18 13 28 18q6 3 13.5 7.5l16.5 9.5t17 9
t16 7q15 6 33 12q17 6 35 9q24 4 64 -5t62 -18q11 -5 29.5 -12t44.5 -18q62 59 130 59q49 0 73 -15q23 -15 22 -37q-1 -25 -27 -49t-57 -24q-39 0 -97 21q-44 -72 -109 -258q27 -4 81 5q52 9 69 18q14 8 23 -4q9 -11 -6 -15l-4 -1q-6 -2 -36 -15q-28 -13 -64 -22
q-35 -9 -66 -6h-5h-4q-2 -7 -4.5 -13.5t-4.5 -14.5t-5 -16l-6 -16q-6 -17 -9 -27q-63 -173 -126 -258q13 -5 51 -24q32 -17 76 -54l42.5 -36l40.5 -36l40 -36t41 -35q42 -35 84 -57q41 -22 77 -22q82 0 123 18t50 39zM580 785q-35 -5 -69 -54q54 -18 82 -13q22 4 36 18
q13 13 12 27q-2 10 -18 18q-16 7 -43 3v1zM-1 -50q61 16 126 119q-78 18 -154 -2q-50 -13 -58 -54q-6 -36 24 -56q25 -17 63 -6z" />
    <glyph glyph-name="bracketleft" unicode="[" horiz-adv-x="330" 
d="M80 -104h-8h-7q-4 0 -6 2q-1 1 -5 3q-2 1 -4 5q-1 2 -3 8q-1 3 -1 12q0 5 2 15q1 4 12 123q5 60 10 102.5t10 68.5q2 11 4.5 28t6.5 41l7.5 43.5t6.5 34.5t6 32t5 36q4 37 6 60q2 41 25 56q25 16 65 17q21 1 36 3q13 1 25 3t17 3q19 -2 21 -12q-2 -11 -15 -12
q-10 1 -49 -3q-20 -2 -31 -3t-15 -1q-10 0 -19 -12t-9 -30q0 -5 -1.5 -24t-5.5 -51l-8.5 -69.5l-9.5 -79.5t-8 -71t-5 -46q-18 -158 -18 -225v-7v-6v-4q0 -3 1 -3t3 -2q1 -1 4 -1h6h8q3 0 12.5 1t25.5 3t27.5 3t19.5 1q14 0 34 -6q13 -10 6 -19q-8 -9 -27 -9q-12 0 -72 -3
t-73 -3z" />
    <glyph glyph-name="backslash" unicode="\" horiz-adv-x="434" 
d="M407 -128q-3 0 -9 2q-4 1 -7 6q-4 6 -5 9q-1 2 -2 5.5t-3 8.5t-3 8.5t-2 5.5q-86 207 -194 392q-107 183 -156 243l-17.5 22.5t-22.5 27.5t-21 25.5l-12 15.5q-32 44 -14 60q19 18 44 -2q16 -16 31 -34q8 -9 16 -19l17 -21q18 -23 30 -36q96 -112 218 -369
q124 -259 137 -323l3 -17l-6 -6l-3 -3l-2 -1q-1 -1 -2 -1h-4h-8z" />
    <glyph glyph-name="bracketright" unicode="]" horiz-adv-x="330" 
d="M117 -95q-12 1 -24 1.5t-25 0.5h-28q-19 1 -19 14q0 12 17 10q5 -1 17.5 -1.5t32.5 -0.5q41 0 45 -1q10 -1 21 11q11 13 11 30q0 10 6 75l6.5 69.5t8.5 81.5l12 117q15 145 15 225v8v6v5q0 3 -1 3t-3 2t-4 2h-6h-8q-2 0 -11 -1.5t-26 -3.5t-28.5 -3.5t-18.5 -1.5
q-13 0 -34 6q-13 10 -6 19t27 9q12 0 72 3q30 2 48.5 3t25.5 2h10h9q4 0 8 -1q6 -2 6 -3t5 -4t3 -8q-1 -4 2 -12t-1 -18q-2 -13 -9 -86l-19 -207q-5 -49 -9 -117.5t-8 -158.5q-1 -40 -39 -58t-79 -14z" />
    <glyph glyph-name="asciicircum" unicode="^" horiz-adv-x="369" 
d="M296 468q-21 10 -33 27q-10 20 -50 74q-2 2 -2.5 3t-1.5 2l-3 3l-3 3h-14q-36 -17 -72 -44q-36 -29 -60 -37q-6 0 -6 5l-3 8q6 4 27 21q22 17 34 24q5 4 12.5 9t18.5 13q21 15 36 27t27 24q10 7 19 6q10 -2 14 -9q1 -2 1 -7q12 -5 12 -9q3 -6 17.5 -31l40.5 -70
q2 -2 6 -10q5 -10 5 -13q4 -3 -6 -7q-1 -1 -3 -1q-2 -11 -12 -6z" />
    <glyph glyph-name="underscore" unicode="_" horiz-adv-x="439" 
d="M67 -190q-44 -5 -60 25q-11 24 7 36q4 4 12 6q29 -8 193 -5q166 3 196 -12q19 -7 21 -23q2 -15 -12 -23q-89 31 -358 -2z" />
    <glyph glyph-name="grave" unicode="`" horiz-adv-x="656" 
d="M379 482q-17 -11 -33 6q-39 70 -54 111q-5 13 6 24q10 10 30 10q13 0 33 -47q7 -14 11.5 -29.5t7.5 -32.5q6 -33 0 -41z" />
    <glyph glyph-name="a" unicode="a" horiz-adv-x="459" 
d="M84 -16q-21 -4 -46 8q-24 12 -36 34q-22 52 -7 138q15 85 68 156q26 37 69 61q42 24 81 18q15 -2 24 -13q9 -12 9 -28q0 -28 -12 -47q-6 -6 -13 -6q-14 0 -6 32t-3 35q-49 16 -94 -48q-37 -53 -49 -136q-12 -81 2 -132q3 -15 18 -18q14 -3 25 5q13 10 27 29q15 19 21 31
l10 18t14 28q16 33 24 45l17 30.5l19 36.5l6 12q2 4 3.5 6.5t2.5 4.5q1 4 1.5 8t1.5 9q2 10 3 14q1 3 3 11q1 6 5 11q4 6 7 9q15 15 27 0q8 -18 8 -24q3 -41 3 -120q-1 -22 -1 -54.5v-77.5q0 -23 18 -27q36 -11 83 63q46 73 66 141q3 13 12 22q1 1 6 0q7 0 7 -8q0 -5 -9 -30
q-47 -125 -75 -168q-32 -47 -72 -62q-41 -15 -72 1q-17 7 -28 29q-10 21 -12 44q-1 13 -1.5 22.5t-0.5 15.5v51q0 8 -6 8q-9 0 -14 -11q-2 -3 -5 -10.5t-8 -18.5t-9 -19t-6 -13t-6 -12t-9 -17q-11 -20 -18 -30l-8.5 -10.5l-9.5 -11.5q-10 -12 -23 -18q-13 -7 -25 -8z" />
    <glyph glyph-name="b" unicode="b" horiz-adv-x="317" 
d="M110 -25q-22 -7 -49 3q-28 11 -47 33q-12 14 -27 58t-10 97q1 20 5.5 55.5t13.5 87.5q18 105 48 197q55 178 120 243q22 28 55 43t51 3q27 -16 21 -73t-33 -129q-14 -36 -30.5 -73.5t-36.5 -75.5q-41 -77 -81 -132q-27 -27 -34 -67q-7 -46 -9 -68q-5 -78 7 -132
q1 -10 9 -22q7 -11 17 -13q17 -3 32 9q16 13 26 30q19 33 26 59q8 28 15 79q0 2 -16 9q-8 3 -16 7.5l-17 9.5q-25 16 -25 48q0 35 22 51q20 14 45 2q4 -2 7.5 -4.5t6.5 -5.5q6 -6 9 -16q2 -5 3 -9t2 -6t1.5 -6.5t2.5 -11.5q3 -14 3 -15l3 -18h20l10.5 2.5t16.5 4.5
q24 7 51 39q8 8 12.5 13.5t6.5 7.5q7 7 13 0q4 -1 4 -9q1 -2 -3 -9q-52 -65 -96 -73q-6 -2 -10 -3t-7 -1l-13 -6q-20 -89 -45 -141q-17 -35 -30 -48q-15 -15 -40 -23zM89 345q4 -3 15 9q11 13 20 29q5 8 11.5 19.5l14.5 25.5l24 42q4 7 8.5 16l10.5 21t11.5 24.5t10.5 25.5
q8 20 17.5 48.5t20.5 66.5q21 75 13 89q-12 14 -26 12q-13 -1 -26 -11q-28 -22 -60 -107q-19 -56 -31 -100t-18 -78q-2 -10 -6 -26q-2 -9 -3.5 -17t-3.5 -16t-3 -15.5t-3 -15.5q-3 -15 -1 -27q1 -10 6 -13zM201 217q7 7 -12 51q-9 22 -24 12q-8 -6 -8 -18q0 -11 8 -21
q7 -9 15 -14q9 -6 15 -9t8 -1h-2z" />
    <glyph glyph-name="c" unicode="c" horiz-adv-x="319" 
d="M148 -5q-50 -5 -93 21q-34 20 -47 69q-25 88 11 164l14.5 28.5l12.5 23.5t15.5 23t22.5 26q25 28 57 45q27 13 49 12q19 -2 35 -17q15 -16 14 -35q-2 -18 -9 -27q-8 -8 -12 -6q-5 3 -4 16q7 25 0 30q-15 10 -43 -3q-32 -17 -54 -72q-23 -56 -30 -114q-10 -94 24 -124
q48 -43 112 6q31 22 67 81q37 60 41 81q13 28 22 19q3 -4 -1 -26q-11 -35 -45 -96q-35 -62 -66 -81l-9 -9l-9 -9q-1 -1 -3 -2.5t-5 -4.5q-6 -6 -10 -7l-11 -5q-4 -2 -7 -3l-6 -2q-6 -2 -15 -3q-5 -1 -9.5 -1.5t-9.5 -1.5z" />
    <glyph glyph-name="d" unicode="d" horiz-adv-x="458" 
d="M292 -15q-22 0 -44 20q-20 19 -28 48l-8 75q-5 4 -10 -2q-41 -65 -90 -104q-18 -14 -46 -15t-40 9q-22 17 -28 33q-6 15 -6 54q0 64 47 156q1 2 3 6.5l5 11.5l5 12t4 8t4.5 7.5t6.5 10.5q7 11 14 20l15 18q8 9 21 19q14 10 27 17q14 8 31 12q18 4 39 0q22 -5 32 -21l4 25
q8 37 16.5 69t18.5 60q1 3 9 24l9 27q1 5 9 25q8 22 12 29l12 24q8 17 16 27q5 6 9 12t9 11q34 46 77 54q30 6 44 -15q13 -21 6 -58q-9 -45 -23 -96t-33 -109l-14 -35t-11 -25l-9.5 -19.5l-9.5 -19.5l-15 -27q-5 -8 -21 -36l-15.5 -27l-14.5 -25q-24 -33 -30 -66
q-3 -15 -4.5 -35.5t-2.5 -46.5q-1 -52 6 -73q7 -12 21 -15q13 -3 24 3q4 2 7.5 5t7.5 6q7 6 15 15q4 5 7.5 8.5t6.5 7.5t6 8.5t7 9.5t6 9t4 6l9 15l6 10q29 54 45 91q8 14 15 11q7 -2 6 -9q-7 -36 -41 -99l-9 -18l-7 -14t-6 -11l-7 -11.5l-9 -14.5t-10.5 -15l-11.5 -14
q-14 -15 -27 -26q-26 -21 -75 -21zM315 298q4 -5 10 2l12 18q5 7 8 12t5 9q4 10 21 42q8 16 13.5 26t7.5 15t6 13.5t10 22.5q13 29 18 43q6 16 15 45q5 14 9 29l8 30q7 30 15 69q8 34 2 48q-6 15 -28 11q-61 -13 -100 -192q-53 -230 -33 -240zM77 50q1 -1 5 -3q2 -1 6 -1
l6 1q2 0 6 2l6 3q2 1 3.5 2t3.5 3t3.5 3t3.5 2t3.5 2t3.5 3q3 2 6 5q22 17 59 75q38 59 38 72l10 126q-20 29 -43 23q-24 -6 -42 -24t-28 -37q-40 -84 -55 -174q-12 -69 7 -84z" />
    <glyph glyph-name="e" unicode="e" horiz-adv-x="287" 
d="M130 -9q-15 -5 -43 -2q-30 3 -48 15q-20 12 -33 46q-29 83 19 201q7 16 16 32t21 33q25 35 46 50q70 49 108 12q20 -18 14 -43t-21 -46q-8 -11 -17.5 -20.5t-20.5 -19.5q-44 -39 -81 -63q-13 -11 -14 -27v-41.5t1 -22.5q0 -20 9 -39t23 -25q39 -15 90 35q52 50 86 120
q6 12 12 27t9 24t6 12q10 10 16 3q3 -4 1 -13q-3 -9 -12 -27q-5 -9 -8 -16l-5 -12q-21 -50 -33 -69q-35 -54 -64 -81q-30 -29 -75 -39zM76 216q13 -9 62 32l5.5 5.5t9.5 8.5t10 9l6 6t5 5.5l7 8.5q7 9 12 18q9 17 6 32q-3 16 -16 23q-18 9 -36 -2t-30 -30q-23 -32 -39 -87
q-9 -22 -1 -27z" />
    <glyph glyph-name="f" unicode="f" horiz-adv-x="323" 
d="M49 -276q-17 14 -40 68q-17 39 -21 108q-2 35 -2 66t3 59q5 68 11 126t14 107q9 58 27 144q22 111 50 182q37 114 95 179q37 43 83 54q28 6 42 -11q6 -8 9 -18q3 -11 3 -22v-21q0 -10 -3 -23q-2 -7 -3 -12t-2 -9q-1 -6 -6 -22l-6 -18q-18 -71 -63 -155
q-23 -42 -42.5 -73.5t-36.5 -51.5q-41 -47 -56 -68q-3 -11 -6 -25.5l-7 -34.5q-5 -44 -8.5 -78t-5.5 -60q-1 -14 -1.5 -27.5t-1.5 -27.5t-1.5 -26t-1.5 -23t-1 -25.5v-31.5q0 -1 3 -46l3.5 -39.5t3.5 -27.5q4 -32 12 -45q7 -13 20 -7q11 6 16 17q27 56 69 202q10 70 9 117
v12q3 -2 -16 -3q-29 -2 -53 12t-29 38q-8 46 30 72q6 4 12 5q8 2 20 0q11 -1 22 -9t20 -24q9 -17 12 -42q0 -11 13 -12q22 2 35 6q14 5 20 9q3 2 9 6.5t14 11.5q4 4 12.5 14.5l22.5 27.5l22.5 27.5t12.5 14.5q5 5 11 0q6 -4 1 -11l-4 -7q-47 -74 -75 -95q-20 -14 -36 -21
q-8 -4 -15 -6.5l-13 -4.5q-12 -3 -13 -4q-8 -4 -10 -12q3 -100 -43 -229q-33 -105 -55 -135q-17 -27 -27 -36q-34 -22 -57 -10zM120 383q3 -1 17 11q7 6 11 10l6 6q33 43 66 108q33 64 48 114q31 91 33 132q0 9 -6 17q-6 7 -18 6q-41 -5 -57 -31q-18 -22 -39 -80
q-11 -29 -18 -53.5t-11 -46.5q-24 -125 -24 -129l-8 -62v-2zM201 169q0 41 -29 62q-7 4 -16 3q-9 -2 -12 -9q-6 -15 10 -34q22 -27 48 -21z" />
    <glyph glyph-name="g" unicode="g" horiz-adv-x="379" 
d="M67 -419q-38 18 -33 74q4 54 29 119q24 63 59 113l39 54q30 40 39 57q8 26 8 59q0 10 3 27q2 8 2.5 14t1.5 9q2 6 0 11q-4 3 -12 -8t-18 -30q-5 -10 -11 -19.5l-12 -19.5q-11 -19 -32 -36q-20 -17 -42 -21q-21 -4 -46 8q-24 12 -36 34q-22 52 -7 138q15 85 68 156
q26 37 69 61q42 24 81 18q15 -2 24 -13q9 -12 9 -28q0 -28 -12 -47q-6 -6 -13 -6q-14 0 -6 32t-3 35q-49 16 -94 -48q-37 -53 -49 -136q-12 -81 2 -132q3 -15 18 -18q14 -3 25 5q27 20 61 66q32 43 52 107q1 5 2 12t3 16t2.5 15.5t1.5 11.5q2 10 6 20t9 15q11 11 24 13
q12 2 14 -11q5 -30 3 -89q-2 -45 -3 -76t-2 -49q-2 -9 0 -11t9 1q43 21 96 143q1 4 6 10q5 7 8 5q13 -3 6 -21q-3 -12 -21 -50q-10 -21 -24 -43q-14 -21 -24 -33l-27 -30q-17 -18 -21 -24q-1 -3 -3 -15.5t-7 -35.5t-9.5 -48.5l-9.5 -54.5q-11 -59 -15 -84q-13 -71 -41 -127
q-27 -53 -56 -75q-43 -31 -79 -15zM72 -395q35 -20 59 45q37 101 66 245q13 61 4 63q-4 3 -42 -56l-31.5 -49t-18.5 -31q-34 -60 -47 -127q-13 -69 10 -88v-2z" />
    <glyph glyph-name="h" unicode="h" horiz-adv-x="385" 
d="M231 -15q-38 6 -37 73q1 17 4.5 45t11.5 66q1 3 2.5 10.5t4.5 18.5t5 20t3 15q1 11 3 35q2 23 -4 27q-15 22 -36 4q-8 -8 -18 -22.5t-23 -35.5q-17 -26 -30 -54q-7 -14 -11.5 -25.5l-7.5 -19.5t-8 -24l-13 -40t-13 -41.5t-9 -28.5q-6 -19 -30 -19q-10 0 -17 6
q-8 6 -11 14q-7 16 -1 77q18 164 30 226q2 13 5.5 31.5t8.5 42.5l15 81q3 17 6.5 31.5t7.5 28.5q52 157 101 201q52 43 79 14q40 -48 12 -144q-29 -97 -111 -215q-1 -1 -4.5 -6t-11.5 -15l-13 -16.5t-8 -11.5q-5 -8 -15 -29q-9 -20 -15 -39q-1 -10 -1 -24.5v-34.5q0 -7 6 -7
t11 5q2 2 28 43q19 43 68 87q27 20 56 6q24 -10 30 -56t-4 -80q-33 -140 -18 -174q7 -15 21 -9q32 14 71 91q40 80 56 138q3 13 12 22q1 1 6 0q7 0 7 -8q0 -5 -9 -30q-47 -125 -75 -168q-32 -48 -56 -67q-22 -18 -57 -13zM95 346q4 -2 24 30l3 3l24 42l17 29.5t16 25.5
t11.5 18.5t4.5 7.5q29 51 41 108q12 60 5 93q-3 16 -7 21q-5 6 -12 5q-15 -2 -29 -19t-24 -38q-20 -48 -37 -109t-33 -136q-16 -76 -4 -81z" />
    <glyph glyph-name="i" unicode="i" horiz-adv-x="233" 
d="M136 500q-12 -8 -27 -6q-15 1 -24 9q-16 16 -6 34q4 15 24 21q17 6 36 -1q17 -14 17 -30q0 -20 -18 -30zM100 -1q-54 -10 -78 20t-12 95q6 33 10.5 55t6.5 33l21 99q13 63 15 74q8 19 13 20q18 8 33 -1t15 -28q0 -36 -21 -151q-23 -122 -24 -144q-1 -19 8 -28t20 -9
q26 0 63 46q13 16 39 65q25 47 39 86q4 12 12 9q7 -3 3 -15q-2 -6 -6 -15q-5 -9 -6 -15q-70 -181 -153 -196h2z" />
    <glyph glyph-name="j" unicode="j" horiz-adv-x="170" 
d="M112 500q-12 -8 -27 -6q-15 1 -24 9q-16 16 -6 34q4 15 24 21q17 6 36 -1q17 -14 17 -30q0 -20 -18 -30zM78 -33q-9 -51 -17.5 -91t-16.5 -72q-16 -52 -44 -113q-26 -57 -53 -87q-17 -18 -40 -21q-24 -3 -39 6q-38 18 -33 74q4 54 29 119q24 63 59 113q72 105 81 120
l12 21q7 31 8 69l6 95q4 42 9 81l2 13q2 10 3 22q1 7 1.5 12t0.5 9q0 5 2 15q2 9 4 12q4 6 6 8q8 10 21 11q15 3 20 -5q4 -4 5 -6l3 -6q2 -4 2 -9v-9v-11v-11q-1 -10 -1.5 -19.5t-1.5 -18.5q0 -13 -6 -79t-9 -111q-2 -9 0 -11t9 1q43 21 96 143q1 4 6 10q5 7 8 5
q13 -3 6 -21q-3 -12 -21 -50q-10 -21 -24 -43q-14 -21 -24 -33l-27 -30q-17 -18 -21 -24q-9 -26 -18 -78h-3zM-128 -387q35 -20 59 45q37 101 66 245q13 61 4 63q-4 3 -42 -56l-31.5 -49t-18.5 -31q-34 -60 -47 -127q-13 -69 10 -88v-2z" />
    <glyph glyph-name="k" unicode="k" horiz-adv-x="381" 
d="M254 -27q-23 -6 -39 15q-23 29 -23 109q0 18 -9 32t-23 8l-17 -8q-11 -5 -14 8q-2 9 9 18q10 9 21 12q17 3 32 20q15 16 21 32q13 25 15 56q2 30 -12 47q-16 13 -57 -53l-27 -48q-29 -53 -38 -100q-18 -82 -31 -109q-6 -16 -13 -21t-13 -7q-4 -1 -22 -1q-15 0 -16 24
q-1 22 2 37q5 87 14.5 163t23.5 142q39 190 75 270q31 73 51 99q34 43 75 43q23 0 36 -16t9 -43q-17 -122 -78 -246l-36 -71.5l-45 -83.5q-8 -15 -14 -32q-3 -9 -4.5 -16.5l-2.5 -12.5q-2 -11 0 -14q4 -1 13 15q16 33 42 71q27 40 40 48q27 21 57 0t30 -60q0 -43 -26 -77
l-16 -19l-16 -19l-4.5 -6t-2.5 -3q-5 -6 -2 -12q1 -2 3 -5t5 -8q6 -11 9 -15q2 -2 3.5 -5.5l3.5 -8.5q5 -9 6 -19q4 -41 12 -61q7 -20 24 -12q34 18 68 90q35 73 51 130q3 13 12 22q1 1 6 0q7 0 7 -8q0 -5 -9 -30q-47 -125 -75 -168q-47 -72 -87 -81zM115 340q4 -7 15 8
q5 8 9.5 16l9.5 17q58 120 78 182q48 145 32 161q-19 19 -46 -3q-31 -25 -51 -98q-75 -270 -48 -283h1z" />
    <glyph glyph-name="l" unicode="l" horiz-adv-x="260" 
d="M106 -19q-47 0 -74 36q-26 35 -31 81q-7 73 9 232q12 114 56 251q43 134 95 186q25 25 60 26q22 1 36 -20q13 -21 15 -54q1 -85 -26 -161q-14 -38 -34 -78t-48 -83l-38.5 -60.5t-28.5 -40.5q-14 -18 -15 -57q-7 -137 11 -178q9 -19 26 -27t27 -5q6 2 9 4l9 6q6 4 9 7l8 8
q5 5 8 9q6 8 7 9q2 2 7 10q2 4 3.5 6t2.5 4t2.5 4t3.5 6t3.5 6t2.5 4q34 55 66 144q6 14 19 10q6 -2 0 -18q-4 -9 -11 -27.5l-18 -47.5q-20 -55 -39 -91q-18 -35 -45 -66q-25 -31 -83 -31zM98 343q4 -2 24 30l3 3l24 42l17 29.5t16 25.5t11.5 18.5t4.5 7.5q28 49 42 126
t6 113q-3 16 -7 21q-5 6 -12 5q-15 -2 -29 -19t-24 -38q-32 -77 -75 -282q-16 -76 -4 -81z" />
    <glyph glyph-name="m" unicode="m" horiz-adv-x="614" 
d="M38 -8q-12 -2 -24 6q-11 7 -12 21q-5 23 -3 53q2 31 3 44t6 42q4 28 6 45q14 127 24 161q8 26 34 39q9 5 20 -3q4 -3 7 -12t3 -23v-25v-25v-16v-12q0 -4 2 -14q1 -5 1 -12q2 -7 3 -8t5 -1q3 0 8 5q2 2 5 5.5l7 8.5q43 62 78 91q18 15 37 21t30 1q47 -18 35 -84
q-8 -38 -3 -45q4 -9 24 11q5 5 15 20t11 17q35 49 73 68q21 10 43 0q22 -11 30 -39q4 -18 -3 -91q-4 -37 -5.5 -55.5t-1.5 -20.5q-1 -7 -1 -13.5v-14.5v-33v-28q0 -32 12 -39q12 -8 32 15q22 28 63 114q2 3 6.5 14l12.5 30l21 48q6 9 13 0q2 -2 2 -6v-10l-48 -111
q-26 -58 -50 -93q-23 -33 -48 -36q-7 -1 -13 -1.5t-11 -0.5q-24 0 -46 16q-23 17 -27 34q-8 31 6 120q13 86 20 105q17 53 5 60q-7 4 -18 -2q-10 -6 -25 -22l-25 -28q-5 -6 -11 -14l-14 -19l-12 -16.5t-5 -7.5l-7 -13.5l-13 -25.5q-8 -18 -12 -39q-5 -21 -9 -60
q-4 -38 -6 -43q-2 -14 -15 -30q-4 -7 -22 -10t-24 0q-21 6 -21 28q-1 13 -0.5 28t2.5 33t4 34t4 30q4 28 12 72q4 22 6.5 37.5t4.5 24.5q1 4 1.5 8.5t2.5 10.5t2.5 10.5t1.5 7.5q4 10 -6 10l-14 -3q-37 -17 -104 -126q-20 -32 -21 -45l-29 -135q-3 -10 -17 -27q-7 -7 -17 -9
z" />
    <glyph glyph-name="n" unicode="n" horiz-adv-x="432" 
d="M305 -7q-56 10 -66 63q-8 36 -3 75q2 20 7.5 46.5t14.5 61.5q19 64 15 81q0 13 -9 18q-9 4 -19 0q-31 -24 -61 -62q-9 -9 -73 -117l-8.5 -21l-17.5 -45q-2 -3 -15 -61q-5 -23 -15 -36q-6 -10 -22 -10t-24 11q-9 10 -9 21q0 10 3 25q2 11 4 25.5t6 34.5q7 39 9 57
q22 181 30 216q4 28 30 25q35 -2 35 -27v-25.5t-1 -31.5t-1 -30.5v-23.5q0 -32 17 -15q12 10 30 36q17 24 26 33q26 33 42 44q16 12 48 21q15 4 30 -6q16 -11 23 -27q9 -19 1 -105q-1 -8 -3.5 -24t-7.5 -39t-7.5 -40.5t-3.5 -28.5q-6 -75 16 -78q7 -1 15 2q7 3 15 11
q4 4 7 7.5t6 6.5q5 5 13 18q4 6 6.5 10.5t4.5 7.5l9 18l7 12q7 14 27 68q10 26 15 41t7 19q5 9 12 2q2 -2 2 -6q0 -2 1 -3q1 -2 0 -3q-13 -46 -21 -72t-11 -33q-31 -75 -53 -102q-12 -15 -38 -31q-24 -15 -41 -12z" />
    <glyph glyph-name="o" unicode="o" 
d="M118 3q-33 -16 -67 0t-45 53q-17 55 -5 132q6 27 13.5 50.5t15.5 43.5q16 40 54 78q30 32 73 36q21 2 30 -1q19 -6 30 -24q10 -15 17 -18q6 -3 12 -14q12 -20 12 -48v-11t-1 -13l-3 -21q-2 -8 0 -9q35 3 77 39q3 2 6 5l6 6t5 4.5t3 2.5q7 7 13 0q2 0 2 -7q1 -2 -3 -9
q-56 -62 -117 -75q-4 -3 -12 -17q-7 -12 -15 -32t-9 -22t-3.5 -8t-7.5 -16t-7.5 -16t-4.5 -9t-4.5 -8l-6.5 -13q-8 -15 -12 -21l-12 -15q-8 -10 -15 -14l-15 -9h-4zM107 32q25 4 48 45q16 28 29 55t24 54q9 20 -2 25q-20 7 -34 26q-13 18 -15 38q-7 58 35 79q-2 1 -3 6
q-2 4 -7 10q-6 6 -12 5q-65 -11 -90 -132q-15 -75 -9 -152q1 -15 11 -39q9 -23 23 -21zM228 244q4 1 7 18q3 16 3 26q0 14 -3 28q-1 10 -9 16q-7 6 -15 4q-16 -3 -19 -18q-6 -32 11 -58l5 -5t7 -6q8 -6 12 -5h1z" />
    <glyph glyph-name="p" unicode="p" horiz-adv-x="334" 
d="M-90 -415q-28 0 -42 26q-14 25 -12 54q1 14 1 26v22q9 84 59 219l8.5 22l13.5 34l15 37.5l13 33.5l11 30.5t9 28.5q5 16 10.5 39l12.5 53l12.5 55.5l10.5 47.5q9 43 8 41q5 24 20 35q11 5 20 0q10 -5 14 -15l8 -24l7 11q28 43 66 46q42 5 71 -33q25 -32 29 -84
q5 -54 -1 -91l-1 -21q3 -3 25 10q32 19 70 93q1 6 8 9t11 2q6 -4 3 -13t-7 -13q-26 -47 -68 -91q-10 -10 -42 -34q-9 -5 -12 -21q-3 -6 -9 -21q-3 -8 -5.5 -13.5t-4.5 -10.5t-4.5 -10l-5.5 -11q-7 -14 -13 -21q-36 -39 -80 -37t-50 42q-3 20 6 38q9 19 27 35q9 8 17 14
l15 11q13 9 33 21q7 7 9 12q8 35 12 62.5t5 47.5q1 51 -6 72q-8 21 -30 21q-16 0 -36 -20t-33 -42q-16 -28 -34 -163q-9 -68 -13.5 -112t-5.5 -66q0 -2 -0.5 -10.5t-1.5 -22.5t-1.5 -24t-0.5 -15q0 -11 -3 -39q-2 -14 -2.5 -25.5t-1.5 -19.5q-2 -17 -6 -42q-4 -24 -9 -43
q-5 -18 -12 -39q-7 -19 -15 -37q-33 -66 -88 -66zM121 38q21 -14 39 3q17 16 28 45q5 12 6 28t0 16q-6 6 -47 -27q-21 -18 -30 -36q-9 -17 5 -28zM-90 -380q32 0 49 132q10 75 14.5 129.5t4.5 89.5q0 6 -3 12l-4 -2q-55 -93 -77 -178q-5 -17 -8 -36t-5 -39q-4 -39 2 -75
q6 -34 27 -34v1z" />
    <glyph glyph-name="q" unicode="q" horiz-adv-x="441" 
d="M253 -365q-22 -13 -49 -1t-41 35q-23 43 -15 180q1 15 9 69q7 53 12 98q5 44 2 45q-6 0 -20 -13l-16 -14.5l-16 -15.5q-15 -15 -21 -19q-17 -11 -37 -12q-21 -1 -34 6q-41 24 -33 102q7 109 54 184q22 37 50 65q27 27 57 42q31 15 59 5q28 -11 51 -51q4 -8 0 -12
q-6 -5 -12 1q-2 2 -4.5 5.5t-5.5 8.5t-5.5 8.5t-4.5 5.5q-7 8 -21 10t-23 -6q-32 -20 -92 -128q-11 -21 -22 -63q-11 -41 -9 -80q1 -38 21 -46q16 -6 51 32q33 36 64 84l5.5 10.5l8.5 16.5t9 21t9 23t7.5 20t4.5 12q11 23 23 29q10 4 16 -2q5 -2 0 -11q-5 -10 -5 -12
q0 -59 -18 -150q-5 -19 -12.5 -72.5t-18.5 -143.5q-7 -51 -10 -99.5t-3 -95.5q0 -19 20 -27q19 -8 39 15q36 50 57 154q21 105 18 161q-5 47 -15 68q-5 8 -2 16q3 9 10 10q11 2 42 25q7 5 13 11.5t12 14.5q12 15 21 33q5 9 8.5 16.5t5.5 13.5t5 14l7 18q8 22 9 23
q14 34 16 36q4 6 12 1l2 -1l2 -2q2 -3 -1 -6l-6.5 -18l-7.5 -21t-7 -20.5t-6 -17.5l-5.5 -14.5l-4.5 -11.5q-8 -23 -24 -45q-15 -21 -33 -37q-8 -8 -12.5 -12t-5.5 -5q-13 -17 -13 -30q0 -3 0.5 -10.5t1.5 -20.5q1 -25 0 -34q0 -93 -33 -219t-82 -148z" />
    <glyph glyph-name="r" unicode="r" horiz-adv-x="289" 
d="M326 263q7 0 7 -8q0 -5 -9 -30q-5 -14 -33 -73q-14 -29 -25 -49t-19 -33q-23 -35 -48 -52q-24 -17 -60 -15q-26 1 -51 15q-26 13 -33 39q-18 62 32 156l19 41q5 11 0 17q-5 7 -13 8q-23 4 -36 12q-10 -39 -42 -112q-8 -17 -17 -12q-8 4 -3 18q7 16 18 45.5l28 74.5
q-13 12 -28 38q-10 24 -10 63q0 37 15 78q15 40 41 54q22 9 42 8q21 -2 33 -22q12 -21 6 -55q-6 -29 -32 -80q-1 -2 -2.5 -4t-3.5 -6l-7 -12q-3 -5 -6 -12q-3 -8 -3 -13q0 -7 3 -11q7 -13 21 -19q13 -6 20 -6h26q7 0 15 -6q7 -6 9 -14q4 -22 -9 -70q-13 -47 -27 -76
q-30 -86 6 -96q40 -12 76 37q37 51 83 159q7 17 12 22q1 1 6 0zM73 383q25 16 45 84q6 13 3 36q-5 13 -18 18q-26 5 -38 -26t-8 -65l2 -18q0 -4 2 -14q1 -8 5 -11q3 -3 7 -3v-1z" />
    <glyph glyph-name="s" unicode="s" horiz-adv-x="245" 
d="M340 339q2 -2 2 -6q-2 -6 -14 -21q-77 -77 -108 -99q-21 -17 -24 -22t-3 -11q1 -3 3 -12q1 -8 3 -13q10 -73 -36 -133q-17 -23 -31 -33q-17 -12 -43 -20q-30 -10 -61 6q-31 15 -32 42q-1 13 14 38q15 24 33 42q34 31 54 45q8 6 18 16q6 7 6 18q0 6 -5 18q-2 4 -8 12.5
l-16 22.5t-17.5 25.5l-13.5 21.5q-2 -6 -6 -15.5l-10 -23.5l-9 -21.5t-4 -9.5q-7 -15 -17 -10l-3 3q-1 1 -1 3v4v4l26 70q1 6 3 15l1.5 7.5t0.5 3.5l-9 20q-17 43 -17 81q0 28 18 58q18 29 45 46q43 25 69 3q22 -20 12 -60q-2 -7 -3.5 -13t-3.5 -11t-4.5 -10.5t-5.5 -10.5
q-6 -11 -10 -16q-5 -6 -15 -21q-5 -8 -9 -13t-6 -9q-6 -9 -1 -18q53 -100 69 -116q3 -4 5 -4q3 -1 6 2l28.5 18.5l17.5 11.5q26 19 50 42t47 50q1 4 6 4q4 0 6 -5zM84 373q9 -2 29 24q19 25 27 54q0 3 1 6q7 31 0 37l-3 3q-20 11 -39 -16t-27 -56q-3 -15 2 -33q4 -17 12 -18
zM119 20q13 25 15 48q1 22 -3 48q-3 20 -10 23q-5 2 -22 -13q-1 -1 -4 -3t-8 -7t-8 -7.5t-5 -4.5t-4.5 -4l-7.5 -6q-9 -8 -12 -12q-4 -6 -9 -11q-6 -6 -9 -12q-4 -8 -6 -13q-15 -37 -1 -49q20 -18 49 -10q32 8 47 34z" />
    <glyph glyph-name="t" unicode="t" horiz-adv-x="248" 
d="M294 239q2 -6 -6 -23q-27 -64 -65 -125t-69 -83q-35 -29 -78 -12q-43 16 -61 66q-6 16 -9 41q-3 24 -3 44q0 10 1.5 23.5l3.5 30.5l3.5 30t3.5 21q3 16 9 57l5 33t3 18l13 82q-44 16 -72 42q-29 25 -33 54q-5 26 6 44q10 18 27 18h10q4 0 7 -3t1 -9q-7 -18 3 -46
q17 -38 58 -60q1 8 2 17t3 19q3 19 3 21l6 33q13 97 45 141q4 7 15 10t18 -1q15 -8 15 -18q0 -16 -12 -85q-6 -35 -9 -56t-4 -29l-3 -28l-4 -47q58 -5 90 -2t51 8q10 3 13 -4q3 -8 -6 -15q-11 -8 -57 -15q-23 -4 -46 -5t-46 1l-7 -60q-2 -18 -4 -33t-4 -27q-3 -24 -3 -23
q0 -3 -6 -36q-3 -17 -4.5 -28t-2.5 -17q-2 -12 -6 -42q-5 -31 -6 -46q-1 -8 -1 -17v-20q0 -21 3 -34q8 -35 41 -26q22 7 63 63q20 28 36.5 54t28.5 51q21 41 30 56q0 2 3 2t4 -1q4 0 5 -4h-2z" />
    <glyph glyph-name="u" unicode="u" horiz-adv-x="457" 
d="M275 2q-26 13 -34 54q-4 18 5 75q9 55 9 98q0 7 -3 9q-5 2 -9 -4q-7 -8 -15 -23l-8 -14.5l-9 -16.5t-8 -15l-5 -10q-11 -20 -17.5 -33.5l-10.5 -21.5q-26 -52 -51 -74q-20 -20 -51 -27q-30 -6 -49 6t-19 29q0 26 3 59q3 34 6 53t12 60q5 20 7 32t3 16q15 82 31 120
q4 16 21 19q22 4 31 -9q9 -23 7 -50q-4 -59 -30 -184q-15 -83 -5 -100q6 -6 13 -2q13 7 24 21q10 12 27 44l72 132q3 4 12 24l10 20.5l10 21.5q10 21 21 37q13 21 18 30q4 7 17 9q12 2 17 -3q13 -10 13 -26q-5 -131 -18 -219q-8 -44 -6 -65q2 -22 16 -29q23 -14 56 24
q32 37 57 89q12 26 21 48.5t14 42.5q3 13 12 22q1 1 6 0q7 0 7 -8q0 -5 -9 -30q-47 -125 -75 -168q-32 -47 -72 -62q-41 -15 -72 1z" />
    <glyph glyph-name="v" unicode="v" horiz-adv-x="371" 
d="M57 -20q-17 3 -33 18q-17 15 -18 31q-4 19 -4 51q0 15 0.5 27t1.5 22l2 19q1 5 3.5 25t7.5 55q9 71 12 86q9 58 16 66q10 10 21 11q15 3 25 -4q9 -6 9 -31q0 -5 -9 -138q-9 -134 -6 -177q0 -8 4 -15q9 -16 22 -3q9 10 16.5 19.5t14.5 19.5t13.5 21l14.5 24l14.5 24.5
t11.5 22.5q11 22 12 23q19 37 30 63q-29 22 -45 60q-15 42 -12 92q1 34 18 63t45 38q18 8 33 -7t18 -36q6 -34 0 -82q-6 -49 -22 -81q-3 -4 -1 -9q22 -47 57 -58q30 -8 59 9q28 16 42 42q3 5 8 7q4 1 8 -2q3 -3 2 -7q-5 -30 -45 -57t-87 -16q-31 8 -62 36q-4 -6 -7.5 -12.5
l-7.5 -13.5q-38 -86 -69 -134q-36 -62 -64 -78q-19 -12 -48 -7zM260 315q4 3 9 17q10 32 11 68q0 55 -15 66q-23 16 -30 -30q-4 -23 -1 -44q7 -50 15 -69q4 -11 9 -9z" />
    <glyph glyph-name="w" unicode="w" horiz-adv-x="542" 
d="M241 -113q-26 4 -42 39q-11 23 -12 43q-2 17 -2 42t1 60v5v5v5v5q0 1 -2 3q-1 1 -3 1q-4 0 -20 -27q-8 -14 -19 -27.5t-25 -27.5q-27 -29 -55 -33q-29 0 -41 12q-20 19 -21 42q-6 80 20 243q14 79 30 116q3 6 11 6q25 3 36 -21q4 -8 4 -32q0 -50 -9 -108q-9 -61 -15 -127
t-1 -82q1 -6 9 -6q15 0 42 41q14 20 23.5 37.5l16.5 31.5q19 43 35 92q16 51 18 54q4 13 17 15q12 1 16 -7q10 -20 10 -90l-2 -153q0 -47 3 -78q0 -9 4 -12t10 0t11 11q25 40 66 123q4 7 18 42l14 35l15 37t12 29.5t5 12.5q-29 22 -45 60q-15 42 -12 92q1 34 18 63t45 38
q18 8 33 -7t18 -36q6 -34 0 -82q-6 -49 -22 -81q-3 -4 -1 -9q13 -44 45 -55q55 -20 105 42q10 12 18 3q1 -4 0 -7q-22 -40 -58 -58q-37 -18 -77 -8q-17 4 -49 33l-37.5 -98t-17.5 -42q-53 -124 -87 -173q-21 -32 -48 -27zM439 317q4 3 9 17q10 32 11 68q0 55 -15 66
q-23 16 -30 -30q-4 -23 -1 -44q7 -50 15 -69q4 -11 9 -9z" />
    <glyph glyph-name="x" unicode="x" horiz-adv-x="375" 
d="M207 5q-16 10 -25 30q-8 18 -13 50q-5 31 -6 35q-3 10 -9 13t-17 -6q-41 -41 -66 -108q-3 -8 -12 -8t-13 7q-10 9 -5 17q26 57 67 98q14 13 28 42q9 25 6 51q-1 3 -1.5 12t-2.5 24q-3 31 -9 56q-6 27 -13 36q-6 7 -15 -2q-6 -5 -27 -60q-21 -56 -24 -60q-2 -3 -6 -6
q-5 -3 -9 0q-3 1 -3 4q0 2 0.5 4l1.5 6q1 5 5 15q2 4 3.5 9l3.5 12l9 26q14 44 25 63q12 21 32 27q19 6 48 -14q16 -17 24 -36q5 -15 9 -31q2 -9 3.5 -16.5t3.5 -13.5q3 -12 3 -13q3 -7 5 -9t5 0q2 1 7 9l10 18l14 26t15.5 27.5l13.5 22.5q13 21 21 29t12 5q7 -5 0 -21
q-17 -44 -27 -60l-19 -33q-15 -23 -38 -65q-6 -11 -4 -37q0 -2 3 -29q3 -28 6 -44q3 -18 13 -36q10 -20 27 -24q24 -11 68 65q44 77 62 138q3 13 12 22q1 1 6 0q7 0 7 -8q0 -5 -9 -30q-47 -125 -75 -168q-31 -49 -62 -63t-63 1z" />
    <glyph glyph-name="y" unicode="y" horiz-adv-x="406" 
d="M105 -419q-38 18 -33 74q4 54 29 119q24 63 59 113q5 6 12 16l17 24l33 48q13 19 21 33q27 136 30 255l-68 -132q-20 -39 -36 -61q-8 -11 -19.5 -22t-27.5 -24q-23 -23 -48 -27q-46 -9 -63 23q-5 9 -6 30q-2 21 0 44q1 22 6 54q4 31 9 51q4 19 9 45t6 29q13 88 36 114
q8 10 22 11q10 1 18 -12q8 -14 8 -55q-11 -107 -30 -219q-9 -58 1 -62q4 -4 17 2t20 15q19 22 29 38l11.5 19l14.5 25t11.5 21l4.5 9t6 14l14 34l18.5 43.5l20.5 44.5q20 43 38 64q7 9 21 6q13 -3 18 -14q13 -34 9 -88q0 -13 -6 -79t-9 -111q-2 -9 0 -11t9 1q43 21 96 143
q1 4 6 10q5 7 8 5q13 -3 6 -21q-3 -12 -21 -50q-10 -21 -24 -43q-14 -21 -24 -33l-27 -30q-17 -18 -21 -24q-3 -10 -15 -76q-3 -18 -7.5 -41.5t-11.5 -52.5q-14 -59 -15 -69q-32 -143 -99 -201q-38 -33 -78 -14zM110 -395q35 -20 59 45q37 101 66 245q13 61 4 63
q-4 3 -42 -56l-31.5 -49t-18.5 -31q-34 -60 -47 -127q-13 -69 10 -88v-2z" />
    <glyph glyph-name="z" unicode="z" horiz-adv-x="407" 
d="M119 -421q-38 18 -33 74q4 54 29 119q24 63 59 113q5 6 12 16l17 24l33 48q13 19 21 33q0 26 -9 47q-9 22 -21 32q-11 9 -24 16q-12 6 -20 0l-10 -4l-4 -2q-1 0 -4 -3q-2 -2 -8 -6l-18 -14t-22 -19q-23 -20 -35 -2q-11 18 3 35q2 3 5 7l7 9l7 9t5 7q58 76 75 108
q13 25 33 77q19 45 -15 52q-26 5 -45 -7q-47 -29 -69 -84q-2 -5 -4.5 -12l-5.5 -15q-6 -17 -12 -30q-5 -11 -12 -6q-5 4 -3 15q22 99 89 147q53 38 98 20q46 -19 42 -70q-6 -68 -78 -153q-5 -6 3 -14q5 -5 23 -8l18 -4t17 -6q48 -20 69 -63q38 19 100 162q1 4 6 10q5 7 8 5
q13 -3 6 -21q-3 -12 -21 -50q-29 -66 -86 -135q-1 -104 -32 -237q-13 -61 -47 -121q-33 -58 -63 -79q-44 -30 -78 -14zM124 -397q35 -20 59 45q37 101 66 245q13 61 4 63q-4 3 -42 -56l-31.5 -49t-18.5 -31q-34 -60 -47 -127q-13 -69 10 -88v-2z" />
    <glyph glyph-name="braceleft" unicode="{" horiz-adv-x="361" 
d="M249 -115q-52 -28 -112 30q-22 22 -30 62q-4 20 -6.5 43t-4.5 51q-3 55 -12 90q-5 21 -24 39q-18 17 -36 25q-5 1 -6 9q-1 7 5 15q6 7 18 9q40 7 78 69q17 27 50 107q17 41 28.5 65.5t18.5 34.5q17 23 54 35t57 12q13 0 13 -9t-16 -10q-35 -3 -60 -40q-8 -12 -40 -97
q-31 -83 -48 -106q-19 -28 -43 -46q-23 -17 -39 -22q-17 -5 -17 -9q0 -2 3 -3q1 -1 4.5 -5t11.5 -12q14 -14 27 -32q13 -17 17 -32q9 -29 18 -111q9 -84 16 -99q16 -42 68 -42q19 0 21 -5q0 -4 -11 -10z" />
    <glyph glyph-name="bar" unicode="|" horiz-adv-x="408" 
d="M187 -159q-6 0 -9 5q-3 4 -3 9l-1 5q-5 39 -2.5 156.5t12.5 315.5q6 121 21 258q15 139 25 174q9 28 36 24q7 -2 10 -4q3 -3 3 -10q0 -9 -1 -13q-1 -5 -3 -17q-1 -5 -1.5 -9.5t-0.5 -8.5l-38 -304q-15 -98 -27 -528q-2 -33 -6 -42q-5 -9 -15 -9v-2z" />
    <glyph glyph-name="braceright" unicode="}" horiz-adv-x="361" 
d="M29 -121q-13 0 -13 9q0 8 17 10q35 3 60 40q10 15 41 98q32 85 48 107q18 27 44 46q25 19 39 23q11 5 17 12q6 8 2 12l-10 9q-11 7 -18 15q-8 8 -18 25q-11 18 -18 39q-10 27 -19 103t-16 91q-17 42 -68 42q-19 0 -21 5q0 4 9 9l2 1q52 28 112 -30q22 -22 30 -62
q4 -20 6.5 -43t4.5 -51q3 -56 12 -90q4 -23 24 -42q19 -19 36 -25q5 -3 6 -10t-6 -16t-19 -10q-11 -1 -20 -5t-23 -16q-15 -14 -30 -39q-8 -13 -20 -39.5t-29 -67.5q-33 -82 -46 -100q-16 -22 -54 -34t-57 -12z" />
    <glyph glyph-name="asciitilde" unicode="~" horiz-adv-x="426" 
d="M247 189q-43 9 -74 29t-59 20q-20 0 -36 -6q-14 -5 -31 -17q-14 -10 -16 -10q-13 -7 -13 6q0 16 11 21q91 60 147 54q36 -5 78 -28q45 -25 63 -26q48 -5 72 9q11 6 14 -3t-9 -15q-2 -2 -12 -9q-9 -7 -20 -12q-7 -4 -28 -10q-20 -6 -37 -6q-9 0 -21 1.5t-26 3.5z" />
    <glyph glyph-name="exclamdown" unicode="&#xa1;" horiz-adv-x="240" 
d="M112 659q12 7 27 6q15 -2 24 -9q16 -16 6 -34q-5 -15 -24 -21q-17 -6 -36 1q-17 14 -17 30q0 19 18 30zM153 -9q-7 -22 -47 -24q-39 -2 -42 24q-3 31 9 246q12 212 20 235q4 15 23 24q17 9 33 4q15 -5 15 -21z" />
    <glyph glyph-name="cent" unicode="&#xa2;" horiz-adv-x="376" 
d="M355 243q3 -4 -1 -26q-11 -35 -45 -96q-35 -62 -66 -81q-31 -31 -53 -39q-15 -7 -33 -8q-5 -25 -8 -41.5t-5 -24.5q-6 -30 -11 -39q-5 -8 -17 -6q-6 1 -9 6q-3 4 -1 9v5q1 37 9 91q-31 3 -61 21q-34 20 -47 69q-25 88 11 164l14.5 28.5l12.5 23.5t15.5 23t22.5 26
q25 28 57 45q13 7 63 12q8 28 17 52t18 44q15 27 41 18q7 -2 8 -6q2 -6 2 -11q0 -4 -2 -12l-5 -16q-2 -5 -3 -9.5t-2 -8.5q-2 -8 -21 -62q22 -17 21 -42q-2 -18 -9 -27q-8 -8 -12 -6q-5 3 -4 16q7 25 0 30l-3 2q-4 -6 -7 -21q-2 -2 -9 -24q-8 -24 -9 -28q-2 -6 -9 -33
q-4 -14 -7 -26.5l-6 -25.5l-7 -30l-9 -40l-10.5 -48.5l-11.5 -54.5q31 1 60 24q31 22 67 81q37 60 41 81q13 28 22 19zM114 54q5 -5 11 -8q22 151 69 321l3 10q-15 -6 -25 -13q-28 -22 -52 -78t-30 -108q-10 -94 24 -124z" />
    <glyph glyph-name="sterling" unicode="&#xa3;" horiz-adv-x="483" 
d="M424 24q13 -2 21 -12q8 -11 2 -19q-6 -9 -24 -7q-11 1 -57.5 1.5t-129.5 2.5q-165 3 -171 3q-14 1 -18 18q-5 16 18 21q31 6 53 39t42 125q16 75 -12 192q-8 0 -16 -0.5t-17 -1.5q-49 -6 -60 14q-8 10 9 15h11q8 -1 24.5 -1h41.5l-3 12l-5 20t-5 21t-4 14t-3.5 12.5
t-3.5 18.5q-5 22 -6 34q-2 15 -3 31q-1 9 -1.5 17t-0.5 16q-1 85 47 143q48 57 121 56q26 0 47 -6q22 -6 34 -13q13 -7 22 -21l8.5 -12t5.5 -9q4 -6 7 -23q3 -15 3 -19v-16q0 -18 -10 -19t-10 18v6q3 31 -24 64t-84 32q-43 -1 -67 -46t-21 -131q1 -17 3 -33.5t5 -32.5
q6 -32 18 -75q6 -22 10.5 -36.5t6.5 -22.5q125 -4 166 -27q24 -14 15 -27q-5 -8 -12 -6q-42 9 -81.5 15.5t-77.5 10.5q16 -81 4 -156q-14 -89 -24 -122q-11 -35 -28 -66q34 1 123 -3q88 -5 114 -9h-3z" />
    <glyph glyph-name="yen" unicode="&#xa5;" horiz-adv-x="521" 
d="M477 757q-32 -62 -63 -163l-30 -94.5t-28 -79.5q-27 -72 -58 -97q0 -5 -1 -6q73 -8 102 -24q24 -14 15 -27q-5 -8 -12 -6q-44 10 -108 18v-6.5t-1 -10.5l-3 -18q68 -7 100 -24q24 -14 15 -27q-5 -8 -12 -6q-23 5 -49 9.5l-57 9.5q-19 -154 -30 -190q-6 -23 -37 -30
q-29 -6 -33 12q-1 3 0 7q8 48 13.5 100.5t9.5 109.5q-68 6 -97 2q-49 -6 -60 14q-8 10 9 15h11q7 -1 22.5 -1h39.5h43.5t33.5 -1q1 13 1.5 22.5t0.5 16.5q-65 3 -90 6q-56 6 -57 19q0 11 55 8h19h33h43v8q-35 34 -72 165l-8 25.5l-13 38.5t-12.5 37l-6.5 20q-2 5 -6.5 19
t-12.5 37q-16 45 -21 71q-3 16 20 21q31 7 54 -24q5 -9 10 -22l36 -120t13 -42q2 -10 5.5 -23.5l8.5 -31.5l16 -62q6 -27 15 -53q5 -14 9 -24t8 -18q7 -15 15 -15q30 0 57 72q14 36 29.5 81.5t32.5 101.5q34 110 69 169q8 14 14 12q3 0 0 -7v6z" />
    <glyph glyph-name="section" unicode="&#xa7;" horiz-adv-x="576" 
d="M392 -10q11 -83 -31 -133t-120 -55q-66 -4 -97 39t-28 90q2 41 33 77q9 11 17 5q7 -6 0 -16q-2 -2 -6 -9q-2 -4 -3.5 -6t-2.5 -4t-2 -4.5t-3 -6.5t-2.5 -8t-1.5 -9q-8 -51 21 -90q28 -39 81 -36q45 1 66 38q21 36 12 98q-5 34 -33 78q-29 43 -60 81q-32 37 -60 84
q-29 46 -33 84q-9 76 41 135q-8 17 -12 40q-7 70 32 122q39 51 107 57q33 3 56 -6q22 -9 33 -27q9 -16 13 -29t5 -27q1 -16 -6 -16q-10 0 -10 20q0 25 -24 52t-65 21q-41 -5 -57 -54q-17 -50 -6 -99q7 -37 36 -79q14 -21 29 -39t30 -34q31 -33 57 -73q26 -41 31 -80
q12 -97 -37 -152v-29zM209 295q4 -38 30 -75q13 -19 29 -39t36 -42t34 -39t22 -30q5 38 -7 82q-8 31 -33 66l-28 36.5l-33 41.5q-36 43 -54 69q-2 -34 4 -69v-1z" />
    <glyph glyph-name="dieresis" unicode="&#xa8;" horiz-adv-x="656" 
d="M276 472q-10 13 24 109q17 47 33 47q13 0 27 -11q13 -11 9 -21q-24 -53 -60 -117q-17 -17 -33 -6v-1zM398 473q-13 19 24 109q20 47 33 47q16 0 26 -16q10 -17 0 -39l-20.5 -41.5t-31.5 -58.5q-14 -14 -33 -2z" />
    <glyph glyph-name="copyright" unicode="&#xa9;" horiz-adv-x="634" 
d="M363 -5q-21 -10 -56 -13q-33 -3 -71 3q-39 6 -74 28q-36 22 -55 58q-15 28 -21 69q-6 42 -2 63q15 138 109 211q33 26 63 38q34 13 42 14q10 1 39 3q27 1 52 -12q25 -14 30 -36q0 -17 -12 -20q-8 -2 -11 9q0 26 -65 26q-74 0 -117 -49q-44 -50 -60 -132q-17 -89 -3 -132
q12 -41 36 -68t49 -36q27 -10 52 -11t45 2q18 3 26 8q61 31 84 71q35 66 47 104q34 100 1 165q-9 17 -22 24q-14 8 -25 9t-13 3q-7 7 2 16t17 2q2 -1 5.5 -3t9.5 -5t9.5 -5t5.5 -3q19 -14 33 -36q14 -23 14 -39q0 -80 -5 -105q-4 -17 -27 -76l-15.5 -29l-10.5 -19
q-7 -12 -24 -34t-34 -33q-20 -13 -45 -23zM304 57q-41 -2 -66 15q-31 19 -43 57q-8 27 -5 63q3 39 16 63q31 67 68 87q34 19 60 18q16 -2 27 -12q11 -11 9 -26q-1 -8 -6 -19q-4 -4 -9 -4q-5 3 -3 12q1 19 0 21q-11 9 -32 -1q-22 -13 -37 -52q-16 -41 -20 -81q-8 -68 16 -90
q34 -31 81 5q22 16 48 59t29 57q7 21 15 13q1 -2 0 -18q-4 -12 -11 -28.5t-18 -37.5q-20 -40 -41 -61q-36 -36 -78 -39v-1z" />
    <glyph glyph-name="ordfeminine" unicode="&#xaa;" horiz-adv-x="362" 
d="M123 281q-13 -1 -28 6t-21 18q-13 31 -4 74q9 41 35 78q16 20 39 32q24 12 43 9q23 -2 23 -24q0 -7 -1 -9l3 3q4 4 12 4t12 -4q5 -12 5 -15q1 -10 1.5 -25t0.5 -35q-1 -11 -1 -27.5v-39.5q0 -9 4 -9q11 -5 23 12q11 15 28 54q4 15 15 15t11 -9q-5 -31 -30 -68
q-16 -23 -37 -32q-22 -9 -43 -1q-23 10 -24 39q-1 4 -1 20v15l-9 -21t-7 -15q-7 -13 -19 -27q-14 -15 -30 -18zM143 452q-16 -22 -22 -61q-6 -40 1 -70q2 -12 9 -5l9 9q4 4 9 14q2 5 4 8.5t4 6.5l9 18q3 6 5.5 10.5t4.5 8.5q7 10 18 33l6 10v6q0 4 2 6q-5 -5 -12 -5t-10 5
q-3 4 -1 11l3 12q1 6 0 6q-19 6 -39 -23zM275 250q25 -8 18 -24q-5 -8 -12 -6q-120 20 -176 6q-47 -11 -62 7q-9 10 6 16q8 2 13 2t20.5 1.5t41.5 3.5q52 4 87 3q36 -2 64 -10v1z" />
    <glyph glyph-name="guillemotleft" unicode="&#xab;" horiz-adv-x="409" 
d="M173 99l-17.5 9.5l-16.5 8.5q-7 3 -14 6.5l-15 7.5t-13.5 6.5t-9.5 4.5q-7 3 -9 5q-23 16 -31 36q-8 21 10 39l96 97q15 12 29 12q28 0 15 -27q-12 -23 -64 -76q-2 -3 -14 -15q-11 -11 -15 -18q-6 -7 2 -21q7 -10 24 -20q2 -2 43 -24q1 -1 6 -4t14 -9q20 -13 32 -20
q6 -4 3 -13t-13 -9zM298 93q-15 12 -33 20l-29 15l-23 12q-8 4 -9 6q-23 16 -30 39q-6 22 12 39l99 94q14 11 29 11q28 -2 15 -27q-13 -21 -66 -73q-2 -2 -5.5 -5l-9.5 -8q-12 -10 -16 -16q-6 -8 1 -20q4 -8 24 -21q7 -5 14 -9q3 -2 6.5 -4t7.5 -4l15 -9l18 -14
q10 -7 18 -12t15 -10q6 -4 3 -13t-13 -8z" />
    <glyph glyph-name="logicalnot" unicode="&#xac;" horiz-adv-x="417" 
d="M291 166q6 66 6 93v8v6v5q0 3 -1 3t-3 2t-4 2h-6h-8q-3 0 -42 -3q-20 -2 -37.5 -2.5t-34.5 -1.5t-33 -1h-33q-32 0 -40 5q-13 10 -6 19t27 9q12 0 123 3t124 3h8h9h7q5 0 6 -1t5 -3q2 -1 4 -5q1 -2 3 -8q1 -3 1 -12q0 -10 -1 -15q-2 -13 -4 -39t-6 -66q-3 -18 -18 -21
t-29 5t-14 18z" />
    <glyph glyph-name="registered" unicode="&#xae;" horiz-adv-x="600" 
d="M508 351q0 -73 -4 -89q-4 -13 -24 -64l-17 -32t-12 -21q-8 -13 -29 -34q-18 -18 -50 -31q-26 -11 -67 -13q-39 -1 -85 17q-45 18 -66 59q-13 24 -18 59q-5 36 -2 53q14 118 93 179q28 22 53 32t36 12q10 1 33 3q24 2 44 -10q21 -12 25 -31q0 -16 -10 -17q-7 -1 -9 8
q0 22 -55 22q-119 0 -150 -153q-14 -75 -2 -113q10 -35 30 -57q19 -22 41 -30q21 -7 44 -9q25 -2 38 1q15 3 22 7q52 25 72 60q28 55 39 87q28 84 0 139q-8 13 -18 21q-11 7 -21 9q-11 1 -12 3q-6 7 2 15q7 7 15 1l13 -6l12 -7q17 -12 27 -31q11 -20 11 -33zM351 176
q-9 13 -12 24q-3 9 -1 28q1 9 1.5 14t0.5 7q0 14 -6 26t-11 12q-5 -2 -5 5q-2 9 9 11q10 3 21 14q10 10 12 23q9 39 -10 39q-22 0 -50 -34l-7 -77q-5 -56 -27 -99q-5 -12 -21 -8q-12 2 -8 12q13 45 21 84q5 23 9 64q4 42 6 51q0 14 16 15q13 1 15 -6v-21q30 33 60 33
q18 0 24 -19q6 -20 2 -36q-5 -17 -13 -28t-17 -16l-7 -4q2 -1 4 -1.5t4 -2.5q4 -3 12 -12q8 -10 8 -20v-11t-1 -14t-1 -14v-11q0 -9 5 -21q12 -26 26 -18q4 1 4 -3q0 -1 -2 -3q-5 -2 -12 -3q-8 -2 -21 3q-12 4 -22 17h-6z" />
    <glyph glyph-name="macron" unicode="&#xaf;" horiz-adv-x="656" 
d="M486 498q-186 40 -279 30q-49 -6 -60 14q-8 10 9 15h11q5 -1 27 -1h60q76 0 138 -6t91 -22q24 -14 15 -27q-5 -8 -12 -6v3z" />
    <glyph glyph-name="degree" unicode="&#xb0;" horiz-adv-x="283" 
d="M139 435q-23 -11 -48 1q-26 12 -33 37q-14 37 -9 75q7 70 57 120q22 22 51 25q13 1 21 0q16 -6 19 -21q0 -11 -9 -14q-7 -2 -8 4q0 11 -12 11q-19 -3 -31 -22q-12 -20 -21 -64q-5 -23 -6.5 -44.5t-0.5 -41.5q1 -14 9 -25q7 -11 18 -9q24 3 33 20q19 34 27 59q19 61 12 91
q-2 14 -7 18q-2 3 1 7q3 5 7 6q5 2 8 0q5 -4 8 -10q8 -11 8 -36q0 -4 -0.5 -8t-1.5 -9q-1 -8 -6 -22t-6 -21q-3 -11 -15 -43q-35 -68 -63 -81z" />
    <glyph glyph-name="plusminus" unicode="&#xb1;" horiz-adv-x="475" 
d="M373 277q14 -2 17 -7q3 -6 -1 -12q-4 -5 -12 -7q-50 -5 -108 -3q-7 -94 -27 -130q-11 -20 -33 -9q-23 10 -21 30q2 11 4.5 39.5l6.5 73.5q-53 1 -63 0q-55 -6 -63 8q-5 5 6 8l14 2l106 3q5 43 6 67q4 46 36 57q25 8 32 -13l2 -11l-3 -26q-1 -8 -1 -16.5v-19.5v-19.5
t-1 -15.5q46 1 102 0zM361 66q21 -10 15 -25q-3 -7 -10 -6q-72 10 -141 12t-98 -6q-41 -11 -53 8q-8 11 7 15q6 2 9 2q6 0 24.5 1.5t50.5 5.5t61 5.5t55 1.5q54 0 80 -13v-1z" />
    <glyph glyph-name="uni00B2" unicode="&#xb2;" horiz-adv-x="313" 
d="M254 210h-11t-26 -1t-33.5 -1.5t-33.5 -1.5q-33 -1 -64 0q-32 1 -36 6q-18 17 32 65q84 84 105 144q10 25 1 42t-23 17q-56 0 -51 -60q0 -11 -14 -9t-17 7q-9 21 12 56t71 35q24 0 43 -8t26 -15q7 -8 12 -24q4 -15 4 -21v-16q0 -25 -14 -51t-27 -39l-45 -45
q-34 -36 -36 -44q0 -1 6 -1h17h24h27h25h20h10q3 0 6 -7q3 -8 2 -15t-9 -7z" />
    <glyph glyph-name="uni00B3" unicode="&#xb3;" horiz-adv-x="305" 
d="M131 191q-62 0 -84 60q-4 9 2 15t17 -4l6 -7q2 -4 5 -7.5t6 -7.5q6 -7 16 -13q9 -5 21 -7q31 -1 48 20q17 22 20 47q2 27 -10 50q-12 25 -36 26q-22 1 -36 -5q-4 -1 -10 3t-6 11q0 6 7 10q26 11 38 21q23 17 26 44q2 13 -4 21q-6 9 -20 7q-18 -3 -38 -19q-4 -3 -10 0
t-6 9t6 12q30 27 73 24q31 -1 46 -18q15 -16 13 -39q-4 -34 -39 -61q18 -7 25 -10q10 -5 23 -15q14 -11 20 -27q6 -15 4 -39q-5 -51 -40 -72q-36 -21 -79 -21z" />
    <glyph glyph-name="acute" unicode="&#xb4;" horiz-adv-x="656" 
d="M388 473q-19 -14 -32 1q-12 25 44 99q12 15 27 27q16 12 23 11q13 -5 24 -18q11 -14 2 -24q-21 -26 -36 -42l-15 -15.5l-15 -15.5l-14 -14.5l-11 -11.5z" />
    <glyph glyph-name="paragraph" unicode="&#xb6;" horiz-adv-x="408" 
d="M80 -40q-6 0 -9 3q-2 2 -4 6v3q-9 51 10 297q5 61 13.5 121.5t20.5 121.5q-6 -8 -11 -11q-16 -10 -36 -7q-19 3 -31 15q-23 22 -9 51q3 9 12 18q10 10 27 16q15 6 30 4q5 -1 19.5 -1h40.5q51 0 89 -6q39 -6 62 -22q12 -8 14 -13q3 -7 2 -11q-2 -7 -7 -15q-6 -11 -9 -18
q-8 -11 -18 -73q-5 -32 -7.5 -59t-2.5 -50q0 -112 9 -334q1 -18 -2 -25q-3 -5 -15 -7q-8 -2 -12 6q-5 7 -6 18q-1 5 -1.5 10.5t-0.5 10.5q0 2 -1.5 24.5t-3.5 66.5q-5 87 -6 171q-1 31 0.5 66.5t4.5 77.5q6 82 6 99q1 12 0 39q-12 3 -30.5 6l-44.5 7q0 -5 -1 -9t-3 -10
q-18 -84 -28.5 -139t-12.5 -83q-1 -4 -1.5 -13.5t-2.5 -25.5t-3 -31t-3 -30t-4 -38t-4 -55t-3.5 -67t-3.5 -73q-2 -22 -6 -26q-5 -5 -15 -5z" />
    <glyph glyph-name="periodcentered" unicode="&#xb7;" horiz-adv-x="204" 
d="M127 208q-12 -8 -27 -6q-15 1 -24 9q-16 16 -6 34q4 15 24 21q17 6 36 -1q17 -14 17 -30q0 -20 -18 -30z" />
    <glyph glyph-name="cedilla" unicode="&#xb8;" horiz-adv-x="656" 
d="M280 -200q-36 25 -36 72q3 5 9 5l2 -1q2 -2 2 -3q0 -14 1 -18q12 -35 38 -35t41 27q19 26 19 51q2 17 -12 23q-11 9 -22 1q-4 -4 -8 -6q-5 -5 -12 -3q-14 10 -9 27q13 37 30 60l3 3q6 2 9 -1q5 -2 5 -7q1 -9 0 -13q-5 -8 -7 -19q-3 -10 4 -16l5 -2.5t8 -3.5q10 -5 13 -7
q28 -28 25 -66t-27 -60q-16 -13 -39 -16q-22 -3 -45 8h3z" />
    <glyph glyph-name="uni00B9" unicode="&#xb9;" horiz-adv-x="266" 
d="M184 213q-3 -9 -20 -12t-32 3q-16 6 -14 20l12 169q-28 -38 -42 -49q-14 -10 -22 -4q-12 11 -5 22q56 74 78 139q4 12 35 10q30 -2 32 -17q1 -8 -0.5 -43t-6.5 -98q-9 -126 -13 -138z" />
    <glyph glyph-name="ordmasculine" unicode="&#xba;" horiz-adv-x="334" 
d="M178 283q-19 -10 -43 0q-23 10 -31 32q-11 34 -6 63q8 59 49 102q19 19 45 22q10 1 21 0q16 -6 18 -20v-3q9 4 13 0q5 -2 8 -9q7 -7 7 -32q0 1 -11 -51l-7 -19.5l-6 -16.5q-29 -58 -54 -68h-3zM163 408q-8 -41 -6 -71q0 -10 5 -18t11 -6q17 3 23 15q13 22 23 48
q16 49 9 75q0 9 -5 12q0 2 -1 3t-1 3q-13 -9 -16 4q0 6 -4 6q-14 -2 -23 -16q-8 -14 -16 -52zM270 247q23 -7 19 -22q-3 -9 -13 -8q-119 19 -174 6q-47 -11 -62 7q-9 10 6 16q8 2 13 2t20.5 1.5t41.5 3.5q52 4 87 3q36 -2 64 -10z" />
    <glyph glyph-name="guillemotright" unicode="&#xbb;" horiz-adv-x="437" 
d="M76 67q-10 0 -13 9t3 13q12 7 32 20q18 12 20 14q41 22 43 24q17 10 24 20q8 14 2 21q-5 7 -15 18q-12 12 -14 15q-52 53 -64 76q-14 27 15 27q14 0 29 -12l96 -97q18 -18 10 -39q-8 -20 -31 -36q-1 -1 -9 -4q-4 -2 -9.5 -4.5t-13.5 -6.5t-15 -7l-14 -6l-16.5 -8.5
l-17.5 -9.5l-39 -21zM212 61q-10 0 -13 9t3 13q12 7 32 20q18 12 20 14q41 22 43 24q17 10 24 20q8 14 2 21q-5 7 -15 18q-12 12 -14 15q-52 53 -64 76q-14 27 15 27q14 0 29 -12l96 -97q18 -18 10 -39q-8 -20 -31 -36q-1 -1 -9 -4q-4 -2 -9.5 -4.5t-13.5 -6.5t-15 -7
l-14 -6l-16.5 -8.5l-17.5 -9.5l-39 -21z" />
    <glyph glyph-name="onequarter" unicode="&#xbc;" horiz-adv-x="664" 
d="M212 -77q-5 1 -7 6q-2 4 0 9l1 4q12 58 54 183q21 63 47 128.5t57 134.5q33 76 67 127q19 25 43 12q5 -3 6 -7q2 -5 0 -11q-1 -4 -5 -12q-2 -3 -4 -6.5t-4 -8.5t-4 -8.5t-4 -7.5q-5 -11 -24 -45q-20 -35 -30 -57l-9 -18q-4 -7 -6 -11.5t-4 -6.5q-2 -3 -10 -19
q-8 -15 -12 -27q-2 -6 -5.5 -14.5t-8.5 -19.5t-9 -22.5t-9 -23.5t-10 -27t-12 -32l-30 -78l-17 -46.5l-19 -51.5q-10 -28 -17 -37q-6 -8 -18 -3zM177 209q-3 -9 -20 -12t-32 3q-16 6 -14 20l12 169q-28 -38 -42 -49q-14 -10 -22 -4q-12 11 -5 22q56 74 78 139q4 12 35 10
q30 -2 32 -17q1 -8 -0.5 -43t-6.5 -98q-9 -126 -13 -138zM605 -4q1 -8 -14 -13t-30 0q-15 4 -15 16q1 13 1.5 27.5t0.5 31.5h-18.5t-36.5 -1t-37 -1h-19q-14 0 -17 17t4 26l72 102q26 37 42.5 58.5t22.5 28.5q14 14 32 9q18 -4 19 -16q4 -71 0 -177v-16.5t-1 -22.5t-1 -23.5
v-19.5v-25zM528 88q18 1 16 27q-1 5 -0.5 17.5t2.5 32.5t3 34t2 23l-48.5 -65.5l-34.5 -48.5q-6 -14 -3 -18q3 -5 11 -3z" />
    <glyph glyph-name="onehalf" unicode="&#xbd;" horiz-adv-x="702" 
d="M227 -77q-5 1 -7 6q-2 4 0 9l1 4q12 58 54 183q21 63 47 128.5t57 134.5q33 76 67 127q19 25 43 12q5 -3 6 -7q2 -5 0 -11q-1 -4 -5 -12q-2 -3 -4 -6.5t-4 -8.5t-4 -8.5t-4 -7.5q-5 -11 -24 -45q-20 -35 -30 -57l-9 -18q-4 -7 -6 -11.5t-4 -6.5q-2 -3 -10 -19
q-8 -15 -12 -27q-2 -6 -5.5 -14.5t-8.5 -19.5t-9 -22.5t-9 -23.5t-10 -27t-12 -32l-30 -78l-17 -46.5l-19 -51.5q-10 -28 -17 -37q-6 -8 -18 -3zM177 217q-3 -9 -20 -12t-32 3q-16 6 -14 20l12 169q-28 -38 -42 -49q-14 -10 -22 -4q-12 11 -5 22q56 74 78 139q4 12 35 10
q30 -2 32 -17q1 -8 -0.5 -43t-6.5 -98q-9 -126 -13 -138zM639 -11h-11t-26 -1t-33.5 -1.5t-33.5 -1.5q-33 -1 -64 0q-32 1 -36 6q-18 17 32 65q84 84 105 144q10 25 1 42t-23 17q-56 0 -51 -60q0 -11 -14 -9t-17 7q-9 21 12 56t71 35q24 0 43 -8t26 -15q7 -8 12 -24
q4 -15 4 -21v-16q0 -25 -14 -51t-27 -39l-45 -45q-34 -36 -36 -44q0 -1 6 -1h17h24h27h25h20h10q3 0 6 -7q3 -8 2 -15t-9 -7z" />
    <glyph glyph-name="threequarters" unicode="&#xbe;" horiz-adv-x="696" 
d="M244 -77q-5 1 -7 6q-2 4 0 9l1 4q12 58 54 183q21 63 47 128.5t57 134.5q33 76 67 127q19 25 43 12q5 -3 6 -7q2 -5 0 -11q-1 -4 -5 -12q-2 -3 -4 -6.5t-4 -8.5t-4 -8.5t-4 -7.5q-5 -11 -24 -45q-20 -35 -30 -57l-9 -18q-4 -7 -6 -11.5t-4 -6.5q-2 -3 -10 -19
q-8 -15 -12 -27q-2 -6 -5.5 -14.5t-8.5 -19.5t-9 -22.5t-9 -23.5t-10 -27t-12 -32l-30 -78l-17 -46.5l-19 -51.5q-10 -28 -17 -37q-6 -8 -18 -3zM134 187q-62 0 -84 60q-4 9 2 15t17 -4l6 -7q2 -4 5 -7.5t6 -7.5q6 -7 16 -13q9 -5 21 -7q31 -1 48 20q17 22 20 47
q2 27 -10 50q-12 25 -36 26q-22 1 -36 -5q-4 -1 -10 3t-6 11q0 6 7 10q26 11 38 21q23 17 26 44q2 13 -4 21q-6 9 -20 7q-18 -3 -38 -19q-4 -3 -10 0t-6 9t6 12q30 27 73 24q31 -1 46 -18q15 -16 13 -39q-4 -34 -39 -61q18 -7 25 -10q10 -5 23 -15q14 -11 20 -27
q6 -15 4 -39q-5 -51 -40 -72q-36 -21 -79 -21zM635 -10q1 -8 -14 -13t-30 0q-15 4 -15 16q1 13 1.5 27.5t0.5 31.5h-18.5t-36.5 -1t-37 -1h-19q-14 0 -17 17t4 26l72 102q26 37 42.5 58.5t22.5 28.5q14 14 32 9q18 -4 19 -16q4 -71 0 -177v-16.5t-1 -22.5t-1 -23.5v-19.5
v-25zM558 82q18 1 16 27q-1 5 -0.5 17.5t2.5 32.5t3 34t2 23l-48.5 -65.5l-34.5 -48.5q-6 -14 -3 -18q3 -5 11 -3z" />
    <glyph glyph-name="questiondown" unicode="&#xbf;" horiz-adv-x="420" 
d="M251 685q12 7 27 6q15 -2 24 -9q16 -16 6 -34q-5 -15 -24 -21q-17 -6 -36 1q-17 14 -17 30q0 19 18 30zM312 465q0 -60 -59 -116q-74 -71 -102 -120q-29 -50 -29 -105q0 -50 23 -81q22 -30 62 -30q55 0 84 30t24 95q-2 14 8 17q9 3 19 -1t13 -9q2 -6 2.5 -13.5t1.5 -17.5
q1 -20 -9 -42q-11 -23 -27 -42q-17 -20 -48 -33q-30 -13 -72 -13q-90 0 -126 43t-36 102q0 54 29 100t93 107q16 16 30 33q12 15 21 29q7 12 12 24q4 11 6 20l3 15l1 8q0 18 20 27q19 9 39 3t20 -23z" />
    <glyph glyph-name="Agrave" unicode="&#xc0;" horiz-adv-x="546" 
d="M512 -91q13 -1 13 9q0 13 -16 13t-38 20q-21 20 -26 47q-10 51 2 166q6 57 15 114.5t20 116.5q28 145 27 172q-1 20 -21 25q-20 4 -33 -21q-15 -32 -36 -99q-11 -34 -19 -64.5t-13 -58.5q-20 -107 -24 -114l-6.5 -11l-7.5 -13q-8 -14 -30 -45q-11 -16 -22 -29.5
t-22 -24.5q-21 -23 -50 -41t-54 -17q-37 2 -50 63q-14 61 -9 132q2 35 6 70.5t10 70.5q6 37 27 97q20 58 51 124t70 111q40 46 78 46q59 0 59 -118q3 -16 15 -22q10 0 10 15q-2 6 0 17q1 10 0 24q-1 7 -1.5 13.5t-1.5 14.5q-1 13 -8 28q-5 12 -14 24q-7 10 -23 18
q-14 7 -34 7q-86 0 -183 -114t-132 -290q-33 -167 14 -293q26 -72 110 -74q27 -1 54 8q26 9 46 28q21 19 33 33q12 13 30 39q19 27 22 30q-8 -41 -5 -87q3 -49 25 -83q20 -29 51 -47q33 -19 52 -23q21 -5 36 -6zM421 844l-12 12l-14 14l-17.5 16t-16.5 17q-8 8 -18.5 16.5
t-21.5 21.5q-5 6 -4 11.5t6 13.5t9 12t12 6q5 1 9 0t12 -7q8 -7 15 -16.5t14 -17.5q30 -38 45.5 -62t7.5 -39q-8 -8 -13.5 -5t-15.5 10z" />
    <glyph glyph-name="Aacute" unicode="&#xc1;" horiz-adv-x="546" 
d="M513 -86q-15 1 -36 6q-19 4 -52 23q-31 18 -51 47q-22 34 -25 83q-3 46 5 87q-3 -3 -22 -30q-18 -26 -30 -39q-12 -14 -33 -33q-20 -19 -46 -28q-27 -9 -54 -8q-84 2 -110 74q-47 126 -14 293q35 176 132 290t183 114q20 0 34 -7q16 -8 23 -18q9 -12 14 -24q7 -15 8 -28
q1 -8 1.5 -14.5t1.5 -13.5q1 -14 0 -24q-2 -11 0 -17q0 -15 -10 -15q-12 6 -15 22q0 118 -59 118q-38 0 -78 -46q-39 -45 -70 -111t-51 -124q-21 -60 -27 -97q-6 -35 -10 -70.5t-6 -70.5q-5 -71 9 -132q13 -61 50 -63q25 -1 54 17t50 41q11 11 22 24.5t22 29.5q22 31 30 45
l7.5 13l6.5 11q4 7 24 114q5 28 13 58.5t19 64.5q21 67 36 99q13 25 33 21q20 -5 21 -25q1 -27 -27 -172q-11 -59 -20 -116.5t-15 -114.5q-12 -115 -2 -166q5 -27 26 -47q22 -20 38 -20t16 -13q0 -10 -13 -9zM403 846q-10 -7 -15.5 -10t-13.5 5q-8 15 7.5 39t45.5 62
q7 8 14 17.5t15 16.5q8 6 12 7t9 0q8 -2 12 -6t9 -12t6 -13.5t-4 -11.5q-11 -13 -21.5 -21.5t-18.5 -16.5q-8 -9 -16.5 -17l-17.5 -16l-14 -14l-12 -12z" />
    <glyph glyph-name="Acircumflex" unicode="&#xc2;" horiz-adv-x="546" 
d="M509 -94q-15 1 -36 6q-19 4 -52 23q-31 18 -51 47q-22 34 -25 83q-3 46 5 87q-3 -3 -22 -30q-18 -26 -30 -39q-12 -14 -33 -33q-20 -19 -46 -28q-27 -9 -54 -8q-84 2 -110 74q-47 126 -14 293q35 176 132 290t183 114q20 0 34 -7q16 -8 23 -18q9 -12 14 -24q7 -15 8 -28
q1 -8 1.5 -14.5t1.5 -13.5q1 -14 0 -24q-2 -11 0 -17q0 -15 -10 -15q-12 6 -15 22q0 118 -59 118q-38 0 -78 -46q-39 -45 -70 -111t-51 -124q-21 -60 -27 -97q-6 -35 -10 -70.5t-6 -70.5q-5 -71 9 -132q13 -61 50 -63q25 -1 54 17t50 41q11 11 22 24.5t22 29.5q22 31 30 45
l7.5 13l6.5 11q4 7 24 114q5 28 13 58.5t19 64.5q21 67 36 99q13 25 33 21q20 -5 21 -25q1 -27 -27 -172q-11 -59 -20 -116.5t-15 -114.5q-12 -115 -2 -166q5 -27 26 -47q22 -20 38 -20t16 -13q0 -10 -13 -9zM487 827q-8 4 -15.5 9.5t-12.5 13.5q-6 11 -18 27l-29 40
q-2 2 -2.5 3t-1.5 2q-2 2 -3 2q-2 2 -2 3l4 -2q-14 -11 -27 -24l-26 -27q-14 -16 -26 -26.5t-21 -15.5q-2 0 -6 1.5t-4 3.5l-3 7q2 3 7 8.5l13 14.5l14 15.5t12 10.5l9.5 11.5l12.5 14.5q8 8 15 16t12 15q6 6 11 12t9 13q6 9 15 9q7 -1 12 -8q0 -2 2.5 -3.5t4.5 -3.5
q5 -2 5.5 -4t0.5 -4q2 -5 16 -28l39 -65q0 -1 5 -8q6 -9 6 -12q3 -3 -5 -8l-2 -2q0 -5 -7.5 -6.5t-12.5 0.5z" />
    <glyph glyph-name="Atilde" unicode="&#xc3;" horiz-adv-x="546" 
d="M507 -91q-15 1 -36 6q-19 4 -52 23q-31 18 -51 47q-22 34 -25 83q-3 46 5 87q-3 -3 -22 -30q-18 -26 -30 -39q-12 -14 -33 -33q-20 -19 -46 -28q-27 -9 -54 -8q-84 2 -110 74q-47 126 -14 293q35 176 132 290t183 114q20 0 34 -7q16 -8 23 -18q9 -12 14 -24q7 -15 8 -28
q1 -8 1.5 -14.5t1.5 -13.5q1 -14 0 -24q-2 -11 0 -17q0 -15 -10 -15q-12 6 -15 22q0 118 -59 118q-38 0 -78 -46q-39 -45 -70 -111t-51 -124q-21 -60 -27 -97q-6 -35 -10 -70.5t-6 -70.5q-5 -71 9 -132q13 -61 50 -63q25 -1 54 17t50 41q11 11 22 24.5t22 29.5q22 31 30 45
l7.5 13l6.5 11q4 7 24 114q5 28 13 58.5t19 64.5q21 67 36 99q13 25 33 21q20 -5 21 -25q1 -27 -27 -172q-11 -59 -20 -116.5t-15 -114.5q-12 -115 -2 -166q5 -27 26 -47q22 -20 38 -20t16 -13q0 -10 -13 -9zM440 841q-14 2 -27 8.5t-24 14.5q-12 11 -21.5 15.5t-19.5 2.5
q-6 -1 -11.5 -6t-11.5 -8q-4 -5 -7 -10.5t-7 -11.5q-8 -13 -11 -13q-7 -8 -8 6q-2 16 4 23q23 38 44.5 49t39.5 9q11 0 23.5 -6t28.5 -15q17 -11 27.5 -14.5t16.5 -2.5q14 -1 25.5 10t16.5 19q9 7 13 -2q3 -7 -4 -17q0 -1 -1 -5.5t-3 -7.5l-8 -8t-5 -6q-2 -2 -7.5 -5.5
t-11.5 -8.5q-8 -7 -24.5 -8.5t-26.5 -1.5z" />
    <glyph glyph-name="Adieresis" unicode="&#xc4;" horiz-adv-x="546" 
d="M263 839q-10 13 24 109q17 47 33 47q13 0 27 -11q13 -11 9 -21q-24 -53 -60 -117q-17 -17 -33 -6v-1zM385 840q-13 19 24 109q20 47 33 47q16 0 26 -16q10 -17 0 -39l-20.5 -41.5t-31.5 -58.5q-14 -14 -33 -2zM512 -89q-15 1 -36 6q-19 4 -52 23q-31 18 -51 47
q-22 34 -25 83q-3 46 5 87q-3 -3 -22 -30q-18 -26 -30 -39q-12 -14 -33 -33q-20 -19 -46 -28q-27 -9 -54 -8q-84 2 -110 74q-47 126 -14 293q35 176 132 290t183 114q20 0 34 -7q16 -8 23 -18q9 -12 14 -24q7 -15 8 -28q1 -8 1.5 -14.5t1.5 -13.5q1 -14 0 -24q-2 -11 0 -17
q0 -15 -10 -15q-12 6 -15 22q0 118 -59 118q-38 0 -78 -46q-39 -45 -70 -111t-51 -124q-21 -60 -27 -97q-6 -35 -10 -70.5t-6 -70.5q-5 -71 9 -132q13 -61 50 -63q25 -1 54 17t50 41q11 11 22 24.5t22 29.5q22 31 30 45l7.5 13l6.5 11q4 7 24 114q5 28 13 58.5t19 64.5
q21 67 36 99q13 25 33 21q20 -5 21 -25q1 -27 -27 -172q-11 -59 -20 -116.5t-15 -114.5q-12 -115 -2 -166q5 -27 26 -47q22 -20 38 -20t16 -13q0 -10 -13 -9z" />
    <glyph glyph-name="Aring" unicode="&#xc5;" horiz-adv-x="546" 
d="M380 862q-21 -9 -49 -3t-45 23q-24 27 -12 64q17 57 76 81q10 4 33 12q17 -2 27 -13q10 -12 9 -27q0 -2 -4 -6l-3 -3q-8 4 -9 6q-6 15 -7 16q-11 8 -17 5q-33 -13 -49 -49q-9 -20 -5 -60q0 -14 18 -21q24 -10 40 9q37 47 38 78q0 17 11 15q11 -1 10 -16q0 -22 -3 -28
q-8 -14 -21 -33.5l-30 -45.5q-3 -4 -8 -6v2zM510 -87q-15 1 -36 6q-19 4 -52 23q-31 18 -51 47q-22 34 -25 83q-3 46 5 87q-3 -3 -22 -30q-18 -26 -30 -39q-12 -14 -33 -33q-20 -19 -46 -28q-27 -9 -54 -8q-84 2 -110 74q-47 126 -14 293q35 176 132 290t183 114q20 0 34 -7
q16 -8 23 -18q9 -12 14 -24q7 -15 8 -28q1 -8 1.5 -14.5t1.5 -13.5q1 -14 0 -24q-2 -11 0 -17q0 -15 -10 -15q-12 6 -15 22q0 118 -59 118q-38 0 -78 -46q-39 -45 -70 -111t-51 -124q-21 -60 -27 -97q-6 -35 -10 -70.5t-6 -70.5q-5 -71 9 -132q13 -61 50 -63q25 -1 54 17
t50 41q11 11 22 24.5t22 29.5q22 31 30 45l7.5 13l6.5 11q4 7 24 114q5 28 13 58.5t19 64.5q21 67 36 99q13 25 33 21q20 -5 21 -25q1 -27 -27 -172q-11 -59 -20 -116.5t-15 -114.5q-12 -115 -2 -166q5 -27 26 -47q22 -20 38 -20t16 -13q0 -10 -13 -9z" />
    <glyph glyph-name="AE" unicode="&#xc6;" horiz-adv-x="760" 
d="M727 134q13 24 24 21t-1 -40q-17 -52 -67 -93q-51 -42 -125 -42q-37 0 -78 11q-39 10 -75 33q-36 22 -60 65q-23 41 -25 98l-15 -34l-10 -17q-5 -8 -7.5 -13t-4.5 -7t-5 -6.5l-8 -12.5t-9 -13t-7 -8t-7 -7.5l-9 -10.5q-11 -13 -19 -18q-9 -6 -21 -15t-24 -12
q-6 -2 -12 -3t-13 -3q-14 -3 -29 -3q-84 2 -110 74q-47 126 -14 293q35 176 132 290t183 114q20 0 34 -7q16 -8 23 -18q9 -12 14 -24q7 -15 8 -28q1 -8 1.5 -14.5t1.5 -13.5q1 -14 0 -24q-2 -11 0 -17q0 -15 -10 -15q-12 6 -15 22q0 118 -59 118q-37 0 -76 -46
q-38 -45 -67 -111q-29 -65 -48 -123q-19 -56 -25 -96q-11 -62 -12 -135q-2 -75 10 -133q12 -59 36 -67q18 -6 39 6q20 11 43 39l21.5 27.5l20.5 27.5q19 28 39 66l17.5 34l13.5 26t12 23.5t12 26.5q4 13 12 30q5 28 13 58t19 62l19.5 55.5t15.5 37.5q13 25 33 21
q20 -5 21 -25q1 -18 -9 -82q19 10 39 18q10 4 20.5 7l21.5 6q22 6 24 6q-17 13 -24 21q-8 7 -21 27q-13 18 -19 45q-6 24 -4 57q4 64 44 102t98 38q22 0 39 -6t23 -12l7.5 -7.5t9.5 -11.5q4 -9 -3 -13t-13 6q-16 28 -63 28q-26 0 -47 -34q-21 -35 -24 -103q-2 -35 12 -66
q13 -32 30 -48q8 -8 17 -15.5l18 -15.5t14 -11.5t6 -4.5q7 -11 0 -18q-8 -8 -18 -3l-8 6q-6 4 -11 6q-2 1 -5 2t-7 3q-9 4 -17 5q-5 1 -10 1.5t-11 0.5q-51 0 -90 -43q-38 -43 -55 -99t-18 -108q-2 -84 36 -149q37 -65 111 -63q17 0 32 3q16 3 29 9t24 12q9 5 21 17l18 18
q7 7 15 18l11 17q2 3 4 6.5t4 8.5q4 8 6 10z" />
    <glyph glyph-name="Ccedilla" unicode="&#xc7;" horiz-adv-x="385" 
d="M181 -8q-117 -3 -164 104t-12 281q34 175 131 297q96 122 212 122q30 0 51 -9q20 -9 31 -18q10 -9 16 -28q6 -20 6 -27q0 -4 0.5 -11.5t1.5 -18.5q0 -13 -10 -12q-10 3 -9 16v16q0 11 -6 23q-6 11 -14 23q-7 10 -26 18t-42 8q-41 0 -78 -36q-38 -36 -65 -86
q-26 -48 -51 -110q-24 -60 -36 -102l-10.5 -38t-6.5 -31q-69 -347 77 -345q52 0 92 17q39 17 56 35q18 20 32 42l12 18t5 7q13 15 21 3q4 -8 -3 -15l-10 -18q-5 -8 -10 -17t-12 -18q-14 -18 -35 -38t-57 -33t-80 -15zM178 -210q-36 25 -36 72q2 5 9 5l2 -1q2 -2 2 -3
q0 -14 1 -18q12 -35 38 -35t41 27q19 26 19 51q2 17 -12 23q-11 9 -22 1q-4 -4 -8 -6q-5 -5 -12 -3q-14 10 -9 27q13 37 30 60l3 3q6 2 9 -1q5 -2 5 -7q1 -9 0 -13q-5 -8 -7 -19q-3 -10 4 -16l5 -2.5t8 -3.5q10 -5 13 -7q28 -28 25 -66t-27 -60q-16 -13 -39 -16
q-22 -3 -45 8h3z" />
    <glyph glyph-name="Egrave" unicode="&#xc8;" horiz-adv-x="431" 
d="M234 -5q74 0 125 42q50 41 67 93q12 37 1 40t-24 -21q-2 -2 -6 -10q-2 -5 -4 -8.5t-4 -6.5l-11 -17q-8 -11 -15 -18l-18 -18q-12 -12 -21 -17q-11 -6 -24 -12t-29 -9q-15 -3 -32 -3q-74 -2 -111 63q-38 65 -36 149q1 52 18 108t55 99q39 43 90 43q6 0 11 -0.5t10 -1.5
q8 -1 17 -5q4 -2 7 -3t5 -2q5 -2 11 -6l8 -6q10 -5 18 3q7 7 0 18q-1 1 -6 4.5t-14 11.5l-18 15.5t-17 15.5q-17 16 -30 48q-14 31 -12 66q3 68 24 103q21 34 47 34q47 0 63 -28q6 -10 13 -6t3 13q-5 7 -9.5 11.5l-7.5 7.5q-6 6 -23 12t-39 6q-58 0 -98 -38t-44 -102
q-2 -33 4 -57q6 -27 19 -45q13 -20 21 -27q7 -8 24 -21q-3 -2 -22 -6q-20 -5 -33 -9q-14 -5 -36 -15q-24 -11 -39 -22t-37 -33t-35 -47q-7 -13 -13.5 -28.5t-12.5 -34.5q-13 -40 -17 -81q-7 -55 5 -101q12 -45 36 -72t58 -45q17 -9 33.5 -15.5t33.5 -10.5q31 -7 67 -7z
M351 844l-12 12l-14 14l-17.5 16t-16.5 17q-8 8 -18.5 16.5t-21.5 21.5q-5 6 -4 11.5t6 13.5t9 12t12 6q5 1 9 0t12 -7q8 -7 15 -16.5t14 -17.5q30 -38 45.5 -62t7.5 -39q-8 -8 -13.5 -5t-15.5 10z" />
    <glyph glyph-name="Eacute" unicode="&#xc9;" horiz-adv-x="431" 
d="M234 -10q-36 0 -67 7q-17 4 -33.5 10.5t-33.5 15.5q-34 18 -58 45t-36 72q-12 46 -5 101q4 41 17 81q6 19 12.5 34.5t13.5 28.5q13 25 35 47t37 33t39 22q22 10 36 15q13 4 33 9q19 4 22 6q-17 13 -24 21q-8 7 -21 27q-13 18 -19 45q-6 24 -4 57q4 64 44 102t98 38
q22 0 39 -6t23 -12l7.5 -7.5t9.5 -11.5q4 -9 -3 -13t-13 6q-16 28 -63 28q-26 0 -47 -34q-21 -35 -24 -103q-2 -35 12 -66q13 -32 30 -48q8 -8 17 -15.5l18 -15.5t14 -11.5t6 -4.5q7 -11 0 -18q-8 -8 -18 -3l-8 6q-6 4 -11 6q-2 1 -5 2t-7 3q-9 4 -17 5q-5 1 -10 1.5
t-11 0.5q-51 0 -90 -43q-38 -43 -55 -99t-18 -108q-2 -84 36 -149q37 -65 111 -63q17 0 32 3q16 3 29 9t24 12q9 5 21 17l18 18q7 7 15 18l11 17q2 3 4 6.5t4 8.5q4 8 6 10q13 24 24 21t-1 -40q-17 -52 -67 -93q-51 -42 -125 -42zM318 846q-10 -7 -15.5 -10t-13.5 5
q-8 15 7.5 39t45.5 62q7 8 14 17.5t15 16.5q8 6 12 7t9 0q8 -2 12 -6t9 -12t6 -13.5t-4 -11.5q-11 -13 -21.5 -21.5t-18.5 -16.5q-8 -9 -16.5 -17l-17.5 -16l-14 -14l-12 -12z" />
    <glyph glyph-name="Ecircumflex" unicode="&#xca;" horiz-adv-x="431" 
d="M230 -18q-36 0 -67 7q-17 4 -33.5 10.5t-33.5 15.5q-34 18 -58 45t-36 72q-12 46 -5 101q4 41 17 81q6 19 12.5 34.5t13.5 28.5q13 25 35 47t37 33t39 22q22 10 36 15q13 4 33 9q19 4 22 6q-17 13 -24 21q-8 7 -21 27q-13 18 -19 45q-6 24 -4 57q4 64 44 102t98 38
q22 0 39 -6t23 -12l7.5 -7.5t9.5 -11.5q4 -9 -3 -13t-13 6q-16 28 -63 28q-26 0 -47 -34q-21 -35 -24 -103q-2 -35 12 -66q13 -32 30 -48q8 -8 17 -15.5l18 -15.5t14 -11.5t6 -4.5q7 -11 0 -18q-8 -8 -18 -3l-8 6q-6 4 -11 6q-2 1 -5 2t-7 3q-9 4 -17 5q-5 1 -10 1.5
t-11 0.5q-51 0 -90 -43q-38 -43 -55 -99t-18 -108q-2 -84 36 -149q37 -65 111 -63q17 0 32 3q16 3 29 9t24 12q9 5 21 17l18 18q7 7 15 18l11 17q2 3 4 6.5t4 8.5q4 8 6 10q13 24 24 21t-1 -40q-17 -52 -67 -93q-51 -42 -125 -42zM410 827q-8 4 -15.5 9.5t-12.5 13.5
q-6 11 -18 27l-29 40q-2 2 -2.5 3t-1.5 2q-2 2 -3 2q-2 2 -2 3l4 -2q-14 -11 -27 -24l-26 -27q-14 -16 -26 -26.5t-21 -15.5q-2 0 -6 1.5t-4 3.5l-3 7q2 3 7 8.5l13 14.5l14 15.5t12 10.5l9.5 11.5l12.5 14.5q8 8 15 16t12 15q6 6 11 12t9 13q6 9 15 9q7 -1 12 -8
q0 -2 2.5 -3.5t4.5 -3.5q5 -2 5.5 -4t0.5 -4q2 -5 16 -28l39 -65q0 -1 5 -8q6 -9 6 -12q3 -3 -5 -8l-2 -2q0 -5 -7.5 -6.5t-12.5 0.5z" />
    <glyph glyph-name="Edieresis" unicode="&#xcb;" horiz-adv-x="431" 
d="M247 878q-10 13 24 109q17 47 33 47q13 0 27 -11q13 -11 9 -21q-24 -53 -60 -117q-17 -17 -33 -6v-1zM369 879q-13 19 24 109q20 47 33 47q16 0 26 -16q10 -17 0 -39l-20.5 -41.5t-31.5 -58.5q-14 -14 -33 -2zM233 -13q-36 0 -67 7q-17 4 -33.5 10.5t-33.5 15.5
q-34 18 -58 45t-36 72q-12 46 -5 101q4 41 17 81q6 19 12.5 34.5t13.5 28.5q13 25 35 47t37 33t39 22q22 10 36 15q13 4 33 9q19 4 22 6q-17 13 -24 21q-8 7 -21 27q-13 18 -19 45q-6 24 -4 57q4 64 44 102t98 38q22 0 39 -6t23 -12l7.5 -7.5t9.5 -11.5q4 -9 -3 -13t-13 6
q-16 28 -63 28q-26 0 -47 -34q-21 -35 -24 -103q-2 -35 12 -66q13 -32 30 -48q8 -8 17 -15.5l18 -15.5t14 -11.5t6 -4.5q7 -11 0 -18q-8 -8 -18 -3l-8 6q-6 4 -11 6q-2 1 -5 2t-7 3q-9 4 -17 5q-5 1 -10 1.5t-11 0.5q-51 0 -90 -43q-38 -43 -55 -99t-18 -108q-2 -84 36 -149
q37 -65 111 -63q17 0 32 3q16 3 29 9t24 12q9 5 21 17l18 18q7 7 15 18l11 17q2 3 4 6.5t4 8.5q4 8 6 10q13 24 24 21t-1 -40q-17 -52 -67 -93q-51 -42 -125 -42z" />
    <glyph glyph-name="Igrave" unicode="&#xcc;" horiz-adv-x="407" 
d="M87 -9q73 -6 136 65q63 70 96 171q26 82 41 225q15 145 15 240q0 70 -14 92q-14 21 -51 24q-30 3 -84 -17t-89 -42q-9 -6 -8 -12q2 -9 15 -2q112 67 165 49q5 -2 6 -7q1 -4 1 -18q0 -6 -0.5 -12t-1.5 -11t-1.5 -12.5t-2.5 -17.5t-2.5 -18t-1.5 -15q-6 -69 -24 -220
q-9 -75 -17 -129t-15 -88l-8.5 -32.5t-10.5 -33.5t-14 -35t-18 -37q-19 -37 -48 -61t-60 -24q-14 0 -24 3q-9 3 -18 8q-8 5 -12 13q-2 5 -4 8.5t-4 7.5q-3 7 -3 19v19v8.5t1 10.5q1 12 3 18q1 6 3 15q1 5 1.5 7t0.5 3q3 19 -8 19t-17 -14q-13 -28 -15 -71q-2 -21 3 -41
q4 -20 27 -39q23 -20 61 -23zM349 844l-12 12l-14 14l-17.5 16t-16.5 17q-8 8 -18.5 16.5t-21.5 21.5q-5 6 -4 11.5t6 13.5t9 12t12 6q5 1 9 0t12 -7q8 -7 15 -16.5t14 -17.5q30 -38 45.5 -62t7.5 -39q-8 -8 -13.5 -5t-15.5 10z" />
    <glyph glyph-name="Iacute" unicode="&#xcd;" horiz-adv-x="407" 
d="M90 -12q-38 3 -61 23q-23 19 -27 39q-5 20 -3 41q2 43 15 71q6 14 17 14t8 -19q0 -1 -0.5 -3t-1.5 -7q-2 -9 -3 -15q-2 -6 -3 -18q-1 -6 -1 -10.5v-8.5v-19q0 -12 3 -19q2 -4 4 -7.5t4 -8.5q4 -8 12 -13q9 -5 18 -8q10 -3 24 -3q31 0 60 24t48 61q10 19 18 37t14 35
t10.5 33.5l8.5 32.5q7 34 15 88t17 129q18 151 24 220q1 7 1.5 15t2.5 18t2.5 17.5t1.5 12.5t1.5 11t0.5 12q0 14 -1 18q-1 5 -6 7q-53 18 -165 -49q-13 -7 -15 2q-1 6 8 12q35 22 89 42t84 17q37 -3 51 -24q14 -22 14 -92q0 -95 -15 -240q-15 -143 -41 -225
q-33 -101 -96 -171q-63 -71 -136 -65zM321 846q-10 -7 -15.5 -10t-13.5 5q-8 15 7.5 39t45.5 62q7 8 14 17.5t15 16.5q8 6 12 7t9 0q8 -2 12 -6t9 -12t6 -13.5t-4 -11.5q-11 -13 -21.5 -21.5t-18.5 -16.5q-8 -9 -16.5 -17l-17.5 -16l-14 -14l-12 -12z" />
    <glyph glyph-name="Icircumflex" unicode="&#xce;" horiz-adv-x="407" 
d="M403 848q-21 10 -33 27q-10 20 -50 74q-2 2 -2.5 3t-1.5 2l-3 3l-3 3h-14q-36 -17 -72 -44q-36 -29 -60 -37q-6 0 -6 5l-3 8q6 4 27 21q22 17 34 24q5 4 12.5 9t18.5 13q21 15 36 27t27 24q10 7 19 6q10 -2 14 -9q1 -2 1 -7q12 -5 12 -9q3 -6 17.5 -31l40.5 -70
q2 -2 6 -10q5 -10 5 -13q4 -3 -6 -7q-1 -1 -3 -1q-2 -11 -12 -6zM86 -20q-38 3 -61 23q-23 19 -27 39q-5 20 -3 41q2 43 15 71q6 14 17 14t8 -19q0 -1 -0.5 -3t-1.5 -7q-2 -9 -3 -15q-2 -6 -3 -18q-1 -6 -1 -10.5v-8.5v-19q0 -12 3 -19q2 -4 4 -7.5t4 -8.5q4 -8 12 -13
q9 -5 18 -8q10 -3 24 -3q31 0 60 24t48 61q10 19 18 37t14 35t10.5 33.5l8.5 32.5q7 34 15 88t17 129q18 151 24 220q1 7 1.5 15t2.5 18t2.5 17.5t1.5 12.5t1.5 11t0.5 12q0 14 -1 18q-1 5 -6 7q-53 18 -165 -49q-13 -7 -15 2q-1 6 8 12q35 22 89 42t84 17q37 -3 51 -24
q14 -22 14 -92q0 -95 -15 -240q-15 -143 -41 -225q-33 -101 -96 -171q-63 -71 -136 -65z" />
    <glyph glyph-name="Idieresis" unicode="&#xcf;" horiz-adv-x="407" 
d="M200 852q-10 13 24 109q17 47 33 47q13 0 27 -11q13 -11 9 -21q-24 -53 -60 -117q-17 -17 -33 -6v-1zM322 853q-13 19 24 109q20 47 33 47q16 0 26 -16q10 -17 0 -39l-20.5 -41.5t-31.5 -58.5q-14 -14 -33 -2zM89 -15q-38 3 -61 23q-23 19 -27 39q-5 20 -3 41q2 43 15 71
q6 14 17 14t8 -19q0 -1 -0.5 -3t-1.5 -7q-2 -9 -3 -15q-2 -6 -3 -18q-1 -6 -1 -10.5v-8.5v-19q0 -12 3 -19q2 -4 4 -7.5t4 -8.5q4 -8 12 -13q9 -5 18 -8q10 -3 24 -3q31 0 60 24t48 61q10 19 18 37t14 35t10.5 33.5l8.5 32.5q7 34 15 88t17 129q18 151 24 220q1 7 1.5 15
t2.5 18t2.5 17.5t1.5 12.5t1.5 11t0.5 12q0 14 -1 18q-1 5 -6 7q-53 18 -165 -49q-13 -7 -15 2q-1 6 8 12q35 22 89 42t84 17q37 -3 51 -24q14 -22 14 -92q0 -95 -15 -240q-15 -143 -41 -225q-33 -101 -96 -171q-63 -71 -136 -65z" />
    <glyph glyph-name="Eth" unicode="&#xd0;" horiz-adv-x="706" 
d="M534 740q97 -6 144 -110t29 -249q-12 -102 -58 -191t-123 -148q-76 -58 -165 -58q-57 0 -82 21t-19 50q6 28 27 54q21 25 47 36q124 46 207 33q58 94 72 198q19 143 -2 234q-21 90 -85 102q-39 8 -94 -22q-56 -30 -117 -90q-1 -5 -1 -11.5v-14.5q37 -2 60 -12
q19 -7 21 -23q2 -15 -12 -23q-38 13 -72 14q-6 -77 -18 -150q-6 -37 -13.5 -70.5t-17.5 -65.5t-22 -62.5t-27 -60.5q-30 -60 -75 -93q-46 -33 -100 -29q-104 7 -3 225q64 139 156 267l11 15q1 1 12 15q-18 -4 -29 -6q-44 -5 -60 25q-11 24 7 36q4 4 12 6q27 -8 83 -6
q28 195 19 206q-29 34 -150 -30q-33 -17 -41 -12q-4 3 6 13l18 9q9 5 16.5 8.5t13.5 5.5t14 5.5l19 8.5q21 9 38 12q16 3 36 6q18 3 36 -2q17 -5 29 -15q32 -27 33 -154q115 111 219 105zM47 30q31 -4 61 40q30 45 51 112t33 144l25 160l-30 -42l-31 -46
q-125 -195 -138 -303q-8 -59 27 -65h2zM364 14q34 7 78 44q44 36 83 92q-114 12 -184 -29q-39 -24 -47 -53t13 -45q21 -17 57 -9z" />
    <glyph glyph-name="Ntilde" unicode="&#xd1;" horiz-adv-x="695" 
d="M688 865q11 6 14 -3t-9 -15q-2 -2 -12 -9q-9 -7 -20 -12q-7 -4 -28 -10q-20 -6 -37 -6q-9 0 -21 1.5t-26 3.5q-43 9 -74 29t-59 20q-20 0 -36 -6q-14 -5 -31 -17q-14 -10 -16 -10q-13 -7 -13 6q0 16 11 21q91 61 147 54q36 -5 78 -28q45 -25 63 -26q48 -5 72 9zM676 -47
q10 7 15 1q5 -7 -4 -14q-40 -36 -111 -16q-55 16 -82 78q-27 61 -27 142q0 80 9 172q9 91 21 168q12 76 12 128q0 51 -19 54q-63 7 -142 -57q-3 -137 -18 -235q-4 -28 -9 -55t-11 -53q-12 -54 -33 -110q-22 -59 -46 -96q-26 -39 -61 -57q-36 -18 -77 -1q-41 16 -42 81
q-2 66 28 149q30 85 82 175q53 93 114 161q3 33 6 81q2 24 2.5 39.5t1.5 22.5q5 16 2 44q-3 29 -25 29q-28 0 -67 -14q-38 -14 -57 -24q-20 -11 -30 -18q-14 -9 -24 -5q-6 3 9 14l25.5 15t37.5 20q43 22 71 30q22 4 48 6q25 1 48 -18q23 -20 26 -57q1 -13 1.5 -35.5
t0.5 -54.5q82 63 147 53q50 -8 72 -46q23 -40 23 -96q0 -57 -6 -132q-3 -38 -7 -74.5t-9 -72.5q-11 -72 -9 -149q1 -77 21 -129q8 -22 22 -32q15 -11 30 -12q14 -1 27 2t19 7zM94 21q26 -9 53 36t48 121q11 38 20.5 75.5t17.5 75.5q17 76 27 145q2 8 3.5 21.5l3.5 32.5
q-115 -138 -175 -309q-60 -170 4 -198h-2z" />
    <glyph glyph-name="Ograve" unicode="&#xd2;" horiz-adv-x="442" 
d="M528 546q-38 -26 -65 -31q7 107 -23 172t-80 54q-39 -9 -60 -44t-20 -77t21 -75q20 -32 58 -44q40 -12 80 -8q-6 -50 -21 -105q-41 -149 -102 -258q-62 -110 -117 -108q-28 1 -49 27q-21 25 -33 66t-18 85q-6 45 -6 91q0 24 3 56t10 72q13 78 36 163q22 84 60 144
q37 60 78 60q11 0 22 -3q10 -3 15 -8l10 -10l7 -7q7 -5 12 -5q7 0 4 7q-20 42 -75 42q-82 0 -148 -86q-65 -84 -97 -203q-31 -115 -28 -225q5 -151 60 -218q56 -68 130 -69q70 -1 133 105t108 279q14 50 21 109q10 1 19 6q43 16 57 27q8 6 6 14q-3 11 -14 3zM330 587
q-20 35 -11 82t38 55q37 9 63 -51q25 -60 18 -160q-65 3 -107 75zM348 844l-12 12l-14 14l-17.5 16t-16.5 17q-8 8 -18.5 16.5t-21.5 21.5q-5 6 -4 11.5t6 13.5t9 12t12 6q5 1 9 0t12 -7q8 -7 15 -16.5t14 -17.5q30 -38 45.5 -62t7.5 -39q-8 -8 -13.5 -5t-15.5 10z" />
    <glyph glyph-name="Oacute" unicode="&#xd3;" horiz-adv-x="442" 
d="M526 548q11 8 14 -3q2 -8 -6 -14q-14 -11 -57 -27q-9 -5 -19 -6q-7 -59 -21 -109q-45 -173 -108 -279t-133 -105q-74 1 -130 69q-55 67 -60 218q-3 110 28 225q32 119 97 203q66 86 148 86q55 0 75 -42q3 -7 -4 -7q-5 0 -12 5l-7 7l-10 10q-5 5 -15 8q-11 3 -22 3
q-41 0 -78 -60q-38 -60 -60 -144q-23 -85 -36 -163q-7 -40 -10 -72t-3 -56q0 -46 6 -91q6 -44 18 -85t33 -66q21 -26 49 -27q55 -2 117 108q61 109 102 258q15 55 21 105q-40 -4 -80 8q-38 12 -58 44q-20 33 -21 75t20 77t60 44q50 11 80 -54t23 -172q27 5 65 31zM335 592
q42 -72 107 -75q7 100 -18 160q-26 60 -63 51q-29 -8 -38 -55t11 -82zM318 846q-10 -7 -15.5 -10t-13.5 5q-8 15 7.5 39t45.5 62q7 8 14 17.5t15 16.5q8 6 12 7t9 0q8 -2 12 -6t9 -12t6 -13.5t-4 -11.5q-11 -13 -21.5 -21.5t-18.5 -16.5q-8 -9 -16.5 -17l-17.5 -16l-14 -14
l-12 -12z" />
    <glyph glyph-name="Ocircumflex" unicode="&#xd4;" horiz-adv-x="442" 
d="M522 540q11 8 14 -3q2 -8 -6 -14q-14 -11 -57 -27q-9 -5 -19 -6q-7 -59 -21 -109q-45 -173 -108 -279t-133 -105q-74 1 -130 69q-55 67 -60 218q-3 110 28 225q32 119 97 203q66 86 148 86q55 0 75 -42q3 -7 -4 -7q-5 0 -12 5l-7 7l-10 10q-5 5 -15 8q-11 3 -22 3
q-41 0 -78 -60q-38 -60 -60 -144q-23 -85 -36 -163q-7 -40 -10 -72t-3 -56q0 -46 6 -91q6 -44 18 -85t33 -66q21 -26 49 -27q55 -2 117 108q61 109 102 258q15 55 21 105q-40 -4 -80 8q-38 12 -58 44q-20 33 -21 75t20 77t60 44q50 11 80 -54t23 -172q27 5 65 31zM331 584
q42 -72 107 -75q7 100 -18 160q-26 60 -63 51q-29 -8 -38 -55t11 -82zM391 827q-8 4 -15.5 9.5t-12.5 13.5q-6 11 -18 27l-29 40q-2 2 -2.5 3t-1.5 2q-2 2 -3 2q-2 2 -2 3l4 -2q-14 -11 -27 -24l-26 -27q-14 -16 -26 -26.5t-21 -15.5q-2 0 -6 1.5t-4 3.5l-3 7q2 3 7 8.5
l13 14.5l14 15.5t12 10.5l9.5 11.5l12.5 14.5q8 8 15 16t12 15q6 6 11 12t9 13q6 9 15 9q7 -1 12 -8q0 -2 2.5 -3.5t4.5 -3.5q5 -2 5.5 -4t0.5 -4q2 -5 16 -28l39 -65q0 -1 5 -8q6 -9 6 -12q3 -3 -5 -8l-2 -2q0 -5 -7.5 -6.5t-12.5 0.5z" />
    <glyph glyph-name="Otilde" unicode="&#xd5;" horiz-adv-x="442" 
d="M520 543q11 8 14 -3q2 -8 -6 -14q-14 -11 -57 -27q-9 -5 -19 -6q-7 -59 -21 -109q-45 -173 -108 -279t-133 -105q-74 1 -130 69q-55 67 -60 218q-3 110 28 225q32 119 97 203q66 86 148 86q55 0 75 -42q3 -7 -4 -7q-5 0 -12 5l-7 7l-10 10q-5 5 -15 8q-11 3 -22 3
q-41 0 -78 -60q-38 -60 -60 -144q-23 -85 -36 -163q-7 -40 -10 -72t-3 -56q0 -46 6 -91q6 -44 18 -85t33 -66q21 -26 49 -27q55 -2 117 108q61 109 102 258q15 55 21 105q-40 -4 -80 8q-38 12 -58 44q-20 33 -21 75t20 77t60 44q50 11 80 -54t23 -172q27 5 65 31zM329 587
q42 -72 107 -75q7 100 -18 160q-26 60 -63 51q-29 -8 -38 -55t11 -82zM348 841q-14 2 -27 8.5t-24 14.5q-12 11 -21.5 15.5t-19.5 2.5q-6 -1 -11.5 -6t-11.5 -8q-4 -5 -7 -10.5t-7 -11.5q-8 -13 -11 -13q-7 -8 -8 6q-2 16 4 23q23 38 44.5 49t39.5 9q11 0 23.5 -6t28.5 -15
q17 -11 27.5 -14.5t16.5 -2.5q14 -1 25.5 10t16.5 19q9 7 13 -2q3 -7 -4 -17q0 -1 -1 -5.5t-3 -7.5l-8 -8t-5 -6q-2 -2 -7.5 -5.5t-11.5 -8.5q-8 -7 -24.5 -8.5t-26.5 -1.5z" />
    <glyph glyph-name="Odieresis" unicode="&#xd6;" horiz-adv-x="442" 
d="M229 849q-17 -17 -33 -6q-10 13 24 109q17 47 33 47q13 0 27 -11q13 -11 9 -21q-24 -53 -60 -117v-1zM351 846q-14 -14 -33 -2q-13 19 24 109q20 47 33 47q16 0 26 -16q10 -17 0 -39l-20.5 -41.5t-31.5 -58.5zM525 545q11 8 14 -3q2 -8 -6 -14q-14 -11 -57 -27
q-9 -5 -19 -6q-7 -59 -21 -109q-45 -173 -108 -279t-133 -105q-74 1 -130 69q-55 67 -60 218q-3 110 28 225q32 119 97 203q66 86 148 86q55 0 75 -42q3 -7 -4 -7q-5 0 -12 5l-7 7l-10 10q-5 5 -15 8q-11 3 -22 3q-41 0 -78 -60q-38 -60 -60 -144q-23 -85 -36 -163
q-7 -40 -10 -72t-3 -56q0 -46 6 -91q6 -44 18 -85t33 -66q21 -26 49 -27q55 -2 117 108q61 109 102 258q15 55 21 105q-40 -4 -80 8q-38 12 -58 44q-20 33 -21 75t20 77t60 44q50 11 80 -54t23 -172q27 5 65 31zM334 589q42 -72 107 -75q7 100 -18 160q-26 60 -63 51
q-29 -8 -38 -55t11 -82z" />
    <glyph glyph-name="multiply" unicode="&#xd7;" horiz-adv-x="423" 
d="M322 143q7 -21 -14 -27q-30 -7 -58 24l-46 51q-14 -14 -24 -25t-18 -21q-28 -39 -53 -34q-15 3 -6 21q1 2 2 3.5t3 3.5l70 80l-45 50q-30 35 -17 61q10 22 36 10q8 -4 18 -14q3 -3 9.5 -9l16.5 -15t17.5 -16.5l12.5 -12.5l70 73q17 17 23 -4q4 -15 -2 -23
q-26 -35 -63 -75q55 -61 68 -100v-1z" />
    <glyph glyph-name="Oslash" unicode="&#xd8;" horiz-adv-x="443" 
d="M527 542q11 8 14 -3q2 -8 -6 -14q-14 -11 -57 -27q-9 -5 -19 -6q-7 -59 -21 -109q-45 -173 -108 -279t-133 -105q-59 1 -105 41l-8 -21l-12 -30q-1 -2 -2 -5.5t-3 -8.5t-3 -8t-2 -5q-1 -3 -5 -9q-3 -5 -7 -6q-6 -2 -9 -2h-1q0 1 -10 10l3 17q3 14 12 37.5l23 58.5
q-56 73 -61 219q-3 110 28 225q32 119 97 203q66 86 148 86q55 0 75 -42q3 -7 -4 -7q-5 0 -12 5l-7 7l-10 10q-5 5 -15 8q-11 3 -22 3q-41 0 -78 -60q-38 -60 -60 -144q-23 -85 -36 -163q-7 -40 -10 -72t-3 -56q0 -71 11 -132q51 115 99.5 210.5t96.5 173.5l-2 3
q-20 33 -21 75t20 77t60 44q37 9 66 -30q31 40 57 66q24 19 28 2q5 -13 2 -21q-3 -10 -16 -27q-7 -12 -51 -61q22 -60 16 -154q27 5 65 31zM361 721q-29 -8 -38 -54q-9 -47 10 -81q15 23 29 41.5l27 34.5l14 17l10 12q-23 36 -51 30h-1zM441 510q6 84 -10 138l-8 -9
q-17 -20 -33 -42l-32 -46q35 -39 83 -41zM417 385q15 55 21 105q-63 -8 -108 21q-111 -175 -211 -408q27 -83 80 -85q55 -2 117 108q61 109 102 258z" />
    <glyph glyph-name="Ugrave" unicode="&#xd9;" horiz-adv-x="683" 
d="M711 687q10 43 3 70q-8 28 -48 35q-72 15 -121 -79q-49 -93 -100 -312q-29 -122 -27 -222q-134 -165 -204 -140q-24 9 -33 43q-9 36 -2 90t18 106q5 26 12 56l15 65l13.5 60.5t8.5 41.5l7 37l9 47t9 45t6 31t3.5 25.5t3.5 29.5q3 33 -1 48q-4 16 -17 27q-16 14 -45 16
q-27 1 -58 -8q-15 -5 -28.5 -10t-25.5 -10q-24 -11 -42 -21l-3 -3q-14 -9 -5 -12q10 -3 24 6q23 13 55 23q34 10 59 12q24 1 27 -9l-14 -50q-7 -24 -15.5 -56l-19.5 -73t-19.5 -77.5l-16.5 -68.5l-5 -21t-8 -33q-11 -39 -15 -63q-2 -12 -5.5 -28.5t-8.5 -36.5t-7 -37t-3 -31
q-1 -25 -3 -62q-2 -35 6 -57q8 -23 19 -43q12 -21 34 -31q21 -10 52 -10q102 0 220 133q7 -80 35 -131q27 -50 58 -69q63 -41 99 -39q12 1 12 10t-12 12q-23 4 -51 33q-34 32 -46 117q-12 82 -4 189q75 112 132 240q29 64 45.5 111t21.5 77zM532 414q2 8 4 18.5t6 24.5
l19 82q6 27 18 69l10.5 36.5t8.5 26.5q8 23 18 44q11 24 22 32q13 9 25 8q50 -3 -10 -162q-52 -135 -126 -256q-8 -11 -15 -24q7 52 18 99zM445 844l-12 12l-14 14l-17.5 16t-16.5 17q-8 8 -18.5 16.5t-21.5 21.5q-5 6 -4 11.5t6 13.5t9 12t12 6q5 1 9 0t12 -7
q8 -7 15 -16.5t14 -17.5q30 -38 45.5 -62t7.5 -39q-8 -8 -13.5 -5t-15.5 10z" />
    <glyph glyph-name="Uacute" unicode="&#xda;" horiz-adv-x="683" 
d="M709 684q-5 -30 -21.5 -77t-45.5 -111q-57 -128 -132 -240q-8 -107 4 -189q12 -85 46 -117q28 -29 51 -33q12 -3 12 -12t-12 -10q-36 -2 -99 39q-31 19 -58 69q-28 51 -35 131q-118 -133 -220 -133q-31 0 -52 10q-22 10 -34 31q-11 20 -19 43q-8 22 -6 57q2 37 3 62
q1 14 3 31t7 37t8.5 36.5t5.5 28.5q4 24 15 63q5 20 8 33l5 21l16.5 68.5t19.5 77.5l19.5 73t15.5 56l14 50q-3 10 -27 9q-25 -2 -59 -12q-32 -10 -55 -23q-14 -9 -24 -6q-9 3 5 12l3 3q18 10 42 21q12 5 25.5 10t28.5 10q31 9 58 8q29 -2 45 -16q13 -11 17 -27q4 -15 1 -48
q-2 -16 -3.5 -29.5t-3.5 -25.5t-6 -31t-9 -45l-9 -47l-7 -37t-8.5 -41.5l-13.5 -60.5l-15 -65t-12 -56q-11 -52 -18 -106t2 -90q9 -34 33 -43q70 -25 204 140q-2 100 27 222q51 219 100 312q49 94 121 79q40 -7 48 -35q7 -27 -3 -70zM534 416q-11 -47 -18 -99q7 13 15 24
q74 121 126 256q60 159 10 162q-12 1 -25 -8q-11 -8 -22 -32q-10 -21 -18 -44q-4 -11 -8.5 -26.5l-10.5 -36.5q-12 -42 -18 -69l-19 -82q-4 -14 -6 -24.5t-4 -18.5zM431 846q-10 -7 -15.5 -10t-13.5 5q-8 15 7.5 39t45.5 62q7 8 14 17.5t15 16.5q8 6 12 7t9 0q8 -2 12 -6
t9 -12t6 -13.5t-4 -11.5q-11 -13 -21.5 -21.5t-18.5 -16.5q-8 -9 -16.5 -17l-17.5 -16l-14 -14l-12 -12z" />
    <glyph glyph-name="Ucircumflex" unicode="&#xdb;" horiz-adv-x="683" 
d="M321 872q6 4 27 21q22 17 34 24q5 4 12.5 9t18.5 13q21 15 36 27t27 24q10 7 19 6q10 -2 14 -9q1 -2 1 -7q12 -5 12 -9q3 -6 17.5 -31l40.5 -70q2 -2 6 -10q5 -10 5 -13q4 -3 -6 -7q-1 -1 -3 -1q-2 -11 -12 -6q-21 10 -33 27q-10 20 -50 74l-10 10h-14q-36 -17 -72 -44
q-36 -29 -60 -37q-6 0 -6 5zM705 677q-5 -30 -21.5 -77t-45.5 -111q-57 -128 -132 -240q-8 -107 4 -189q12 -85 46 -117q28 -29 51 -33q12 -3 12 -12t-12 -10q-36 -2 -99 39q-31 19 -58 69q-28 51 -35 131q-118 -133 -220 -133q-31 0 -52 10q-22 10 -34 31q-11 20 -19 43
q-8 22 -6 57q2 37 3 62q1 14 3 31t7 37t8.5 36.5t5.5 28.5q4 24 15 63q5 20 8 33l5 21l16.5 68.5t19.5 77.5l19.5 73t15.5 56l14 50q-3 10 -27 9q-25 -2 -59 -12q-32 -10 -55 -23q-14 -9 -24 -6q-9 3 5 12l3 3q18 10 42 21q12 5 25.5 10t28.5 10q31 9 58 8q29 -2 45 -16
q13 -11 17 -27q4 -15 1 -48q-2 -16 -3.5 -29.5t-3.5 -25.5t-6 -31t-9 -45l-9 -47l-7 -37t-8.5 -41.5l-13.5 -60.5l-15 -65t-12 -56q-11 -52 -18 -106t2 -90q9 -34 33 -43q70 -25 204 140q-2 100 27 222q51 219 100 312q49 94 121 79q40 -7 48 -35q7 -27 -3 -70zM530 409
q-11 -47 -18 -99q7 13 15 24q74 121 126 256q60 159 10 162q-12 1 -25 -8q-11 -8 -22 -32q-10 -21 -18 -44q-4 -11 -8.5 -26.5l-10.5 -36.5q-12 -42 -18 -69l-19 -82q-4 -14 -6 -24.5t-4 -18.5z" />
    <glyph glyph-name="Udieresis" unicode="&#xdc;" horiz-adv-x="683" 
d="M397 838q-17 -17 -33 -6q-10 13 24 109q17 47 33 47q13 0 27 -11q13 -11 9 -21q-24 -53 -60 -117v-1zM519 835q-14 -14 -33 -2q-13 19 24 109q20 47 33 47q16 0 26 -16q10 -17 0 -39l-20.5 -41.5t-31.5 -58.5zM708 681q-5 -30 -21.5 -77t-45.5 -111q-57 -128 -132 -240
q-8 -107 4 -189q12 -85 46 -117q28 -29 51 -33q12 -3 12 -12t-12 -10q-36 -2 -99 39q-31 19 -58 69q-28 51 -35 131q-118 -133 -220 -133q-31 0 -52 10q-22 10 -34 31q-11 20 -19 43q-8 22 -6 57q2 37 3 62q1 14 3 31t7 37t8.5 36.5t5.5 28.5q4 24 15 63q5 20 8 33l5 21
l16.5 68.5t19.5 77.5l19.5 73t15.5 56l14 50q-3 10 -27 9q-25 -2 -59 -12q-32 -10 -55 -23q-14 -9 -24 -6q-9 3 5 12l3 3q18 10 42 21q12 5 25.5 10t28.5 10q31 9 58 8q29 -2 45 -16q13 -11 17 -27q4 -15 1 -48q-2 -16 -3.5 -29.5t-3.5 -25.5t-6 -31t-9 -45l-9 -47l-7 -37
t-8.5 -41.5l-13.5 -60.5l-15 -65t-12 -56q-11 -52 -18 -106t2 -90q9 -34 33 -43q70 -25 204 140q-2 100 27 222q51 219 100 312q49 94 121 79q40 -7 48 -35q7 -27 -3 -70zM533 413q-11 -47 -18 -99q7 13 15 24q74 121 126 256q60 159 10 162q-12 1 -25 -8q-11 -8 -22 -32
q-10 -21 -18 -44q-4 -11 -8.5 -26.5l-10.5 -36.5q-12 -42 -18 -69l-19 -82q-4 -14 -6 -24.5t-4 -18.5z" />
    <glyph glyph-name="Yacute" unicode="&#xdd;" horiz-adv-x="563" 
d="M494 692q15 76 65 105q40 24 67 -7q24 -27 18 -89q-11 -116 -108 -254q-41 -440 -190 -543q-46 -31 -94 -27t-66 39q-19 32 -7 70q12 37 55 67q32 22 76 48t101 56q6 28 14 72.5t18 107.5q-79 -71 -141 -82q-99 -16 -132 35t-15 161q10 100 36 210q10 37 6 82
q-5 45 -28 45q-28 0 -82 -24q-27 -12 -44.5 -21t-25.5 -14q-14 -9 -24 -6q-6 1 9 13q18 13 61 36q44 23 73 31q9 2 16.5 4t13.5 4q12 3 33 3t35 -6t26 -21q13 -16 17 -41q3 -22 -5 -117q-8 -93 -15 -129q-1 -7 -3 -16.5l-5 -23.5q-6 -27 -9 -45q-3 -19 -6 -43q-3 -26 0 -42
q3 -17 10 -31q7 -15 23 -21q15 -6 39 -3q58 8 143 99q4 26 8 57.5l9 68.5l9 67.5t8 54.5l7 42.5l5 31.5zM628 696q7 57 -15 70q-21 12 -39 -25q-12 -22 -18 -59q-1 -2 -4.5 -49.5t-11.5 -141.5q80 125 89 204zM328 -68q41 34 77 199q-35 -17 -74 -40t-81 -54
q-62 -44 -51 -90q7 -34 44 -42q42 -8 84 27h1zM387 846q-10 -7 -15.5 -10t-13.5 5q-8 15 7.5 39t45.5 62q7 8 14 17.5t15 16.5q8 6 12 7t9 0q8 -2 12 -6t9 -12t6 -13.5t-4 -11.5q-11 -13 -21.5 -21.5t-18.5 -16.5q-8 -9 -16.5 -17l-17.5 -16l-14 -14l-12 -12z" />
    <glyph glyph-name="germandbls" unicode="&#xdf;" horiz-adv-x="346" 
d="M-111 -259q-22 -6 -20 6q1 13 17 18q18 5 27 11q9 5 24 22q16 18 27 56q5 19 10 43t10 53q3 23 9 91q3 35 6.5 68.5t7.5 65.5q8 66 21 149q13 84 33 153q20 71 45 131q26 62 65 98q40 37 86 38q63 1 82 -63t-9 -133q-23 -64 -60 -98q-38 -35 -72 -45q54 0 99 -56t35 -153
q-11 -101 -73 -153q-63 -53 -131 -33q-22 6 -33 23t-11 35q0 14 9 17t15 -11q6 -16 14 -24t26 -14q32 -11 65 36q34 47 44 126q11 74 -12 128t-69 54q-41 0 -38 16q1 9 18 18q29 15 59 53q31 39 47 87q13 37 17 75q4 40 0 70q-5 30 -21 29q-86 -5 -146 -313
q-29 -144 -72 -495q-17 -144 -149 -179h-2z" />
    <glyph glyph-name="agrave" unicode="&#xe0;" horiz-adv-x="459" 
d="M90 -8q12 1 25 8q13 6 23 18l9.5 11.5l8.5 10.5q7 10 18 30q5 10 9 17t6 12t6 13t9 19t8 18.5t5 10.5q5 11 14 11q6 0 6 -8v-51q0 -6 0.5 -15.5t1.5 -22.5q2 -23 12 -44q11 -22 28 -29q31 -16 72 -1q40 15 72 62q28 43 75 168q9 25 9 30q0 8 -7 8q-5 1 -6 0
q-9 -9 -12 -22q-20 -68 -66 -141q-47 -74 -83 -63q-18 4 -18 27v77.5t1 54.5q0 79 -3 120q0 6 -8 24q-12 15 -27 0q-3 -3 -7 -9q-4 -5 -5 -11q-2 -8 -3 -11q-1 -4 -3 -14q-1 -5 -1.5 -9t-1.5 -8q-1 -2 -2.5 -4.5t-3.5 -6.5l-6 -12l-19 -36.5l-17 -30.5q-8 -12 -24 -45
q-8 -17 -14 -28l-10 -18q-6 -12 -21 -31q-14 -19 -27 -29q-11 -8 -25 -5q-15 3 -18 18q-14 51 -2 132q12 83 49 136q45 64 94 48q11 -3 3 -35t6 -32q7 0 13 6q12 19 12 47q0 16 -9 28q-9 11 -24 13q-39 6 -81 -18q-43 -24 -69 -61q-53 -71 -68 -156q-15 -86 7 -138
q12 -22 36 -34q25 -12 46 -8zM257 451l-12 12l-14 14l-17.5 16t-16.5 17q-8 8 -18.5 16.5t-21.5 21.5q-5 6 -4 11.5t6 13.5t9 12t12 6q5 1 9 0t12 -7q8 -7 15 -16.5t14 -17.5q30 -38 45.5 -62t7.5 -39q-8 -8 -13.5 -5t-15.5 10z" />
    <glyph glyph-name="aacute" unicode="&#xe1;" horiz-adv-x="459" 
d="M87 -13q-21 -4 -46 8q-24 12 -36 34q-22 52 -7 138q15 85 68 156q26 37 69 61q42 24 81 18q15 -2 24 -13q9 -12 9 -28q0 -28 -12 -47q-6 -6 -13 -6q-14 0 -6 32t-3 35q-49 16 -94 -48q-37 -53 -49 -136q-12 -81 2 -132q3 -15 18 -18q14 -3 25 5q13 10 27 29q15 19 21 31
l10 18t14 28q16 33 24 45l17 30.5l19 36.5l6 12q2 4 3.5 6.5t2.5 4.5q1 4 1.5 8t1.5 9q2 10 3 14q1 3 3 11q1 6 5 11q4 6 7 9q15 15 27 0q8 -18 8 -24q3 -41 3 -120q-1 -22 -1 -54.5v-77.5q0 -23 18 -27q36 -11 83 63q46 73 66 141q3 13 12 22q1 1 6 0q7 0 7 -8q0 -5 -9 -30
q-47 -125 -75 -168q-32 -47 -72 -62q-41 -15 -72 1q-17 7 -28 29q-10 21 -12 44q-1 13 -1.5 22.5t-0.5 15.5v51q0 8 -6 8q-9 0 -14 -11q-2 -3 -5 -10.5t-8 -18.5t-9 -19t-6 -13t-6 -12t-9 -17q-11 -20 -18 -30l-8.5 -10.5l-9.5 -11.5q-10 -12 -23 -18q-13 -7 -25 -8z
M229 463q-10 -7 -15.5 -10t-13.5 5q-8 15 7.5 39t45.5 62q7 8 14 17.5t15 16.5q8 6 12 7t9 0q8 -2 12 -6t9 -12t6 -13.5t-4 -11.5q-11 -13 -21.5 -21.5t-18.5 -16.5q-8 -9 -16.5 -17l-17.5 -16l-14 -14l-12 -12z" />
    <glyph glyph-name="acircumflex" unicode="&#xe2;" horiz-adv-x="459" 
d="M83 -21q-21 -4 -46 8q-24 12 -36 34q-22 52 -7 138q15 85 68 156q26 37 69 61q42 24 81 18q15 -2 24 -13q9 -12 9 -28q0 -28 -12 -47q-6 -6 -13 -6q-14 0 -6 32t-3 35q-49 16 -94 -48q-37 -53 -49 -136q-12 -81 2 -132q3 -15 18 -18q14 -3 25 5q13 10 27 29q15 19 21 31
l10 18t14 28q16 33 24 45l17 30.5l19 36.5l6 12q2 4 3.5 6.5t2.5 4.5q1 4 1.5 8t1.5 9q2 10 3 14q1 3 3 11q1 6 5 11q4 6 7 9q15 15 27 0q8 -18 8 -24q3 -41 3 -120q-1 -22 -1 -54.5v-77.5q0 -23 18 -27q36 -11 83 63q46 73 66 141q3 13 12 22q1 1 6 0q7 0 7 -8q0 -5 -9 -30
q-47 -125 -75 -168q-32 -47 -72 -62q-41 -15 -72 1q-17 7 -28 29q-10 21 -12 44q-1 13 -1.5 22.5t-0.5 15.5v51q0 8 -6 8q-9 0 -14 -11q-2 -3 -5 -10.5t-8 -18.5t-9 -19t-6 -13t-6 -12t-9 -17q-11 -20 -18 -30l-8.5 -10.5l-9.5 -11.5q-10 -12 -23 -18q-13 -7 -25 -8z
M303 428q-8 4 -15.5 9.5t-12.5 13.5q-6 11 -18 27l-29 40q-2 2 -2.5 3t-1.5 2q-2 2 -3 2q-2 2 -2 3l4 -2q-14 -11 -27 -24l-26 -27q-14 -16 -26 -26.5t-21 -15.5q-2 0 -6 1.5t-4 3.5l-3 7q2 3 7 8.5l13 14.5l14 15.5t12 10.5l9.5 11.5l12.5 14.5q8 8 15 16t12 15q6 6 11 12
t9 13q6 9 15 9q7 -1 12 -8q0 -2 2.5 -3.5t4.5 -3.5q5 -2 5.5 -4t0.5 -4q2 -5 16 -28l39 -65q0 -1 5 -8q6 -9 6 -12q3 -3 -5 -8l-2 -2q0 -5 -7.5 -6.5t-12.5 0.5z" />
    <glyph glyph-name="atilde" unicode="&#xe3;" horiz-adv-x="459" 
d="M81 -18q-21 -4 -46 8q-24 12 -36 34q-22 52 -7 138q15 85 68 156q26 37 69 61q42 24 81 18q15 -2 24 -13q9 -12 9 -28q0 -28 -12 -47q-6 -6 -13 -6q-14 0 -6 32t-3 35q-49 16 -94 -48q-37 -53 -49 -136q-12 -81 2 -132q3 -15 18 -18q14 -3 25 5q13 10 27 29q15 19 21 31
l10 18t14 28q16 33 24 45l17 30.5l19 36.5l6 12q2 4 3.5 6.5t2.5 4.5q1 4 1.5 8t1.5 9q2 10 3 14q1 3 3 11q1 6 5 11q4 6 7 9q15 15 27 0q8 -18 8 -24q3 -41 3 -120q-1 -22 -1 -54.5v-77.5q0 -23 18 -27q36 -11 83 63q46 73 66 141q3 13 12 22q1 1 6 0q7 0 7 -8q0 -5 -9 -30
q-47 -125 -75 -168q-32 -47 -72 -62q-41 -15 -72 1q-17 7 -28 29q-10 21 -12 44q-1 13 -1.5 22.5t-0.5 15.5v51q0 8 -6 8q-9 0 -14 -11q-2 -3 -5 -10.5t-8 -18.5t-9 -19t-6 -13t-6 -12t-9 -17q-11 -20 -18 -30l-8.5 -10.5l-9.5 -11.5q-10 -12 -23 -18q-13 -7 -25 -8z
M256 461q-14 2 -27 8.5t-24 14.5q-12 11 -21.5 15.5t-19.5 2.5q-6 -1 -11.5 -6t-11.5 -8q-4 -5 -7 -10.5t-7 -11.5q-8 -13 -11 -13q-7 -8 -8 6q-2 16 4 23q23 38 44.5 49t39.5 9q11 0 23.5 -6t28.5 -15q17 -11 27.5 -14.5t16.5 -2.5q14 -1 25.5 10t16.5 19q9 7 13 -2
q3 -7 -4 -17q0 -1 -1 -5.5t-3 -7.5l-8 -8t-5 -6q-2 -2 -7.5 -5.5t-11.5 -8.5q-8 -7 -24.5 -8.5t-26.5 -1.5z" />
    <glyph glyph-name="adieresis" unicode="&#xe4;" horiz-adv-x="459" 
d="M138 472q-10 13 24 109q17 47 33 47q13 0 27 -11q13 -11 9 -21q-24 -53 -60 -117q-17 -17 -33 -6v-1zM260 473q-13 19 24 109q20 47 33 47q16 0 26 -16q10 -17 0 -39l-20.5 -41.5t-31.5 -58.5q-14 -14 -33 -2zM86 -16q-21 -4 -46 8q-24 12 -36 34q-22 52 -7 138
q15 85 68 156q26 37 69 61q42 24 81 18q15 -2 24 -13q9 -12 9 -28q0 -28 -12 -47q-6 -6 -13 -6q-14 0 -6 32t-3 35q-49 16 -94 -48q-37 -53 -49 -136q-12 -81 2 -132q3 -15 18 -18q14 -3 25 5q13 10 27 29q15 19 21 31l10 18t14 28q16 33 24 45l17 30.5l19 36.5l6 12
q2 4 3.5 6.5t2.5 4.5q1 4 1.5 8t1.5 9q2 10 3 14q1 3 3 11q1 6 5 11q4 6 7 9q15 15 27 0q8 -18 8 -24q3 -41 3 -120q-1 -22 -1 -54.5v-77.5q0 -23 18 -27q36 -11 83 63q46 73 66 141q3 13 12 22q1 1 6 0q7 0 7 -8q0 -5 -9 -30q-47 -125 -75 -168q-32 -47 -72 -62
q-41 -15 -72 1q-17 7 -28 29q-10 21 -12 44q-1 13 -1.5 22.5t-0.5 15.5v51q0 8 -6 8q-9 0 -14 -11q-2 -3 -5 -10.5t-8 -18.5t-9 -19t-6 -13t-6 -12t-9 -17q-11 -20 -18 -30l-8.5 -10.5l-9.5 -11.5q-10 -12 -23 -18q-13 -7 -25 -8z" />
    <glyph glyph-name="aring" unicode="&#xe5;" horiz-adv-x="459" 
d="M255 495q-21 -9 -49 -3t-45 23q-24 27 -12 64q17 57 76 81q10 4 33 12q17 -2 27 -13q10 -12 9 -27q0 -2 -4 -6l-3 -3q-8 4 -9 6q-6 15 -7 16q-11 8 -17 5q-33 -13 -49 -49q-9 -20 -5 -60q0 -14 18 -21q24 -10 40 9q37 47 38 78q0 17 11 15q11 -1 10 -16q0 -22 -3 -28
q-8 -14 -21 -33.5l-30 -45.5q-3 -4 -8 -6v2zM84 -14q-21 -4 -46 8q-24 12 -36 34q-22 52 -7 138q15 85 68 156q26 37 69 61q42 24 81 18q15 -2 24 -13q9 -12 9 -28q0 -28 -12 -47q-6 -6 -13 -6q-14 0 -6 32t-3 35q-49 16 -94 -48q-37 -53 -49 -136q-12 -81 2 -132
q3 -15 18 -18q14 -3 25 5q13 10 27 29q15 19 21 31l10 18t14 28q16 33 24 45l17 30.5l19 36.5l6 12q2 4 3.5 6.5t2.5 4.5q1 4 1.5 8t1.5 9q2 10 3 14q1 3 3 11q1 6 5 11q4 6 7 9q15 15 27 0q8 -18 8 -24q3 -41 3 -120q-1 -22 -1 -54.5v-77.5q0 -23 18 -27q36 -11 83 63
q46 73 66 141q3 13 12 22q1 1 6 0q7 0 7 -8q0 -5 -9 -30q-47 -125 -75 -168q-32 -47 -72 -62q-41 -15 -72 1q-17 7 -28 29q-10 21 -12 44q-1 13 -1.5 22.5t-0.5 15.5v51q0 8 -6 8q-9 0 -14 -11q-2 -3 -5 -10.5t-8 -18.5t-9 -19t-6 -13t-6 -12t-9 -17q-11 -20 -18 -30
l-8.5 -10.5l-9.5 -11.5q-10 -12 -23 -18q-13 -7 -25 -8z" />
    <glyph glyph-name="ae" unicode="&#xe6;" horiz-adv-x="521" 
d="M560 246q3 -4 1 -13q-3 -9 -12 -27q-5 -9 -8 -16l-5 -12q-21 -50 -33 -69q-35 -54 -64 -81q-30 -29 -75 -39q-15 -5 -43 -2q-30 3 -48 15q-20 12 -33 46q-16 45 -6 112q0 8 -6 8q-9 0 -14 -11q-2 -3 -5 -10.5t-8 -18.5t-9 -19t-6 -13t-6 -12t-9 -17q-11 -20 -18 -30
l-8.5 -10.5l-9.5 -11.5q-10 -12 -23 -18q-13 -7 -25 -8q-21 -4 -46 8q-24 12 -36 34q-22 52 -7 138q15 85 68 156q26 37 69 61q42 24 81 18q15 -2 24 -13q9 -12 9 -28q0 -28 -12 -47q-6 -6 -13 -6q-14 0 -6 32t-3 35q-49 16 -94 -48q-37 -53 -49 -136q-12 -81 2 -132
q3 -15 18 -18q14 -3 25 5q13 10 27 29q15 19 21 31l10 18t14 28q16 33 24 45q21 34 36 66l3 9q2 6 3 8l3 6q2 4 3 5l3 3q2 2 3 2h3q4 0 6 -12q33 57 66 81q70 49 108 12q20 -18 14 -43t-21 -46q-8 -11 -17.5 -20.5t-20.5 -19.5q-44 -39 -81 -63q-13 -11 -14 -27v-41.5
t1 -22.5q0 -20 9 -39t23 -25q39 -15 90 35q52 50 86 120q6 12 12 27t9 24t6 12q10 10 16 3zM311 241q-9 -22 -1 -27q13 -9 62 32l5.5 5.5t9.5 8.5t10 9l6 6t5 5.5l7 8.5q7 9 12 18q9 17 6 32q-3 16 -16 23q-18 9 -36 -2t-30 -30q-23 -32 -39 -87z" />
    <glyph glyph-name="ccedilla" unicode="&#xe7;" horiz-adv-x="319" 
d="M359 243q3 -4 -1 -26q-11 -35 -45 -96q-35 -62 -66 -81q-36 -32 -57 -40l1 -1q5 -2 5 -7q1 -9 0 -13q-5 -8 -7 -19q-3 -10 4 -16l5 -2.5t8 -3.5q10 -5 13 -7q28 -28 25 -66t-27 -60q-16 -13 -39 -16q-22 -3 -45 8q-36 25 -36 72q3 5 9 5l2 -1q2 -2 2 -3q0 -14 1 -18
q12 -35 38 -35t41 27q19 26 19 51q2 17 -12 23q-11 9 -22 1q-4 -4 -8 -6q-5 -5 -12 -3q-14 10 -9 27q13 37 30 60q-9 -2 -27 -3q-50 -5 -93 21q-34 20 -47 69q-25 88 11 164l14.5 28.5l12.5 23.5t15.5 23t22.5 26q25 28 57 45q27 13 49 12q19 -2 35 -17q15 -16 14 -35
q-2 -18 -9 -27q-8 -8 -12 -6q-5 3 -4 16q7 25 0 30q-15 10 -43 -3q-32 -17 -54 -72q-23 -56 -30 -114q-10 -94 24 -124q48 -43 112 6q31 22 67 81q37 60 41 81q13 28 22 19z" />
    <glyph glyph-name="egrave" unicode="&#xe8;" horiz-adv-x="287" 
d="M131 -6q45 10 75 39q29 27 64 81q12 19 33 69l5 12t8 16q9 18 12 27q2 9 -1 13q-6 7 -16 -3q-3 -3 -6 -12t-9 -24t-12 -27q-34 -70 -86 -120q-51 -50 -90 -35q-14 6 -23 25t-9 39q-1 7 -1 22.5v41.5q1 16 14 27q37 24 81 63q11 10 20.5 19.5t17.5 20.5q15 21 21 46
t-14 43q-38 37 -108 -12q-21 -15 -46 -50q-12 -17 -21 -33t-16 -32q-48 -118 -19 -201q13 -34 33 -46q18 -12 48 -15q28 -3 43 2zM76 217q-8 5 1 27q16 55 39 87q12 19 30 30t36 2q13 -7 16 -23q3 -15 -6 -32q-5 -9 -12 -18l-7 -8.5t-5 -5.5l-6 -6t-10 -9t-9.5 -8.5
l-5.5 -5.5q-49 -41 -62 -32zM189 446l-12 12l-14 14l-17.5 16t-16.5 17q-8 8 -18.5 16.5t-21.5 21.5q-5 6 -4 11.5t6 13.5t9 12t12 6q5 1 9 0t12 -7q8 -7 15 -16.5t14 -17.5q30 -38 45.5 -62t7.5 -39q-8 -8 -13.5 -5t-15.5 10z" />
    <glyph glyph-name="eacute" unicode="&#xe9;" horiz-adv-x="287" 
d="M133 -6q-15 -5 -43 -2q-30 3 -48 15q-20 12 -33 46q-29 83 19 201q7 16 16 32t21 33q25 35 46 50q70 49 108 12q20 -18 14 -43t-21 -46q-8 -11 -17.5 -20.5t-20.5 -19.5q-44 -39 -81 -63q-13 -11 -14 -27v-41.5t1 -22.5q0 -20 9 -39t23 -25q39 -15 90 35q52 50 86 120
q6 12 12 27t9 24t6 12q10 10 16 3q3 -4 1 -13q-3 -9 -12 -27q-5 -9 -8 -16l-5 -12q-21 -50 -33 -69q-35 -54 -64 -81q-30 -29 -75 -39zM79 219q13 -9 62 32l5.5 5.5t9.5 8.5t10 9l6 6t5 5.5l7 8.5q7 9 12 18q9 17 6 32q-3 16 -16 23q-18 9 -36 -2t-30 -30q-23 -32 -39 -87
q-9 -22 -1 -27zM158 453q-10 -7 -15.5 -10t-13.5 5q-8 15 7.5 39t45.5 62q7 8 14 17.5t15 16.5q8 6 12 7t9 0q8 -2 12 -6t9 -12t6 -13.5t-4 -11.5q-11 -13 -21.5 -21.5t-18.5 -16.5q-8 -9 -16.5 -17l-17.5 -16l-14 -14l-12 -12z" />
    <glyph glyph-name="ecircumflex" unicode="&#xea;" horiz-adv-x="287" 
d="M253 419q-8 4 -15.5 9.5t-12.5 13.5q-6 11 -18 27l-29 40q-2 2 -2.5 3t-1.5 2q-2 2 -3 2q-2 2 -2 3l4 -2q-14 -11 -27 -24l-26 -27q-14 -16 -26 -26.5t-21 -15.5q-2 0 -6 1.5t-4 3.5l-3 7q2 3 7 8.5l13 14.5l14 15.5t12 10.5l9.5 11.5l12.5 14.5q8 8 15 16t12 15
q6 6 11 12t9 13q6 9 15 9q7 -1 12 -8q0 -2 2.5 -3.5t4.5 -3.5q5 -2 5.5 -4t0.5 -4q2 -5 16 -28l39 -65q0 -1 5 -8q6 -9 6 -12q3 -3 -5 -8l-2 -2q0 -5 -7.5 -6.5t-12.5 0.5zM129 -14q-15 -5 -43 -2q-30 3 -48 15q-20 12 -33 46q-29 83 19 201q7 16 16 32t21 33q25 35 46 50
q70 49 108 12q20 -18 14 -43t-21 -46q-8 -11 -17.5 -20.5t-20.5 -19.5q-44 -39 -81 -63q-13 -11 -14 -27v-41.5t1 -22.5q0 -20 9 -39t23 -25q39 -15 90 35q52 50 86 120q6 12 12 27t9 24t6 12q10 10 16 3q3 -4 1 -13q-3 -9 -12 -27q-5 -9 -8 -16l-5 -12q-21 -50 -33 -69
q-35 -54 -64 -81q-30 -29 -75 -39zM75 211q13 -9 62 32l5.5 5.5t9.5 8.5t10 9l6 6t5 5.5l7 8.5q7 9 12 18q9 17 6 32q-3 16 -16 23q-18 9 -36 -2t-30 -30q-23 -32 -39 -87q-9 -22 -1 -27z" />
    <glyph glyph-name="edieresis" unicode="&#xeb;" horiz-adv-x="287" 
d="M94 451q-10 13 24 109q17 47 33 47q13 0 27 -11q13 -11 9 -21q-24 -53 -60 -117q-17 -17 -33 -6v-1zM216 452q-13 19 24 109q20 47 33 47q16 0 26 -16q10 -17 0 -39l-20.5 -41.5t-31.5 -58.5q-14 -14 -33 -2zM132 -9q-15 -5 -43 -2q-30 3 -48 15q-20 12 -33 46
q-29 83 19 201q7 16 16 32t21 33q25 35 46 50q70 49 108 12q20 -18 14 -43t-21 -46q-8 -11 -17.5 -20.5t-20.5 -19.5q-44 -39 -81 -63q-13 -11 -14 -27v-41.5t1 -22.5q0 -20 9 -39t23 -25q39 -15 90 35q52 50 86 120q6 12 12 27t9 24t6 12q10 10 16 3q3 -4 1 -13
q-3 -9 -12 -27q-5 -9 -8 -16l-5 -12q-21 -50 -33 -69q-35 -54 -64 -81q-30 -29 -75 -39zM78 216q13 -9 62 32l5.5 5.5t9.5 8.5t10 9l6 6t5 5.5l7 8.5q7 9 12 18q9 17 6 32q-3 16 -16 23q-18 9 -36 -2t-30 -30q-23 -32 -39 -87q-9 -22 -1 -27z" />
    <glyph glyph-name="igrave" unicode="&#xec;" horiz-adv-x="233" 
d="M99 -5q83 15 153 196q1 6 6 15q4 9 6 15q4 12 -3 15q-8 3 -12 -9q-14 -39 -39 -86q-26 -49 -39 -65q-37 -46 -63 -46q-11 0 -20 9t-8 28q1 22 24 144q21 115 21 151q0 19 -15 28t-33 1q-5 -1 -13 -20q-2 -11 -15 -74l-21 -99q-2 -11 -6.5 -33t-10.5 -55q-12 -65 12 -95
t78 -20h-2zM116 446l-12 12l-14 14l-17.5 16t-16.5 17q-8 8 -18.5 16.5t-21.5 21.5q-5 6 -4 11.5t6 13.5t9 12t12 6q5 1 9 0t12 -7q8 -7 15 -16.5t14 -17.5q30 -38 45.5 -62t7.5 -39q-8 -8 -13.5 -5t-15.5 10z" />
    <glyph glyph-name="iacute" unicode="&#xed;" horiz-adv-x="233" 
d="M105 -1q-54 -10 -78 20t-12 95q6 33 10.5 55t6.5 33l21 99q13 63 15 74q8 19 13 20q18 8 33 -1t15 -28q0 -36 -21 -151q-23 -122 -24 -144q-1 -19 8 -28t20 -9q26 0 63 46q13 16 39 65q25 47 39 86q4 12 12 9q7 -3 3 -15q-2 -6 -6 -15q-5 -9 -6 -15q-70 -181 -153 -196h2
zM118 453q-10 -7 -15.5 -10t-13.5 5q-8 15 7.5 39t45.5 62q7 8 14 17.5t15 16.5q8 6 12 7t9 0q8 -2 12 -6t9 -12t6 -13.5t-4 -11.5q-11 -13 -21.5 -21.5t-18.5 -16.5q-8 -9 -16.5 -17l-17.5 -16l-14 -14l-12 -12z" />
    <glyph glyph-name="icircumflex" unicode="&#xee;" horiz-adv-x="233" 
d="M228 468q-21 10 -33 27q-10 20 -50 74q-2 2 -2.5 3t-1.5 2l-3 3l-3 3h-14q-36 -17 -72 -44q-36 -29 -60 -37q-6 0 -6 5l-3 8q6 4 27 21q22 17 34 24q5 4 12.5 9t18.5 13q21 15 36 27t27 24q10 7 19 6q10 -2 14 -9q1 -2 1 -7q12 -5 12 -9q3 -6 17.5 -31l40.5 -70
q2 -2 6 -10q5 -10 5 -13q4 -3 -6 -7q-1 -1 -3 -1q-2 -11 -12 -6zM101 -9q-54 -10 -78 20t-12 95q6 33 10.5 55t6.5 33l21 99q13 63 15 74q8 19 13 20q18 8 33 -1t15 -28q0 -36 -21 -151q-23 -122 -24 -144q-1 -19 8 -28t20 -9q26 0 63 46q13 16 39 65q25 47 39 86q4 12 12 9
q7 -3 3 -15q-2 -6 -6 -15q-5 -9 -6 -15q-70 -181 -153 -196h2z" />
    <glyph glyph-name="idieresis" unicode="&#xef;" horiz-adv-x="233" 
d="M25 472q-10 13 24 109q17 47 33 47q13 0 27 -11q13 -11 9 -21q-24 -53 -60 -117q-17 -17 -33 -6v-1zM147 473q-13 19 24 109q20 47 33 47q16 0 26 -16q10 -17 0 -39l-20.5 -41.5t-31.5 -58.5q-14 -14 -33 -2zM104 -4q-54 -10 -78 20t-12 95q6 33 10.5 55t6.5 33l21 99
q13 63 15 74q8 19 13 20q18 8 33 -1t15 -28q0 -36 -21 -151q-23 -122 -24 -144q-1 -19 8 -28t20 -9q26 0 63 46q13 16 39 65q25 47 39 86q4 12 12 9q7 -3 3 -15q-2 -6 -6 -15q-5 -9 -6 -15q-70 -181 -153 -196h2z" />
    <glyph glyph-name="ntilde" unicode="&#xf1;" horiz-adv-x="432" 
d="M245 482q-43 9 -74 29t-59 20q-20 0 -36 -6q-14 -5 -31 -17q-14 -10 -16 -10q-13 -7 -13 6q0 16 11 21q91 61 147 54q36 -5 78 -28q45 -25 63 -26q48 -5 72 9q11 6 14 -3t-9 -15q-2 -2 -12 -9q-9 -7 -20 -12q-7 -4 -28 -10q-20 -6 -37 -6q-9 0 -21 1.5t-26 3.5zM302 -9
q-56 10 -66 63q-8 36 -3 75q2 20 7.5 46.5t14.5 61.5q19 64 15 81q0 13 -9 18q-9 4 -19 0q-31 -24 -61 -62q-9 -9 -73 -117l-8.5 -21l-17.5 -45q-2 -3 -15 -61q-5 -23 -15 -36q-6 -10 -22 -10t-24 11q-9 10 -9 21q0 10 3 25q2 11 4 25.5t6 34.5q7 39 9 57q22 181 30 216
q4 28 30 25q35 -2 35 -27v-25.5t-1 -31.5t-1 -30.5v-23.5q0 -32 17 -15q12 10 30 36q17 24 26 33q26 33 42 44q16 12 48 21q15 4 30 -6q16 -11 23 -27q9 -19 1 -105q-1 -8 -3.5 -24t-7.5 -39t-7.5 -40.5t-3.5 -28.5q-6 -75 16 -78q7 -1 15 2q7 3 15 11q4 4 7 7.5t6 6.5
q5 5 13 18q4 6 6.5 10.5t4.5 7.5l9 18l7 12q7 14 27 68q10 26 15 41t7 19q5 9 12 2q2 -2 2 -6q0 -2 1 -3q1 -2 0 -3q-13 -46 -21 -72t-11 -33q-31 -75 -53 -102q-12 -15 -38 -31q-24 -15 -41 -12z" />
    <glyph glyph-name="ograve" unicode="&#xf2;" 
d="M121 2l15 9q7 4 15 14l12 15q4 6 12 21l6.5 13t4.5 8t4.5 9t7.5 16t7.5 16t3.5 8t9 22t15 32q8 14 12 17q61 13 117 75q4 7 3 9q0 7 -2 7q-6 7 -13 0q-1 -1 -3 -2.5t-5 -4.5l-6 -6t-6 -5q-42 -36 -77 -39q-2 1 0 9l3 21q1 7 1 13v11q0 28 -12 48q-6 11 -12 14
q-7 3 -17 18q-11 18 -30 24q-9 3 -30 1q-43 -4 -73 -36q-38 -38 -54 -78q-8 -20 -15.5 -43.5t-13.5 -50.5q-12 -77 5 -132q11 -37 45 -53t67 0h4zM104 30q-14 -2 -23 21q-10 24 -11 39q-6 77 9 152q25 121 90 132q6 1 12 -5q5 -6 7 -10q1 -5 3 -6q-42 -21 -35 -79
q2 -20 15 -38q14 -19 34 -26q11 -5 2 -25q-11 -27 -24 -54t-29 -55q-23 -41 -48 -45zM226 243q-4 -1 -12 5q-4 3 -7 6l-5 5q-17 26 -11 58q3 15 19 18q8 2 15 -4q8 -6 9 -16q3 -14 3 -28q0 -10 -3 -26q-3 -17 -7 -18h-1zM194 446l-12 12l-14 14l-17.5 16t-16.5 17
q-8 8 -18.5 16.5t-21.5 21.5q-5 6 -4 11.5t6 13.5t9 12t12 6q5 1 9 0t12 -7q8 -7 15 -16.5t14 -17.5q30 -38 45.5 -62t7.5 -39q-8 -8 -13.5 -5t-15.5 10z" />
    <glyph glyph-name="oacute" unicode="&#xf3;" 
d="M121 6q-33 -16 -67 0t-45 53q-17 55 -5 132q6 27 13.5 50.5t15.5 43.5q16 40 54 78q30 32 73 36q21 2 30 -1q19 -6 30 -24q10 -15 17 -18q6 -3 12 -14q12 -20 12 -48v-11t-1 -13l-3 -21q-2 -8 0 -9q35 3 77 39q3 2 6 5l6 6t5 4.5t3 2.5q7 7 13 0q2 0 2 -7q1 -2 -3 -9
q-56 -62 -117 -75q-4 -3 -12 -17q-7 -12 -15 -32t-9 -22t-3.5 -8t-7.5 -16t-7.5 -16t-4.5 -9t-4.5 -8l-6.5 -13q-8 -15 -12 -21l-12 -15q-8 -10 -15 -14l-15 -9h-4zM110 35q25 4 48 45q16 28 29 55t24 54q9 20 -2 25q-20 7 -34 26q-13 18 -15 38q-7 58 35 79q-2 1 -3 6
q-2 4 -7 10q-6 6 -12 5q-65 -11 -90 -132q-15 -75 -9 -152q1 -15 11 -39q9 -23 23 -21zM231 247q4 1 7 18q3 16 3 26q0 14 -3 28q-1 10 -9 16q-7 6 -15 4q-16 -3 -19 -18q-6 -32 11 -58l5 -5t7 -6q8 -6 12 -5h1zM181 453q-10 -7 -15.5 -10t-13.5 5q-8 15 7.5 39t45.5 62
q7 8 14 17.5t15 16.5q8 6 12 7t9 0q8 -2 12 -6t9 -12t6 -13.5t-4 -11.5q-11 -13 -21.5 -21.5t-18.5 -16.5q-8 -9 -16.5 -17l-17.5 -16l-14 -14l-12 -12z" />
    <glyph glyph-name="ocircumflex" unicode="&#xf4;" 
d="M117 -2q-33 -16 -67 0t-45 53q-17 55 -5 132q6 27 13.5 50.5t15.5 43.5q16 40 54 78q30 32 73 36q21 2 30 -1q19 -6 30 -24q10 -15 17 -18q6 -3 12 -14q12 -20 12 -48v-11t-1 -13l-3 -21q-2 -8 0 -9q35 3 77 39q3 2 6 5l6 6t5 4.5t3 2.5q7 7 13 0q2 0 2 -7q1 -2 -3 -9
q-56 -62 -117 -75q-4 -3 -12 -17q-7 -12 -15 -32t-9 -22t-3.5 -8t-7.5 -16t-7.5 -16t-4.5 -9t-4.5 -8l-6.5 -13q-8 -15 -12 -21l-12 -15q-8 -10 -15 -14l-15 -9h-4zM106 27q25 4 48 45q16 28 29 55t24 54q9 20 -2 25q-20 7 -34 26q-13 18 -15 38q-7 58 35 79q-2 1 -3 6
q-2 4 -7 10q-6 6 -12 5q-65 -11 -90 -132q-15 -75 -9 -152q1 -15 11 -39q9 -23 23 -21zM227 239q4 1 7 18q3 16 3 26q0 14 -3 28q-1 10 -9 16q-7 6 -15 4q-16 -3 -19 -18q-6 -32 11 -58l5 -5t7 -6q8 -6 12 -5h1zM257 428q-8 4 -15.5 9.5t-12.5 13.5q-6 11 -18 27l-29 40
q-2 2 -2.5 3t-1.5 2q-2 2 -3 2q-2 2 -2 3l4 -2q-14 -11 -27 -24l-26 -27q-14 -16 -26 -26.5t-21 -15.5q-2 0 -6 1.5t-4 3.5l-3 7q2 3 7 8.5l13 14.5l14 15.5t12 10.5l9.5 11.5l12.5 14.5q8 8 15 16t12 15q6 6 11 12t9 13q6 9 15 9q7 -1 12 -8q0 -2 2.5 -3.5t4.5 -3.5
q5 -2 5.5 -4t0.5 -4q2 -5 16 -28l39 -65q0 -1 5 -8q6 -9 6 -12q3 -3 -5 -8l-2 -2q0 -5 -7.5 -6.5t-12.5 0.5z" />
    <glyph glyph-name="otilde" unicode="&#xf5;" 
d="M115 1q-33 -16 -67 0t-45 53q-17 55 -5 132q6 27 13.5 50.5t15.5 43.5q16 40 54 78q30 32 73 36q21 2 30 -1q19 -6 30 -24q10 -15 17 -18q6 -3 12 -14q12 -20 12 -48v-11t-1 -13l-3 -21q-2 -8 0 -9q35 3 77 39q3 2 6 5l6 6t5 4.5t3 2.5q7 7 13 0q2 0 2 -7q1 -2 -3 -9
q-56 -62 -117 -75q-4 -3 -12 -17q-7 -12 -15 -32t-9 -22t-3.5 -8t-7.5 -16t-7.5 -16t-4.5 -9t-4.5 -8l-6.5 -13q-8 -15 -12 -21l-12 -15q-8 -10 -15 -14l-15 -9h-4zM104 30q25 4 48 45q16 28 29 55t24 54q9 20 -2 25q-20 7 -34 26q-13 18 -15 38q-7 58 35 79q-2 1 -3 6
q-2 4 -7 10q-6 6 -12 5q-65 -11 -90 -132q-15 -75 -9 -152q1 -15 11 -39q9 -23 23 -21zM225 242q4 1 7 18q3 16 3 26q0 14 -3 28q-1 10 -9 16q-7 6 -15 4q-16 -3 -19 -18q-6 -32 11 -58l5 -5t7 -6q8 -6 12 -5h1zM224 461q-14 2 -27 8.5t-24 14.5q-12 11 -21.5 15.5
t-19.5 2.5q-6 -1 -11.5 -6t-11.5 -8q-4 -5 -7 -10.5t-7 -11.5q-8 -13 -11 -13q-7 -8 -8 6q-2 16 4 23q23 38 44.5 49t39.5 9q11 0 23.5 -6t28.5 -15q17 -11 27.5 -14.5t16.5 -2.5q14 -1 25.5 10t16.5 19q9 7 13 -2q3 -7 -4 -17q0 -1 -1 -5.5t-3 -7.5l-8 -8t-5 -6
q-2 -2 -7.5 -5.5t-11.5 -8.5q-8 -7 -24.5 -8.5t-26.5 -1.5z" />
    <glyph glyph-name="odieresis" unicode="&#xf6;" 
d="M67 468q-10 13 24 109q17 47 33 47q13 0 27 -11q13 -11 9 -21q-24 -53 -60 -117q-17 -17 -33 -6v-1zM189 469q-13 19 24 109q20 47 33 47q16 0 26 -16q10 -17 0 -39l-20.5 -41.5t-31.5 -58.5q-14 -14 -33 -2zM120 3q-33 -16 -67 0t-45 53q-17 55 -5 132q6 27 13.5 50.5
t15.5 43.5q16 40 54 78q30 32 73 36q21 2 30 -1q19 -6 30 -24q10 -15 17 -18q6 -3 12 -14q12 -20 12 -48v-11t-1 -13l-3 -21q-2 -8 0 -9q35 3 77 39q3 2 6 5l6 6t5 4.5t3 2.5q7 7 13 0q2 0 2 -7q1 -2 -3 -9q-56 -62 -117 -75q-4 -3 -12 -17q-7 -12 -15 -32t-9 -22t-3.5 -8
t-7.5 -16t-7.5 -16t-4.5 -9t-4.5 -8l-6.5 -13q-8 -15 -12 -21l-12 -15q-8 -10 -15 -14l-15 -9h-4zM109 32q25 4 48 45q16 28 29 55t24 54q9 20 -2 25q-20 7 -34 26q-13 18 -15 38q-7 58 35 79q-2 1 -3 6q-2 4 -7 10q-6 6 -12 5q-65 -11 -90 -132q-15 -75 -9 -152
q1 -15 11 -39q9 -23 23 -21zM230 244q4 1 7 18q3 16 3 26q0 14 -3 28q-1 10 -9 16q-7 6 -15 4q-16 -3 -19 -18q-6 -32 11 -58l5 -5t7 -6q8 -6 12 -5h1z" />
    <glyph glyph-name="divide" unicode="&#xf7;" horiz-adv-x="445" 
d="M229 321q-12 -8 -27 -6q-15 1 -24 9q-16 16 -6 34q4 15 24 21q17 6 36 -1q17 -14 17 -30q0 -20 -18 -30zM114 176q-44 -5 -60 25q-11 24 7 36q4 4 12 6q29 -8 148 -5q121 3 151 -12q19 -7 21 -23q2 -15 -12 -23q-26 8 -54 11q-15 2 -31.5 2.5t-34.5 -0.5l-56 -3l-57 -6
l-36 -5zM229 74q-12 -8 -27 -6q-15 1 -24 9q-16 16 -6 34q4 15 24 21q17 6 36 -1q17 -14 17 -30q0 -20 -18 -30z" />
    <glyph glyph-name="oslash" unicode="&#xf8;" horiz-adv-x="315" 
d="M367 293q2 0 2 -7q1 -2 -3 -9q-56 -62 -117 -75q-4 -3 -12 -17q-7 -12 -15 -32t-9 -22t-3.5 -8t-7.5 -16t-7.5 -16t-4.5 -9t-4.5 -8l-6.5 -13q-8 -15 -12 -21l-12 -15q-8 -10 -15 -14l-15 -9q-38 -18 -73 4q-10 -20 -15 -32t-7 -16q-4 -6 -7 -21q-3 -13 -6 -19t-9 -6
q-7 0 -10 8q-3 7 0 18q12 45 30 90q-11 15 -15 28q-17 55 -5 132q6 27 13.5 50.5t15.5 43.5q16 40 54 78q30 32 73 36q21 2 30 -1q16 -4 27 -20q21 27 72 78l7 7q7 7 10 9q4 3 12 3q7 0 15 -6q5 -5 5 -9q0 -6 -4 -11l-9 -12l-12 -15q-8 -9 -12 -15q-5 -7 -24 -28l-16.5 -18
t-12.5 -15l3 -4q12 -20 12 -48v-11t-1 -13l-3 -21q-2 -8 0 -9q35 3 77 39q3 2 6 5l6 6t5 4.5t3 2.5q7 7 13 0zM88 242q-8 -42 -9 -102q16 31 37 67.5l47 80.5q2 47 36 65q-2 1 -3 6q-2 4 -7 10q-6 6 -12 5q-65 -11 -90 -132h1zM231 241q4 1 7 18q3 16 3 26q0 14 -3 28
q-2 8 -3 11l-22 -28l-15 -20q0 -2 10 -18l5 -5t7 -6q8 -6 12 -5zM214 184q9 20 -2 25q-25 9 -39 32q-44 -71 -90 -171q11 -44 29 -41q25 4 48 45q16 28 29 55t24 54z" />
    <glyph glyph-name="ugrave" unicode="&#xf9;" horiz-adv-x="457" 
d="M276 3q31 -16 72 -1q40 15 72 62q28 43 75 168q9 25 9 30q0 8 -7 8q-5 1 -6 0q-9 -9 -12 -22q-5 -20 -14 -42.5t-21 -48.5q-25 -52 -57 -89q-33 -38 -56 -24q-14 7 -16 29q-2 21 6 65q13 88 18 219q0 16 -13 26q-5 5 -17 3q-13 -2 -17 -9q-5 -9 -18 -30q-11 -16 -21 -37
l-10 -21.5l-10 -20.5q-9 -20 -12 -24l-72 -132q-17 -32 -27 -44q-11 -14 -24 -21q-7 -4 -13 2q-10 17 5 100q26 125 30 184q2 27 -7 50q-9 13 -31 9q-17 -3 -21 -19q-16 -38 -31 -120q-1 -4 -3 -16t-7 -32q-9 -41 -12 -60t-6 -53q-3 -33 -3 -59q0 -17 19 -29t49 -6
q31 7 51 27q25 22 51 74l10.5 21.5t17.5 33.5l5 10t8 15l9 16.5l8 14.5q8 15 15 23q4 6 9 4q3 -2 3 -9q0 -43 -9 -98q-9 -57 -5 -75q8 -41 34 -54zM208 446l-12 12l-14 14l-17.5 16t-16.5 17q-8 8 -18.5 16.5t-21.5 21.5q-5 6 -4 11.5t6 13.5t9 12t12 6q5 1 9 0t12 -7
q8 -7 15 -16.5t14 -17.5q30 -38 45.5 -62t7.5 -39q-8 -8 -13.5 -5t-15.5 10z" />
    <glyph glyph-name="uacute" unicode="&#xfa;" horiz-adv-x="457" 
d="M278 5q-26 13 -34 54q-4 18 5 75q9 55 9 98q0 7 -3 9q-5 2 -9 -4q-7 -8 -15 -23l-8 -14.5l-9 -16.5t-8 -15l-5 -10q-11 -20 -17.5 -33.5l-10.5 -21.5q-26 -52 -51 -74q-20 -20 -51 -27q-30 -6 -49 6t-19 29q0 26 3 59q3 34 6 53t12 60q5 20 7 32t3 16q15 82 31 120
q4 16 21 19q22 4 31 -9q9 -23 7 -50q-4 -59 -30 -184q-15 -83 -5 -100q6 -6 13 -2q13 7 24 21q10 12 27 44l72 132q3 4 12 24l10 20.5l10 21.5q10 21 21 37q13 21 18 30q4 7 17 9q12 2 17 -3q13 -10 13 -26q-5 -131 -18 -219q-8 -44 -6 -65q2 -22 16 -29q23 -14 56 24
q32 37 57 89q12 26 21 48.5t14 42.5q3 13 12 22q1 1 6 0q7 0 7 -8q0 -5 -9 -30q-47 -125 -75 -168q-32 -47 -72 -62q-41 -15 -72 1zM208 453q-10 -7 -15.5 -10t-13.5 5q-8 15 7.5 39t45.5 62q7 8 14 17.5t15 16.5q8 6 12 7t9 0q8 -2 12 -6t9 -12t6 -13.5t-4 -11.5
q-11 -13 -21.5 -21.5t-18.5 -16.5q-8 -9 -16.5 -17l-17.5 -16l-14 -14l-12 -12z" />
    <glyph glyph-name="ucircumflex" unicode="&#xfb;" horiz-adv-x="457" 
d="M344 468q-21 10 -33 27q-10 20 -50 74q-2 2 -2.5 3t-1.5 2l-3 3l-3 3h-14q-36 -17 -72 -44q-36 -29 -60 -37q-6 0 -6 5l-3 8q6 4 27 21q22 17 34 24q5 4 12.5 9t18.5 13q21 15 36 27t27 24q10 7 19 6q10 -2 14 -9q1 -2 1 -7q12 -5 12 -9q3 -6 17.5 -31l40.5 -70
q2 -2 6 -10q5 -10 5 -13q4 -3 -6 -7q-1 -1 -3 -1q-2 -11 -12 -6zM274 -3q-26 13 -34 54q-4 18 5 75q9 55 9 98q0 7 -3 9q-5 2 -9 -4q-7 -8 -15 -23l-8 -14.5l-9 -16.5t-8 -15l-5 -10q-11 -20 -17.5 -33.5l-10.5 -21.5q-26 -52 -51 -74q-20 -20 -51 -27q-30 -6 -49 6t-19 29
q0 26 3 59q3 34 6 53t12 60q5 20 7 32t3 16q15 82 31 120q4 16 21 19q22 4 31 -9q9 -23 7 -50q-4 -59 -30 -184q-15 -83 -5 -100q6 -6 13 -2q13 7 24 21q10 12 27 44l72 132q3 4 12 24l10 20.5l10 21.5q10 21 21 37q13 21 18 30q4 7 17 9q12 2 17 -3q13 -10 13 -26
q-5 -131 -18 -219q-8 -44 -6 -65q2 -22 16 -29q23 -14 56 24q32 37 57 89q12 26 21 48.5t14 42.5q3 13 12 22q1 1 6 0q7 0 7 -8q0 -5 -9 -30q-47 -125 -75 -168q-32 -47 -72 -62q-41 -15 -72 1z" />
    <glyph glyph-name="udieresis" unicode="&#xfc;" horiz-adv-x="457" 
d="M141 472q-10 13 24 109q17 47 33 47q13 0 27 -11q13 -11 9 -21q-24 -53 -60 -117q-17 -17 -33 -6v-1zM263 473q-13 19 24 109q20 47 33 47q16 0 26 -16q10 -17 0 -39l-20.5 -41.5t-31.5 -58.5q-14 -14 -33 -2zM277 2q-26 13 -34 54q-4 18 5 75q9 55 9 98q0 7 -3 9
q-5 2 -9 -4q-7 -8 -15 -23l-8 -14.5l-9 -16.5t-8 -15l-5 -10q-11 -20 -17.5 -33.5l-10.5 -21.5q-26 -52 -51 -74q-20 -20 -51 -27q-30 -6 -49 6t-19 29q0 26 3 59q3 34 6 53t12 60q5 20 7 32t3 16q15 82 31 120q4 16 21 19q22 4 31 -9q9 -23 7 -50q-4 -59 -30 -184
q-15 -83 -5 -100q6 -6 13 -2q13 7 24 21q10 12 27 44l72 132q3 4 12 24l10 20.5l10 21.5q10 21 21 37q13 21 18 30q4 7 17 9q12 2 17 -3q13 -10 13 -26q-5 -131 -18 -219q-8 -44 -6 -65q2 -22 16 -29q23 -14 56 24q32 37 57 89q12 26 21 48.5t14 42.5q3 13 12 22q1 1 6 0
q7 0 7 -8q0 -5 -9 -30q-47 -125 -75 -168q-32 -47 -72 -62q-41 -15 -72 1z" />
    <glyph glyph-name="yacute" unicode="&#xfd;" horiz-adv-x="406" 
d="M108 -416q-38 18 -33 74q4 54 29 119q24 63 59 113q5 6 12 16l17 24l33 48q13 19 21 33q27 136 30 255l-68 -132q-20 -39 -36 -61q-8 -11 -19.5 -22t-27.5 -24q-23 -23 -48 -27q-46 -9 -63 23q-5 9 -6 30q-2 21 0 44q1 22 6 54q4 31 9 51q4 19 9 45t6 29q13 88 36 114
q8 10 22 11q10 1 18 -12q8 -14 8 -55q-11 -107 -30 -219q-9 -58 1 -62q4 -4 17 2t20 15q19 22 29 38l11.5 19l14.5 25t11.5 21l4.5 9t6 14l14 34l18.5 43.5l20.5 44.5q20 43 38 64q7 9 21 6q13 -3 18 -14q13 -34 9 -88q0 -13 -6 -79t-9 -111q-2 -9 0 -11t9 1q43 21 96 143
q1 4 6 10q5 7 8 5q13 -3 6 -21q-3 -12 -21 -50q-10 -21 -24 -43q-14 -21 -24 -33l-27 -30q-17 -18 -21 -24q-3 -10 -15 -76q-3 -18 -7.5 -41.5t-11.5 -52.5q-14 -59 -15 -69q-32 -143 -99 -201q-38 -33 -78 -14zM113 -392q35 -20 59 45q37 101 66 245q13 61 4 63
q-4 3 -42 -56l-31.5 -49t-18.5 -31q-34 -60 -47 -127q-13 -69 10 -88v-2zM203 453q-10 -7 -15.5 -10t-13.5 5q-8 15 7.5 39t45.5 62q7 8 14 17.5t15 16.5q8 6 12 7t9 0q8 -2 12 -6t9 -12t6 -13.5t-4 -11.5q-11 -13 -21.5 -21.5t-18.5 -16.5q-8 -9 -16.5 -17l-17.5 -16
l-14 -14l-12 -12z" />
    <glyph glyph-name="ydieresis" unicode="&#xff;" horiz-adv-x="406" 
d="M128 472q-10 13 24 109q17 47 33 47q13 0 27 -11q13 -11 9 -21q-24 -53 -60 -117q-17 -17 -33 -6v-1zM250 473q-13 19 24 109q20 47 33 47q16 0 26 -16q10 -17 0 -39l-20.5 -41.5t-31.5 -58.5q-14 -14 -33 -2zM107 -419q-38 18 -33 74q4 54 29 119q24 63 59 113
q5 6 12 16l17 24l33 48q13 19 21 33q27 136 30 255l-68 -132q-20 -39 -36 -61q-8 -11 -19.5 -22t-27.5 -24q-23 -23 -48 -27q-46 -9 -63 23q-5 9 -6 30q-2 21 0 44q1 22 6 54q4 31 9 51q4 19 9 45t6 29q13 88 36 114q8 10 22 11q10 1 18 -12q8 -14 8 -55q-11 -107 -30 -219
q-9 -58 1 -62q4 -4 17 2t20 15q19 22 29 38l11.5 19l14.5 25t11.5 21l4.5 9t6 14l14 34l18.5 43.5l20.5 44.5q20 43 38 64q7 9 21 6q13 -3 18 -14q13 -34 9 -88q0 -13 -6 -79t-9 -111q-2 -9 0 -11t9 1q43 21 96 143q1 4 6 10q5 7 8 5q13 -3 6 -21q-3 -12 -21 -50
q-10 -21 -24 -43q-14 -21 -24 -33l-27 -30q-17 -18 -21 -24q-3 -10 -15 -76q-3 -18 -7.5 -41.5t-11.5 -52.5q-14 -59 -15 -69q-32 -143 -99 -201q-38 -33 -78 -14zM112 -395q35 -20 59 45q37 101 66 245q13 61 4 63q-4 3 -42 -56l-31.5 -49t-18.5 -31q-34 -60 -47 -127
q-13 -69 10 -88v-2z" />
    <glyph glyph-name="Amacron" unicode="&#x100;" horiz-adv-x="546" 
d="M523 865q-186 40 -279 30q-49 -6 -60 14q-8 10 9 15h11q5 -1 27 -1h60q76 0 138 -6t91 -22q24 -14 15 -27q-5 -8 -12 -6v3zM510 -86q-15 1 -36 6q-19 4 -52 23q-31 18 -51 47q-22 34 -25 83q-3 46 5 87q-3 -3 -22 -30q-18 -26 -30 -39q-12 -14 -33 -33q-20 -19 -46 -28
q-27 -9 -54 -8q-84 2 -110 74q-47 126 -14 293q35 176 132 290t183 114q20 0 34 -7q16 -8 23 -18q9 -12 14 -24q7 -15 8 -28q1 -8 1.5 -14.5t1.5 -13.5q1 -14 0 -24q-2 -11 0 -17q0 -15 -10 -15q-12 6 -15 22q0 118 -59 118q-38 0 -78 -46q-39 -45 -70 -111t-51 -124
q-21 -60 -27 -97q-6 -35 -10 -70.5t-6 -70.5q-5 -71 9 -132q13 -61 50 -63q25 -1 54 17t50 41q11 11 22 24.5t22 29.5q22 31 30 45l7.5 13l6.5 11q4 7 24 114q5 28 13 58.5t19 64.5q21 67 36 99q13 25 33 21q20 -5 21 -25q1 -27 -27 -172q-11 -59 -20 -116.5t-15 -114.5
q-12 -115 -2 -166q5 -27 26 -47q22 -20 38 -20t16 -13q0 -10 -13 -9z" />
    <glyph glyph-name="amacron" unicode="&#x101;" horiz-adv-x="459" 
d="M398 498q-186 40 -279 30q-49 -6 -60 14q-8 10 9 15h11q5 -1 27 -1h60q76 0 138 -6t91 -22q24 -14 15 -27q-5 -8 -12 -6v3zM84 -13q-21 -4 -46 8q-24 12 -36 34q-22 52 -7 138q15 85 68 156q26 37 69 61q42 24 81 18q15 -2 24 -13q9 -12 9 -28q0 -28 -12 -47
q-6 -6 -13 -6q-14 0 -6 32t-3 35q-49 16 -94 -48q-37 -53 -49 -136q-12 -81 2 -132q3 -15 18 -18q14 -3 25 5q13 10 27 29q15 19 21 31l10 18t14 28q16 33 24 45l17 30.5l19 36.5l6 12q2 4 3.5 6.5t2.5 4.5q1 4 1.5 8t1.5 9q2 10 3 14q1 3 3 11q1 6 5 11q4 6 7 9q15 15 27 0
q8 -18 8 -24q3 -41 3 -120q-1 -22 -1 -54.5v-77.5q0 -23 18 -27q36 -11 83 63q46 73 66 141q3 13 12 22q1 1 6 0q7 0 7 -8q0 -5 -9 -30q-47 -125 -75 -168q-32 -47 -72 -62q-41 -15 -72 1q-17 7 -28 29q-10 21 -12 44q-1 13 -1.5 22.5t-0.5 15.5v51q0 8 -6 8q-9 0 -14 -11
q-2 -3 -5 -10.5t-8 -18.5t-9 -19t-6 -13t-6 -12t-9 -17q-11 -20 -18 -30l-8.5 -10.5l-9.5 -11.5q-10 -12 -23 -18q-13 -7 -25 -8z" />
    <glyph glyph-name="Abreve" unicode="&#x102;" horiz-adv-x="546" 
d="M511 -88q-15 1 -36 6q-19 4 -52 23q-31 18 -51 47q-22 34 -25 83q-3 46 5 87q-3 -3 -22 -30q-18 -26 -30 -39q-12 -14 -33 -33q-20 -19 -46 -28q-27 -9 -54 -8q-84 2 -110 74q-47 126 -14 293q35 176 132 290t183 114q20 0 34 -7q16 -8 23 -18q9 -12 14 -24q7 -15 8 -28
q1 -8 1.5 -14.5t1.5 -13.5q1 -14 0 -24q-2 -11 0 -17q0 -15 -10 -15q-12 6 -15 22q0 118 -59 118q-38 0 -78 -46q-39 -45 -70 -111t-51 -124q-21 -60 -27 -97q-6 -35 -10 -70.5t-6 -70.5q-5 -71 9 -132q13 -61 50 -63q25 -1 54 17t50 41q11 11 22 24.5t22 29.5q22 31 30 45
l7.5 13l6.5 11q4 7 24 114q5 28 13 58.5t19 64.5q21 67 36 99q13 25 33 21q20 -5 21 -25q1 -27 -27 -172q-11 -59 -20 -116.5t-15 -114.5q-12 -115 -2 -166q5 -27 26 -47q22 -20 38 -20t16 -13q0 -10 -13 -9zM423 828q-14 2 -25.5 5t-22.5 8q-5 2 -11.5 7t-10.5 9
q-8 13 -17.5 31.5t-5.5 39.5q0 10 10.5 17.5t13.5 12.5q8 12 15 7q4 0 6 -11q2 -5 2 -11.5t2 -14.5q0 -10 1.5 -15t2.5 -8q14 -45 59 -42q15 0 29.5 4t28.5 18q17 17 25 42q7 12 16 15q5 3 9 1q2 -4 2 -7q0 -5 -2 -6l-17 -34q-3 -8 -9 -15l-10 -12q-1 -1 -6.5 -8t-7.5 -9
t-7.5 -7t-12.5 -7q-11 -6 -18.5 -8t-23.5 -2h-15z" />
    <glyph glyph-name="abreve" unicode="&#x103;" horiz-adv-x="459" 
d="M232 439q-14 2 -25.5 5t-22.5 8q-5 2 -11.5 7t-10.5 9q-8 13 -17.5 31.5t-5.5 39.5q0 10 10.5 17.5t13.5 12.5q8 12 15 7q4 0 6 -11q2 -5 2 -11.5t2 -14.5q0 -10 1.5 -15t2.5 -8q14 -45 59 -42q15 0 29.5 4t28.5 18q17 17 25 42q7 12 16 15q5 3 9 1q2 -4 2 -7q0 -5 -2 -6
l-17 -34q-3 -8 -9 -15l-10 -12q-1 -1 -6.5 -8t-7.5 -9t-7.5 -7t-12.5 -7q-11 -6 -18.5 -8t-23.5 -2h-15zM85 -17q-21 -4 -46 8q-24 12 -36 34q-22 52 -7 138q15 85 68 156q26 37 69 61q42 24 81 18q15 -2 24 -13q9 -12 9 -28q0 -28 -12 -47q-6 -6 -13 -6q-14 0 -6 32t-3 35
q-49 16 -94 -48q-37 -53 -49 -136q-12 -81 2 -132q3 -15 18 -18q14 -3 25 5q13 10 27 29q15 19 21 31l10 18t14 28q16 33 24 45l17 30.5l19 36.5l6 12q2 4 3.5 6.5t2.5 4.5q1 4 1.5 8t1.5 9q2 10 3 14q1 3 3 11q1 6 5 11q4 6 7 9q15 15 27 0q8 -18 8 -24q3 -41 3 -120
q-1 -22 -1 -54.5v-77.5q0 -23 18 -27q36 -11 83 63q46 73 66 141q3 13 12 22q1 1 6 0q7 0 7 -8q0 -5 -9 -30q-47 -125 -75 -168q-32 -47 -72 -62q-41 -15 -72 1q-17 7 -28 29q-10 21 -12 44q-1 13 -1.5 22.5t-0.5 15.5v51q0 8 -6 8q-9 0 -14 -11q-2 -3 -5 -10.5t-8 -18.5
t-9 -19t-6 -13t-6 -12t-9 -17q-11 -20 -18 -30l-8.5 -10.5l-9.5 -11.5q-10 -12 -23 -18q-13 -7 -25 -8z" />
    <glyph glyph-name="Aogonek" unicode="&#x104;" horiz-adv-x="546" 
d="M505 -63q16 0 16 -13q0 -10 -13 -9q-42 4 -78 24q-3 -8 -9 -15l-15.5 -19.5l-10.5 -13.5q-6 -9 -19 -31q-11 -20 -16 -40q-7 -38 2 -54q9 -15 44 0q13 52 21 57q5 5 11 -5q11 -17 -4 -43q-15 -27 -33 -36q-20 -11 -27 -12q-8 -2 -27 6q-20 10 -39 36q-25 34 23 105
q43 61 63 75q4 3 7 6q-20 18 -30 33q-22 34 -25 83q-3 46 5 87q-3 -3 -22 -30q-18 -26 -30 -39q-12 -14 -33 -33q-20 -19 -46 -28q-27 -9 -54 -8q-84 2 -110 74q-47 126 -14 293q35 176 132 290t183 114q20 0 34 -7q16 -8 23 -18q9 -12 14 -24q7 -15 8 -28q1 -8 1.5 -14.5
t1.5 -13.5q1 -14 0 -24q-2 -11 0 -17q0 -15 -10 -15q-12 6 -15 22q0 118 -59 118q-38 0 -78 -46q-39 -45 -70 -111t-51 -124q-21 -60 -27 -97q-6 -35 -10 -70.5t-6 -70.5q-5 -71 9 -132q13 -61 50 -63q25 -1 54 17t50 41q11 11 22 24.5t22 29.5q22 31 30 45l7.5 13l6.5 11
q4 7 24 114q5 28 13 58.5t19 64.5q21 67 36 99q13 25 33 21q20 -5 21 -25q1 -27 -27 -172q-11 -59 -20 -116.5t-15 -114.5q-12 -115 -2 -166q5 -27 26 -47q22 -20 38 -20z" />
    <glyph glyph-name="aogonek" unicode="&#x105;" horiz-adv-x="459" 
d="M490 269q7 0 7 -8q0 -5 -9 -30q-47 -125 -75 -168q-40 -61 -95 -69q2 -12 -12 -29l-15.5 -19.5l-10.5 -13.5q-6 -9 -19 -31q-11 -20 -16 -40q-7 -38 2 -54q9 -15 44 0q13 52 21 57q5 5 11 -5q11 -17 -4 -43q-15 -27 -33 -36q-20 -11 -27 -12q-8 -2 -27 6q-20 10 -39 36
q-25 34 23 105q43 61 63 75l2 2l-9 3q-17 7 -28 29q-10 21 -12 44q-1 13 -1.5 22.5t-0.5 15.5v51q0 8 -6 8q-9 0 -14 -11q-2 -3 -5 -10.5t-8 -18.5t-9 -19t-6 -13t-6 -12t-9 -17q-11 -20 -18 -30l-8.5 -10.5l-9.5 -11.5q-10 -12 -23 -18q-13 -7 -25 -8q-21 -4 -46 8
q-24 12 -36 34q-22 52 -7 138q15 85 68 156q26 37 69 61q42 24 81 18q15 -2 24 -13q9 -12 9 -28q0 -28 -12 -47q-6 -6 -13 -6q-14 0 -6 32t-3 35q-49 16 -94 -48q-37 -53 -49 -136q-12 -81 2 -132q3 -15 18 -18q14 -3 25 5q13 10 27 29q15 19 21 31l10 18t14 28q16 33 24 45
l17 30.5l19 36.5l6 12q2 4 3.5 6.5t2.5 4.5q1 4 1.5 8t1.5 9q2 10 3 14q1 3 3 11q1 6 5 11q4 6 7 9q15 15 27 0q8 -18 8 -24q3 -41 3 -120q-1 -22 -1 -54.5v-77.5q0 -23 18 -27q36 -11 83 63q46 73 66 141q3 13 12 22q1 1 6 0z" />
    <glyph glyph-name="Cacute" unicode="&#x106;" horiz-adv-x="385" 
d="M363 872q-19 -14 -32 1q-12 25 44 99q12 15 27 27q16 12 23 11q13 -5 24 -18q11 -14 2 -24q-21 -26 -36 -42l-15 -15.5l-15 -15.5l-14 -14.5l-11 -11.5zM184 -5q-117 -3 -164 104t-12 281q34 175 131 297q96 122 212 122q30 0 51 -9q20 -9 31 -18q10 -9 16 -28
q6 -20 6 -27q0 -4 0.5 -11.5t1.5 -18.5q0 -13 -10 -12q-10 3 -9 16v16q0 11 -6 23q-6 11 -14 23q-7 10 -26 18t-42 8q-41 0 -78 -36q-38 -36 -65 -86q-26 -48 -51 -110q-24 -60 -36 -102l-10.5 -38t-6.5 -31q-69 -347 77 -345q52 0 92 17q39 17 56 35q18 20 32 42l12 18t5 7
q13 15 21 3q4 -8 -3 -15l-10 -18q-5 -8 -10 -17t-12 -18q-14 -18 -35 -38t-57 -33t-80 -15z" />
    <glyph glyph-name="cacute" unicode="&#x107;" horiz-adv-x="319" 
d="M170 473q-19 -14 -32 1q-12 25 44 99q12 15 27 27q16 12 23 11q13 -5 24 -18q11 -14 2 -24q-21 -26 -36 -42l-15 -15.5l-15 -15.5l-14 -14.5l-11 -11.5zM151 -2q-50 -5 -93 21q-34 20 -47 69q-25 88 11 164l14.5 28.5l12.5 23.5t15.5 23t22.5 26q25 28 57 45q27 13 49 12
q19 -2 35 -17q15 -16 14 -35q-2 -18 -9 -27q-8 -8 -12 -6q-5 3 -4 16q7 25 0 30q-15 10 -43 -3q-32 -17 -54 -72q-23 -56 -30 -114q-10 -94 24 -124q48 -43 112 6q31 22 67 81q37 60 41 81q13 28 22 19q3 -4 -1 -26q-11 -35 -45 -96q-35 -62 -66 -81l-9 -9l-9 -9
q-1 -1 -3 -2.5t-5 -4.5q-6 -6 -10 -7l-11 -5q-4 -2 -7 -3l-6 -2q-6 -2 -15 -3q-5 -1 -9.5 -1.5t-9.5 -1.5z" />
    <glyph glyph-name="Ccaron" unicode="&#x10c;" horiz-adv-x="385" 
d="M314 859q-23 3 -32 25l-15.5 40.5t-19.5 45.5l-3 14q1 10 3 18q4 13 16 16t21 -8q5 -6 12 -18l17 -30l6 -18q4 -14 9 -21q2 -4 8 -12q5 -7 8 -5q6 0 21 15l15 20q14 19 24 26q10 9 66 48q1 1 3 1h5h5v-3v-3v-3q0 -2 -1 -3l-34 -27q-3 -2 -7 -5l-9 -7l-21 -18q-8 -5 -8 -6
q-11 -23 -57 -60q-2 0 -2 -2q-8 -20 -33 -18zM184 -10q-117 -3 -164 104t-12 281q34 175 131 297q96 122 212 122q30 0 51 -9q20 -9 31 -18q10 -9 16 -28q6 -20 6 -27q0 -4 0.5 -11.5t1.5 -18.5q0 -13 -10 -12q-10 3 -9 16v16q0 11 -6 23q-6 11 -14 23q-7 10 -26 18t-42 8
q-41 0 -78 -36q-38 -36 -65 -86q-26 -48 -51 -110q-24 -60 -36 -102l-10.5 -38t-6.5 -31q-69 -347 77 -345q52 0 92 17q39 17 56 35q18 20 32 42l12 18t5 7q13 15 21 3q4 -8 -3 -15l-10 -18q-5 -8 -10 -17t-12 -18q-14 -18 -35 -38t-57 -33t-80 -15z" />
    <glyph glyph-name="ccaron" unicode="&#x10d;" horiz-adv-x="319" 
d="M121 460q-23 3 -32 25l-15.5 40.5t-19.5 45.5l-3 14q1 10 3 18q4 13 16 16t21 -8q5 -6 12 -18l17 -30l6 -18q4 -14 9 -21q2 -4 8 -12q5 -7 8 -5q6 0 21 15l15 20q14 19 24 26q10 9 66 48q1 1 3 1h5h5v-3v-3v-3q0 -2 -1 -3l-34 -27q-3 -2 -7 -5l-9 -7l-21 -18q-8 -5 -8 -6
q-11 -23 -57 -60q-2 0 -2 -2q-8 -20 -33 -18zM151 -7q-50 -5 -93 21q-34 20 -47 69q-25 88 11 164l14.5 28.5l12.5 23.5t15.5 23t22.5 26q25 28 57 45q27 13 49 12q19 -2 35 -17q15 -16 14 -35q-2 -18 -9 -27q-8 -8 -12 -6q-5 3 -4 16q7 25 0 30q-15 10 -43 -3
q-32 -17 -54 -72q-23 -56 -30 -114q-10 -94 24 -124q48 -43 112 6q31 22 67 81q37 60 41 81q13 28 22 19q3 -4 -1 -26q-11 -35 -45 -96q-35 -62 -66 -81l-9 -9l-9 -9q-1 -1 -3 -2.5t-5 -4.5q-6 -6 -10 -7l-11 -5q-4 -2 -7 -3l-6 -2q-6 -2 -15 -3q-5 -1 -9.5 -1.5t-9.5 -1.5z
" />
    <glyph glyph-name="Dcaron" unicode="&#x10e;" horiz-adv-x="706" 
d="M282 845l-15.5 40.5t-19.5 45.5l-3 14q1 10 3 18q4 13 16 16t21 -8q5 -6 12 -18l17 -30l6 -18q4 -14 9 -21q2 -4 8 -12q5 -7 8 -5q6 0 21 15l15 20q14 19 24 26q10 9 66 48q1 1 3 1h5h5v-3v-3v-3q0 -2 -1 -3l-34 -27q-3 -2 -7 -5l-9 -7l-21 -18q-8 -5 -8 -6
q-11 -23 -57 -60q-2 0 -2 -2q-8 -20 -33 -18q-23 3 -32 25zM536 739q97 -6 144 -110t29 -249q-12 -102 -58 -191t-123 -148q-76 -58 -165 -58q-57 0 -82 21t-19 50q6 28 27 54q21 25 47 36q124 46 207 33q58 94 72 198q19 143 -2 234q-21 90 -85 102q-39 8 -94 -22
q-56 -30 -117 -90q-2 -52 -7 -107t-15 -114q-6 -37 -13.5 -70.5t-17.5 -65.5t-22 -62.5t-27 -60.5q-30 -60 -75 -93q-46 -33 -100 -29q-104 7 -3 225q64 139 156 267l11 15l18 24q37 238 27 252q-29 34 -150 -30q-33 -17 -41 -12q-4 3 6 13l18 9q9 5 16.5 8.5t13.5 5.5
t14 5.5l19 8.5q21 9 38 12q16 3 36 6q18 3 36 -2q17 -5 29 -15q32 -27 33 -154q115 111 219 105v-1zM49 29q31 -4 61 40q30 45 51 112t33 144l25 160l-30 -42l-31 -46q-125 -195 -138 -303q-8 -59 27 -65h2zM366 13q34 7 78 44q44 36 83 92q-114 12 -184 -29
q-39 -24 -47 -53t13 -45q21 -17 57 -9z" />
    <glyph glyph-name="dcaron" unicode="&#x10f;" horiz-adv-x="458" 
d="M292 -15q-22 0 -44 20q-20 19 -28 48l-8 75q-5 4 -10 -2q-41 -65 -90 -104q-18 -14 -46 -15t-40 9q-22 17 -28 33q-6 15 -6 54q0 64 47 156q1 2 3 6.5l5 11.5l5 12t4 8t4.5 7.5t6.5 10.5q7 11 14 20l15 18q8 9 21 19q14 10 27 17q14 8 31 12q18 4 39 0q22 -5 32 -21l4 25
q8 37 16.5 69t18.5 60q1 3 9 24l9 27q1 5 9 25q8 22 12 29l12 24q8 17 16 27q5 6 9 12t9 11q34 46 77 54q30 6 44 -15q13 -21 6 -58q-9 -45 -23 -96t-33 -109l-14 -35t-11 -25l-9.5 -19.5l-9.5 -19.5l-15 -27q-5 -8 -21 -36l-15.5 -27l-14.5 -25q-24 -33 -30 -66
q-3 -15 -4.5 -35.5t-2.5 -46.5q-1 -52 6 -73q7 -12 21 -15q13 -3 24 3q4 2 7.5 5t7.5 6q7 6 15 15q4 5 7.5 8.5t6.5 7.5t6 8.5t7 9.5t6 9t4 6l9 15l6 10q29 54 45 91q8 14 15 11q7 -2 6 -9q-7 -36 -41 -99l-9 -18l-7 -14t-6 -11l-7 -11.5l-9 -14.5t-10.5 -15l-11.5 -14
q-14 -15 -27 -26q-26 -21 -75 -21zM315 298q4 -5 10 2l12 18q5 7 8 12t5 9q4 10 21 42q8 16 13.5 26t7.5 15t6 13.5t10 22.5q13 29 18 43q6 16 15 45q5 14 9 29l8 30q7 30 15 69q8 34 2 48q-6 15 -28 11q-61 -13 -100 -192q-53 -230 -33 -240zM550 545q-1 5 -1 8.5v5.5
q0 3 6 18q7 17 8 23q4 13 5 29q1 9 2 16.5t3 13.5q3 11 11 18q14 11 29 5t18 -22q5 -11 2 -24q-3 -14 -3 -19t-8 -16q-4 -5 -6.5 -9t-4.5 -6q-4 -6 -13 -15l-15 -15q-21 -21 -32 -12zM76 51q1 -1 5 -3q2 -1 6 -1l6 1q2 0 6 2l6 3q2 1 3.5 2t3.5 3t3.5 3t3.5 2t3.5 2t3.5 3
q3 2 6 5q22 17 59 75q38 59 38 72l10 126q-20 29 -43 23q-24 -6 -42 -24t-28 -37q-40 -84 -55 -174q-12 -69 7 -84z" />
    <glyph glyph-name="Dcroat" unicode="&#x110;" horiz-adv-x="706" 
d="M79 329q-43 -4 -59 21q-10 21 7 31q6 4 12 5q8 -2 27.5 -3t51.5 -2l35 55.5t38 54.5l11 15q1 1 12 15l13 55q28 195 19 206q-29 34 -150 -30q-33 -17 -41 -12q-4 3 6 13l18 9q9 5 16.5 8.5t13.5 5.5t14 5.5l19 8.5q21 9 38 12q16 3 36 6q18 3 36 -2q17 -5 29 -15
q32 -27 33 -154q115 111 219 105l1 -2q97 -6 144 -110t29 -249q-12 -102 -58 -191t-123 -148q-76 -58 -165 -58q-57 0 -82 21t-19 50q6 28 27 54q21 25 47 36q124 46 207 33q58 94 72 198q19 143 -2 234q-21 90 -85 102q-39 8 -94 -22q-56 -30 -117 -90q-1 -5 -1 -11.5
v-14.5l-3 -44q-6 -76 -18 -148q52 -1 84.5 -3.5t43.5 -7.5q19 -6 21 -19q2 -14 -12 -20q-24 7 -59.5 10.5t-83.5 2.5q-5 -27 -11 -52t-14 -49q-10 -32 -22 -62.5t-27 -60.5q-30 -60 -75 -93q-46 -33 -100 -29q-104 7 -3 225l26.5 54l27.5 53q-3 0 -5.5 -0.5t-5.5 -0.5z
M47 30q31 -4 61 40q30 45 51 112t33 144l2 14q-18 -1 -37.5 -2.5t-40.5 -3.5q-88 -151 -98 -239q-8 -59 27 -65h2zM364 14q34 7 78 44q44 36 83 92q-114 12 -184 -29q-39 -24 -47 -53t13 -45q21 -17 57 -9zM156 398l-5.5 -9t-5.5 -8h56l16 105l-30 -42z" />
    <glyph glyph-name="dcroat" unicode="&#x111;" horiz-adv-x="458" 
d="M448 761q30 6 44 -15q13 -21 6 -58q-14 -71 -51 -189q16 -5 29 -12q24 -14 15 -27q-5 -8 -12 -6l-44 9l-12 -29.5t-9 -20.5t-7.5 -17t-8.5 -18t-8 -15l-5 -10l-21 -35l-15.5 -26.5l-14.5 -23.5q-24 -33 -30 -66q-3 -15 -4.5 -35.5t-2.5 -46.5q-1 -52 6 -73q7 -12 21 -15
q13 -3 24 3q4 2 7.5 5t7.5 6q7 6 15 15q4 5 7.5 8.5t6.5 7.5t6 8.5t7 9.5t6 9t4 6l9 15l6 10q29 54 45 91q8 14 15 11q7 -2 6 -9q-7 -36 -41 -99l-9 -18l-7 -14t-6 -11l-7 -11.5l-9 -14.5t-10.5 -15l-11.5 -14q-14 -15 -27 -26q-26 -21 -75 -21q-22 0 -44 20q-20 19 -28 48
l-8 75q-5 4 -10 -2q-41 -65 -90 -104q-18 -14 -46 -15t-40 9q-22 17 -28 33q-6 15 -6 54q0 64 47 156q1 2 3 6.5l5 11.5l5 12t4 8t4.5 7.5t6.5 10.5q7 11 14 20l15 18q8 9 21 19q14 10 27 17q14 8 31 12q18 4 39 0q22 -5 32 -21l4 25q3 16 8.5 38.5t13.5 51.5q-47 3 -72 0
q-49 -6 -60 14q-8 10 9 15h11q7 -1 37 -1h84l4 13q1 3 9 24l9 27q1 5 9 25q8 22 12 29l12 24q8 17 16 27q5 6 9 12t9 11q34 46 77 54v-7zM470 672q8 34 2 48q-6 15 -28 11q-61 -13 -100 -192l-6 -27q47 -2 86 -9q22 59 46 169zM345 339l43.5 86l20.5 43q-40 8 -79 12
q-34 -173 -19 -181q4 -5 10 2l12 18q5 7 8 12t5 9zM234 346q-20 29 -43 23q-24 -6 -42 -24t-28 -37q-40 -84 -55 -174q-12 -69 7 -84q1 -1 5 -3q2 -1 6 -1l6 1q2 0 6 2l6 3q2 1 3.5 2t3.5 3t3.5 3t3.5 2t3.5 2t3.5 3q3 2 6 5q22 17 59 75q38 59 38 72z" />
    <glyph glyph-name="Emacron" unicode="&#x112;" horiz-adv-x="431" 
d="M507 904q-186 40 -279 30q-49 -6 -60 14q-8 10 9 15h11q5 -1 27 -1h60q76 0 138 -6t91 -22q24 -14 15 -27q-5 -8 -12 -6v3zM231 -10q-36 0 -67 7q-17 4 -33.5 10.5t-33.5 15.5q-34 18 -58 45t-36 72q-12 46 -5 101q4 41 17 81q6 19 12.5 34.5t13.5 28.5q13 25 35 47
t37 33t39 22q22 10 36 15q13 4 33 9q19 4 22 6q-17 13 -24 21q-8 7 -21 27q-13 18 -19 45q-6 24 -4 57q4 64 44 102t98 38q22 0 39 -6t23 -12l7.5 -7.5t9.5 -11.5q4 -9 -3 -13t-13 6q-16 28 -63 28q-26 0 -47 -34q-21 -35 -24 -103q-2 -35 12 -66q13 -32 30 -48
q8 -8 17 -15.5l18 -15.5t14 -11.5t6 -4.5q7 -11 0 -18q-8 -8 -18 -3l-8 6q-6 4 -11 6q-2 1 -5 2t-7 3q-9 4 -17 5q-5 1 -10 1.5t-11 0.5q-51 0 -90 -43q-38 -43 -55 -99t-18 -108q-2 -84 36 -149q37 -65 111 -63q17 0 32 3q16 3 29 9t24 12q9 5 21 17l18 18q7 7 15 18l11 17
q2 3 4 6.5t4 8.5q4 8 6 10q13 24 24 21t-1 -40q-17 -52 -67 -93q-51 -42 -125 -42z" />
    <glyph glyph-name="emacron" unicode="&#x113;" horiz-adv-x="287" 
d="M354 477q-186 40 -279 30q-49 -6 -60 14q-8 10 9 15h11q5 -1 27 -1h60q76 0 138 -6t91 -22q24 -14 15 -27q-5 -8 -12 -6v3zM130 -6q-15 -5 -43 -2q-30 3 -48 15q-20 12 -33 46q-29 83 19 201q7 16 16 32t21 33q25 35 46 50q70 49 108 12q20 -18 14 -43t-21 -46
q-8 -11 -17.5 -20.5t-20.5 -19.5q-44 -39 -81 -63q-13 -11 -14 -27v-41.5t1 -22.5q0 -20 9 -39t23 -25q39 -15 90 35q52 50 86 120q6 12 12 27t9 24t6 12q10 10 16 3q3 -4 1 -13q-3 -9 -12 -27q-5 -9 -8 -16l-5 -12q-21 -50 -33 -69q-35 -54 -64 -81q-30 -29 -75 -39z
M76 219q13 -9 62 32l5.5 5.5t9.5 8.5t10 9l6 6t5 5.5l7 8.5q7 9 12 18q9 17 6 32q-3 16 -16 23q-18 9 -36 -2t-30 -30q-23 -32 -39 -87q-9 -22 -1 -27z" />
    <glyph glyph-name="Edotaccent" unicode="&#x116;" horiz-adv-x="431" 
d="M358 906q-12 -8 -27 -6q-15 1 -24 9q-16 16 -6 34q4 15 24 21q17 6 36 -1q17 -14 17 -30q0 -20 -18 -30zM229 -10q-36 0 -67 7q-17 4 -33.5 10.5t-33.5 15.5q-34 18 -58 45t-36 72q-12 46 -5 101q4 41 17 81q6 19 12.5 34.5t13.5 28.5q13 25 35 47t37 33t39 22
q22 10 36 15q13 4 33 9q19 4 22 6q-17 13 -24 21q-8 7 -21 27q-13 18 -19 45q-6 24 -4 57q4 64 44 102t98 38q22 0 39 -6t23 -12l7.5 -7.5t9.5 -11.5q4 -9 -3 -13t-13 6q-16 28 -63 28q-26 0 -47 -34q-21 -35 -24 -103q-2 -35 12 -66q13 -32 30 -48q8 -8 17 -15.5l18 -15.5
t14 -11.5t6 -4.5q7 -11 0 -18q-8 -8 -18 -3l-8 6q-6 4 -11 6q-2 1 -5 2t-7 3q-9 4 -17 5q-5 1 -10 1.5t-11 0.5q-51 0 -90 -43q-38 -43 -55 -99t-18 -108q-2 -84 36 -149q37 -65 111 -63q17 0 32 3q16 3 29 9t24 12q9 5 21 17l18 18q7 7 15 18l11 17q2 3 4 6.5t4 8.5
q4 8 6 10q13 24 24 21t-1 -40q-17 -52 -67 -93q-51 -42 -125 -42z" />
    <glyph glyph-name="edotaccent" unicode="&#x117;" horiz-adv-x="287" 
d="M205 479q-12 -8 -27 -6q-15 1 -24 9q-16 16 -6 34q4 15 24 21q17 6 36 -1q17 -14 17 -30q0 -20 -18 -30zM128 -6q-15 -5 -43 -2q-30 3 -48 15q-20 12 -33 46q-29 83 19 201q7 16 16 32t21 33q25 35 46 50q70 49 108 12q20 -18 14 -43t-21 -46q-8 -11 -17.5 -20.5
t-20.5 -19.5q-44 -39 -81 -63q-13 -11 -14 -27v-41.5t1 -22.5q0 -20 9 -39t23 -25q39 -15 90 35q52 50 86 120q6 12 12 27t9 24t6 12q10 10 16 3q3 -4 1 -13q-3 -9 -12 -27q-5 -9 -8 -16l-5 -12q-21 -50 -33 -69q-35 -54 -64 -81q-30 -29 -75 -39zM74 219q13 -9 62 32
l5.5 5.5t9.5 8.5t10 9l6 6t5 5.5l7 8.5q7 9 12 18q9 17 6 32q-3 16 -16 23q-18 9 -36 -2t-30 -30q-23 -32 -39 -87q-9 -22 -1 -27z" />
    <glyph glyph-name="Eogonek" unicode="&#x118;" horiz-adv-x="431" 
d="M401 145q13 24 24 21t-1 -40q-15 -47 -61 -87t-114 -46q-4 -13 -12 -22l-15.5 -19.5l-10.5 -13.5q-6 -9 -19 -31q-11 -20 -16 -40q-7 -38 2 -54q9 -15 44 0q13 52 21 57q5 5 11 -5q11 -17 -4 -43q-15 -27 -33 -36q-20 -11 -27 -12q-8 -2 -27 6q-20 10 -39 36
q-25 34 23 105q38 54 52 66q-40 4 -77 20q-36 15 -68 44t-47 76q-15 49 -8 110q4 41 17 81q6 19 12.5 34.5t13.5 28.5q13 25 35 47t37 33t39 22q22 10 36 15q13 4 33 9q19 4 22 6q-17 13 -24 21q-8 7 -21 27q-13 18 -19 45q-6 24 -4 57q4 64 44 102t98 38q22 0 39 -6t23 -12
l7.5 -7.5t9.5 -11.5q4 -9 -3 -13t-13 6q-16 28 -63 28q-26 0 -47 -34q-21 -35 -24 -103q-2 -35 12 -66q13 -32 30 -48q8 -8 17 -15.5l18 -15.5t14 -11.5t6 -4.5q7 -11 0 -18q-8 -8 -18 -3l-8 6q-6 4 -11 6q-2 1 -5 2t-7 3q-9 4 -17 5q-5 1 -10 1.5t-11 0.5q-51 0 -90 -43
q-38 -43 -55 -99t-18 -108q-2 -84 36 -149q37 -65 111 -63q17 0 32 3q16 3 29 9t24 12q9 5 21 17l18 18q7 7 15 18l11 17q2 3 4 6.5t4 8.5q4 8 6 10z" />
    <glyph glyph-name="eogonek" unicode="&#x119;" horiz-adv-x="287" 
d="M324 255q3 -4 1 -13q-3 -9 -12 -27q-5 -9 -8 -16l-5 -12q-21 -50 -33 -69q-35 -54 -64 -81q-30 -29 -75 -39q0 -12 -12 -27l-15.5 -19.5l-10.5 -13.5q-6 -9 -19 -31q-11 -20 -16 -40q-7 -38 2 -54q9 -15 44 0q13 52 21 57q6 2 11 -6q11 -17 -4 -43q-15 -27 -33 -36
q-20 -11 -27 -12q-8 -2 -27 6q-20 10 -39 36q-25 34 23 105q34 51 55 70q-26 4 -42 15q-20 12 -33 46q-29 83 19 201q7 16 16 32t21 33q25 35 46 50q70 49 108 12q20 -18 14 -43t-21 -46q-8 -11 -17.5 -20.5t-20.5 -19.5q-44 -39 -81 -63q-13 -11 -14 -27v-41.5t1 -22.5
q0 -20 9 -39t23 -25q39 -15 90 35q52 50 86 120q6 12 12 27t9 24t6 12q10 10 16 3zM75 250q-9 -22 -1 -27q13 -9 62 32l5.5 5.5t9.5 8.5t10 9l6 6t5 5.5l7 8.5q7 9 12 18q9 17 6 32q-3 16 -16 23q-18 9 -36 -2t-30 -30q-23 -32 -39 -87z" />
    <glyph glyph-name="Ecaron" unicode="&#x11a;" horiz-adv-x="431" 
d="M300 866q-23 3 -32 25l-15.5 40.5t-19.5 45.5l-3 14q1 10 3 18q4 13 16 16t21 -8q5 -6 12 -18l17 -30l6 -18q4 -14 9 -21q2 -4 8 -12q5 -7 8 -5q6 0 21 15l15 20q14 19 24 26q10 9 66 48q1 1 3 1h5h5v-3v-3v-3q0 -2 -1 -3l-34 -27q-3 -2 -7 -5l-9 -7l-21 -18q-8 -5 -8 -6
q-11 -23 -57 -60q-2 0 -2 -2q-8 -20 -33 -18zM234 -15q-36 0 -67 7q-17 4 -33.5 10.5t-33.5 15.5q-34 18 -58 45t-36 72q-12 46 -5 101q4 41 17 81q6 19 12.5 34.5t13.5 28.5q13 25 35 47t37 33t39 22q22 10 36 15q13 4 33 9q19 4 22 6q-17 13 -24 21q-8 7 -21 27
q-13 18 -19 45q-6 24 -4 57q4 64 44 102t98 38q22 0 39 -6t23 -12l7.5 -7.5t9.5 -11.5q4 -9 -3 -13t-13 6q-16 28 -63 28q-26 0 -47 -34q-21 -35 -24 -103q-2 -35 12 -66q13 -32 30 -48q8 -8 17 -15.5l18 -15.5t14 -11.5t6 -4.5q7 -11 0 -18q-8 -8 -18 -3l-8 6q-6 4 -11 6
q-2 1 -5 2t-7 3q-9 4 -17 5q-5 1 -10 1.5t-11 0.5q-51 0 -90 -43q-38 -43 -55 -99t-18 -108q-2 -84 36 -149q37 -65 111 -63q17 0 32 3q16 3 29 9t24 12q9 5 21 17l18 18q7 7 15 18l11 17q2 3 4 6.5t4 8.5q4 8 6 10q13 24 24 21t-1 -40q-17 -52 -67 -93q-51 -42 -125 -42z
" />
    <glyph glyph-name="ecaron" unicode="&#x11b;" horiz-adv-x="287" 
d="M147 439q-23 3 -32 25l-15.5 40.5t-19.5 45.5l-3 14q1 10 3 18q4 13 16 16t21 -8q5 -6 12 -18l17 -30l6 -18q4 -14 9 -21q2 -4 8 -12q5 -7 8 -5q6 0 21 15l15 20q14 19 24 26q10 9 66 48q1 1 3 1h5h5v-3v-3v-3q0 -2 -1 -3l-34 -27q-3 -2 -7 -5l-9 -7l-21 -18q-8 -5 -8 -6
q-11 -23 -57 -60q-2 0 -2 -2q-8 -20 -33 -18zM133 -11q-15 -5 -43 -2q-30 3 -48 15q-20 12 -33 46q-29 83 19 201q7 16 16 32t21 33q25 35 46 50q70 49 108 12q20 -18 14 -43t-21 -46q-8 -11 -17.5 -20.5t-20.5 -19.5q-44 -39 -81 -63q-13 -11 -14 -27v-41.5t1 -22.5
q0 -20 9 -39t23 -25q39 -15 90 35q52 50 86 120q6 12 12 27t9 24t6 12q10 10 16 3q3 -4 1 -13q-3 -9 -12 -27q-5 -9 -8 -16l-5 -12q-21 -50 -33 -69q-35 -54 -64 -81q-30 -29 -75 -39zM79 214q13 -9 62 32l5.5 5.5t9.5 8.5t10 9l6 6t5 5.5l7 8.5q7 9 12 18q9 17 6 32
q-3 16 -16 23q-18 9 -36 -2t-30 -30q-23 -32 -39 -87q-9 -22 -1 -27z" />
    <glyph glyph-name="Gcommaaccent" unicode="&#x122;" horiz-adv-x="540" 
d="M579 287q14 9 21 2t-6 -19q-10 -8 -152 -98q-10 -41 -22.5 -84t-27.5 -90q-34 -109 -101 -190q-66 -79 -142 -79q-38 0 -64 17q-25 16 -34 41q-9 24 -6 51q3 26 17 51q23 40 107 111l80.5 66t74.5 57q2 0 5 3q2 2 3 2.5t2 1.5q21 88 27 132q-9 -13 -19 -26l-21 -27
t-24.5 -28.5l-30.5 -31.5q-34 -34 -70 -54q-38 -21 -69 -21q-74 2 -108 52t-28 168q6 111 41 209q35 97 84 158t108 96t114 35q37 0 63 -18q25 -18 34 -46q9 -29 12 -48q3 -22 2 -36q-2 -17 -9 -17q-11 1 -12 24q0 15 -8 42q-8 26 -30 53q-23 27 -52 27q-53 0 -102 -49
t-82 -120t-54 -141q-20 -68 -25 -123q-20 -219 54 -231q31 -4 64 15q34 20 53 42q10 11 24 28.5l32 40.5q36 46 48 60q28 34 42 69q7 17 12.5 36t10.5 39q9 38 20 63q20 47 39 32q20 -14 17 -56l-1 -5q-11 -130 -39 -260l25.5 15.5t31.5 19.5l30.5 19t22.5 14l14.5 9.5
t7.5 5.5zM142 -251q29 5 54 31q26 28 45 67q19 40 33 78q13 37 24 78q19 78 24 93q-59 -42 -139 -112q-82 -71 -101 -105q-14 -29 -15 -60q-2 -32 21 -54q22 -22 60 -16h-6zM195 -295q20 0 30 -13t4 -27q-4 -8 -7.5 -17t-8.5 -20l-8.5 -18.5t-5.5 -12.5l-12 -21
q-7 -11 -18 -22q-17 -17 -33 -6q-10 13 24 109q1 2 1.5 5t2.5 8t3 8.5t2 5.5t2 4.5t3 5.5q3 5 8 9q4 3 12 3z" />
    <glyph glyph-name="gcommaaccent" unicode="&#x123;" horiz-adv-x="367" 
d="M232 503q-14 -11 -30 -3q-17 7 -15 21q6 37 14 60q7 20 26 50q8 8 22 10q13 1 18 -5q7 -12 -12 -61q-5 -14 -8 -38q-3 -26 -13 -33zM65 -420q-38 18 -33 74q4 54 29 119q24 63 59 113l39 54q30 40 39 57q8 26 8 59q0 10 3 27q2 8 2.5 14t1.5 9q2 6 0 11q-4 3 -12 -8
t-18 -30q-5 -10 -11 -19.5l-12 -19.5q-11 -19 -32 -36q-20 -17 -42 -21q-21 -4 -46 8q-24 12 -36 34q-22 52 -7 138q15 85 68 156q26 37 69 61q42 24 81 18q15 -2 24 -13q9 -12 9 -28q0 -28 -12 -47q-6 -6 -13 -6q-14 0 -6 32t-3 35q-49 16 -94 -48q-37 -53 -49 -136
q-12 -81 2 -132q3 -15 18 -18q14 -3 25 5q27 20 61 66q32 43 52 107q1 5 2 12t3 16t2.5 15.5t1.5 11.5q2 10 6 20t9 15q11 11 24 13q12 2 14 -11q5 -30 3 -89q-2 -45 -3 -76t-2 -49q-2 -9 0 -11t9 1q43 21 96 143q1 4 6 10q5 7 8 5q13 -3 6 -21q-3 -12 -21 -50
q-10 -21 -24 -43q-14 -21 -24 -33l-27 -30q-17 -18 -21 -24q-1 -3 -3 -15.5t-7 -35.5t-9.5 -48.5l-9.5 -54.5q-11 -59 -15 -84q-13 -71 -41 -127q-27 -53 -56 -75q-43 -31 -79 -15zM70 -396q35 -20 59 45q37 101 66 245q13 61 4 63q-4 3 -42 -56l-31.5 -49t-18.5 -31
q-34 -60 -47 -127q-13 -69 10 -88v-2z" />
    <glyph glyph-name="Imacron" unicode="&#x12a;" horiz-adv-x="407" 
d="M460 878q-186 40 -279 30q-49 -6 -60 14q-8 10 9 15h11q5 -1 27 -1h60q76 0 138 -6t91 -22q24 -14 15 -27q-5 -8 -12 -6v3zM87 -12q-38 3 -61 23q-23 19 -27 39q-5 20 -3 41q2 43 15 71q6 14 17 14t8 -19q0 -1 -0.5 -3t-1.5 -7q-2 -9 -3 -15q-2 -6 -3 -18q-1 -6 -1 -10.5
v-8.5v-19q0 -12 3 -19q2 -4 4 -7.5t4 -8.5q4 -8 12 -13q9 -5 18 -8q10 -3 24 -3q31 0 60 24t48 61q10 19 18 37t14 35t10.5 33.5l8.5 32.5q7 34 15 88t17 129q18 151 24 220q1 7 1.5 15t2.5 18t2.5 17.5t1.5 12.5t1.5 11t0.5 12q0 14 -1 18q-1 5 -6 7q-53 18 -165 -49
q-13 -7 -15 2q-1 6 8 12q35 22 89 42t84 17q37 -3 51 -24q14 -22 14 -92q0 -95 -15 -240q-15 -143 -41 -225q-33 -101 -96 -171q-63 -71 -136 -65z" />
    <glyph glyph-name="imacron" unicode="&#x12b;" horiz-adv-x="233" 
d="M285 498q-186 40 -279 30q-49 -6 -60 14q-8 10 9 15h11q5 -1 27 -1h60q76 0 138 -6t91 -22q24 -14 15 -27q-5 -8 -12 -6v3zM102 -1q-54 -10 -78 20t-12 95q6 33 10.5 55t6.5 33l21 99q13 63 15 74q8 19 13 20q18 8 33 -1t15 -28q0 -36 -21 -151q-23 -122 -24 -144
q-1 -19 8 -28t20 -9q26 0 63 46q13 16 39 65q25 47 39 86q4 12 12 9q7 -3 3 -15q-2 -6 -6 -15q-5 -9 -6 -15q-70 -181 -153 -196h2z" />
    <glyph glyph-name="Iogonek" unicode="&#x12e;" horiz-adv-x="407" 
d="M305 812q37 -3 51 -24q14 -22 14 -92q0 -95 -15 -240q-15 -143 -41 -225q-46 -138 -130 -202l-4 -6l-3 -3l-15.5 -19.5l-10.5 -13.5q-6 -9 -19 -31q-11 -20 -16 -40q-7 -38 2 -54q9 -15 44 0q13 52 21 57q6 2 11 -6q11 -17 -4 -43q-15 -27 -33 -36q-20 -11 -27 -12
q-8 -2 -27 6q-20 10 -39 36q-25 34 23 105l13 19h-16q-38 3 -61 23q-23 19 -27 39q-5 20 -3 41q2 43 15 71q6 14 17 14t8 -19q0 -1 -0.5 -3t-1.5 -7q-2 -9 -3 -15q-2 -6 -3 -18q-1 -6 -1 -10.5v-8.5v-19q0 -12 3 -19q2 -4 4 -7.5t4 -8.5q4 -8 12 -13q9 -5 18 -8q10 -3 24 -3
q25 0 48 14q3 3 7 6.5l9 7.5q1 1 7 4q62 62 90 190q7 34 15 88t17 129q18 151 24 220q1 7 1.5 15t2.5 18t2.5 17.5t1.5 12.5t1.5 11t0.5 12q0 14 -1 18q-1 5 -6 7q-53 18 -165 -49q-13 -7 -15 2q-1 6 8 12q35 22 89 42t84 17z" />
    <glyph glyph-name="iogonek" unicode="&#x12f;" horiz-adv-x="233" 
d="M85 505q-16 16 -6 34q4 15 24 21q17 6 36 -1q17 -14 17 -30q0 -20 -18 -30q-12 -8 -27 -6q-15 1 -24 9zM261 248q7 -3 3 -15q-2 -6 -6 -15q-5 -9 -6 -15q-70 -181 -153 -196q-7 -1 -12 -1.5t-9 -0.5q-5 -12 -10 -18l-15.5 -19.5l-10.5 -13.5q-6 -9 -19 -31
q-11 -20 -16 -40q-7 -38 2 -54q9 -15 44 0q13 52 21 57q5 5 11 -5q11 -17 -4 -43q-15 -27 -33 -36q-20 -11 -27 -12q-8 -2 -27 6q-20 10 -39 36q-25 34 23 105q43 60 57 71q-40 27 -25 107q6 33 10.5 55t6.5 33l21 99q13 63 15 74q8 19 13 20q18 8 33 -1t15 -28
q0 -36 -21 -151q-23 -122 -24 -144q-1 -19 8 -28t20 -9q26 0 63 46q13 16 39 65q25 47 39 86q4 12 12 9z" />
    <glyph glyph-name="dotlessi" unicode="&#x131;" horiz-adv-x="233" 
d="M102 -4q-54 -10 -78 20t-12 95q6 33 10.5 55t6.5 33l21 99q13 63 15 74q8 19 13 20q18 8 33 -1t15 -28q0 -36 -21 -151q-23 -122 -24 -144q-1 -19 8 -28t20 -9q26 0 63 46q13 16 39 65q25 47 39 86q4 12 12 9q7 -3 3 -15q-2 -6 -6 -15q-5 -9 -6 -15q-70 -181 -153 -196h2
z" />
    <glyph glyph-name="IJ" unicode="&#x132;" horiz-adv-x="683" 
d="M770 342q13 10 21 -2q6 -10 -8 -21q-11 -9 -186 -117q-17 -93 -30 -131q-34 -109 -101 -190q-66 -79 -142 -79q-38 0 -64 17q-25 16 -34 41q-9 24 -6 51q3 26 17 51q25 41 111 109q85 67 150 105l3 2q40 175 51 249q2 14 7 44l13 75t14.5 85.5l12.5 77.5l9.5 58.5
t4.5 28.5q-23 15 -258 -9q19 -19 19 -99q0 -95 -15 -240q-15 -143 -41 -225q-33 -101 -96 -171q-63 -71 -136 -65q-38 3 -61 23q-23 19 -27 39q-5 20 -3 41q2 43 15 71q6 14 17 14t8 -19q0 -1 -0.5 -3t-1.5 -7q-2 -9 -3 -15q-2 -6 -3 -18q-1 -6 -1 -10.5v-8.5v-19
q0 -12 3 -19q2 -4 4 -7.5t4 -8.5q4 -8 12 -13q9 -5 18 -8q10 -3 24 -3q31 0 60 24t48 61q10 19 18 37t14 35t10.5 33.5l8.5 32.5q7 34 15 88t17 129q18 151 24 220q1 7 1.5 15t2.5 18t2.5 17.5t1.5 12.5t1.5 11t0.5 12q0 14 -1 18q-1 5 -6 7q-53 18 -165 -49q-13 -7 -15 2
q-1 6 8 12q37 22 87 41q52 19 84 18q20 2 60 5.5l101 8.5t97.5 7t48.5 1q31 -1 46 -25q15 -23 7 -91q-1 -4 -4 -30l-9 -75l-12 -97t-13 -96q-14 -96 -27 -174q155 96 167 105v-8zM320 -177q29 5 54 31q26 28 45 67q19 40 33 78q13 37 24 78q8 25 15 64q-33 -20 -67.5 -44.5
t-71.5 -53.5q-74 -57 -93 -90q-14 -29 -15 -60q-2 -32 21 -54q22 -22 60 -16h-5z" />
    <glyph glyph-name="ij" unicode="&#x133;" horiz-adv-x="393" 
d="M85 505q-16 16 -6 34q4 15 24 21q17 6 36 -1q17 -14 17 -30q0 -20 -18 -30q-12 -8 -27 -6q-15 1 -24 9zM282 508q-16 16 -6 34q4 15 24 21q17 6 36 -1q17 -14 17 -30q0 -20 -18 -30q-12 -8 -27 -6q-15 1 -24 9zM429 251q13 -3 6 -21q-3 -12 -21 -50q-10 -21 -24 -43
q-14 -21 -24 -33l-27 -30q-17 -18 -21 -24q-9 -26 -18 -78q-9 -51 -17.5 -91t-16.5 -72q-16 -52 -44 -113q-26 -57 -53 -87q-17 -18 -40 -21q-24 -3 -39 6q-38 18 -33 74q4 54 29 119q24 63 59 113q72 105 81 120l12 21q3 14 5 31.5t3 38.5l6 95v2q0 -2 -1 -4t-3 -4
q-70 -181 -153 -196q-54 -10 -78 20t-12 95q6 33 10.5 55t6.5 33l21 99q13 63 15 74q8 19 13 20q18 8 33 -1t15 -28q0 -36 -21 -151q-23 -122 -24 -144q-1 -19 8 -28t20 -9q26 0 63 46q13 16 39 65q25 47 39 86q4 10 12 9q0 2 0.5 6.5t1.5 12.5q1 14 3 22l2 13q2 10 3 22
q1 7 1.5 12t0.5 9q0 5 2 15q2 9 4 12q4 6 6 8q8 10 21 11q15 3 20 -5q4 -4 5 -6l3 -6q2 -4 2 -9v-9v-11v-11q-1 -10 -1.5 -19.5t-1.5 -18.5q0 -13 -6 -79t-9 -111q-2 -9 0 -11t9 1q43 21 96 143q1 4 6 10q5 7 8 5h-2zM219 -95q13 61 4 63q-4 3 -42 -56l-31.5 -49t-18.5 -31
q-34 -60 -47 -127q-13 -69 10 -88q35 -20 59 45q37 101 66 245v-2z" />
    <glyph glyph-name="Kcommaaccent" unicode="&#x136;" horiz-adv-x="644" 
d="M344 580q-3 -73 -8.5 -130t-13.5 -99q-38 -204 -94 -291q-57 -88 -139 -54q-40 16 -42 68q-2 53 28 122q15 35 33 70.5t38 70.5q40 70 90 138q3 5 10 14.5l18 23.5q10 67 15 111q22 159 -19 159q-28 0 -67 -14q-38 -14 -57 -24q-20 -11 -30 -18q-14 -9 -24 -5q-6 3 9 14
l25.5 15t37.5 20q43 22 71 30q22 4 50 6t50 -16q23 -18 23 -56q1 -53 0 -108q129 158 188 144q24 -4 33 -20q9 -15 6 -30q0 -3 -1 -6t-1 -6l-2 -6q-2 -5 -3 -6t-2 -1.5t-3 -2.5q-3 -3 -7 -2q-5 1 -12 0q-17 2 -23 23q-6 22 -12 23q-14 2 -57 -31t-76 -79l-13.5 -18
t-14.5 -19zM635 -36q10 -1 10 -7q1 -8 -12 -9q-55 -9 -100 24q-21 16 -30 24q-8 6 -28 33q-19 25 -27 53q-4 14 -7 33t-6 45q-6 53 -2 115l6 98q1 17 1.5 34t0.5 35q0 36 -3 51t-8 20q-18 14 -38 12q-7 -1 -12 8q-4 9 9 13q65 6 90 -10q8 -5 14 -12q5 -6 10 -18l4 -10l4 -10
q4 -11 5 -27q1 -17 3 -28q1 -5 1.5 -13.5t0.5 -19.5v-35v-40v-40v-94q0 -30 3 -76q3 -47 12 -72q9 -26 24 -39q15 -14 30 -22q13 -7 20 -7h6.5t7.5 1q5 1 9 1zM93 15q31 -11 57 18q25 28 42 84q16 54 27 107q10 50 18 110q4 29 6 47t3 24q8 36 12 61l-4 -7q-2 -5 -21 -36
l-19.5 -32.5t-20.5 -33.5t-22 -37.5l-24 -43.5t-24 -45t-20 -43q-18 -42 -30 -81q-12 -38 -7 -64q4 -26 27 -33v5zM355 -59q20 0 30 -13t4 -27q-4 -8 -7.5 -17t-8.5 -20l-8.5 -18.5t-5.5 -12.5l-12 -21q-7 -11 -18 -22q-17 -17 -33 -6q-10 13 24 109q1 2 1.5 5t2.5 8t3 8.5
t2 5.5t2 4.5t3 5.5q3 5 8 9q4 3 12 3z" />
    <glyph glyph-name="kcommaaccent" unicode="&#x137;" horiz-adv-x="381" 
d="M254 -27q-23 -6 -39 15q-23 29 -23 109q0 18 -9 32t-23 8l-17 -8q-11 -5 -14 8q-2 9 9 18q10 9 21 12q17 3 32 20q15 16 21 32q13 25 15 56q2 30 -12 47q-16 13 -57 -53l-27 -48q-29 -53 -38 -100q-18 -82 -31 -109q-6 -16 -13 -21t-13 -7q-4 -1 -22 -1q-15 0 -16 24
q-1 22 2 37q5 87 14.5 163t23.5 142q39 190 75 270q31 73 51 99q34 43 75 43q23 0 36 -16t9 -43q-17 -122 -78 -246l-36 -71.5l-45 -83.5q-8 -15 -14 -32q-3 -9 -4.5 -16.5l-2.5 -12.5q-2 -11 0 -14q4 -1 13 15q16 33 42 71q27 40 40 48q27 21 57 0t30 -60q0 -43 -26 -77
l-16 -19l-16 -19l-4.5 -6t-2.5 -3q-5 -6 -2 -12q1 -2 3 -5t5 -8q6 -11 9 -15q2 -2 3.5 -5.5l3.5 -8.5q5 -9 6 -19q4 -41 12 -61q7 -20 24 -12q34 18 68 90q35 73 51 130q3 13 12 22q1 1 6 0q7 0 7 -8q0 -5 -9 -30q-47 -125 -75 -168q-47 -72 -87 -81zM115 340q4 -7 15 8
q5 8 9.5 16l9.5 17q58 120 78 182q48 145 32 161q-19 19 -46 -3q-31 -25 -51 -98q-75 -270 -48 -283h1zM107 -211q-10 13 24 109q1 2 1.5 5t2.5 8t3 8.5t2 5.5t2 4.5t3 5.5q3 5 8 9q4 3 12 3q20 0 30 -13t4 -27q-4 -8 -7.5 -17t-8.5 -20l-8.5 -18.5t-5.5 -12.5l-12 -21
q-7 -11 -18 -22q-17 -17 -33 -6z" />
    <glyph glyph-name="Lacute" unicode="&#x139;" horiz-adv-x="415" 
d="M318 847q-19 -14 -32 1q-12 25 44 99q12 15 27 27q16 12 23 11q13 -5 24 -18q11 -14 2 -24q-21 -26 -36 -42l-15 -15.5l-15 -15.5l-14 -14.5l-11 -11.5zM959 -87q7 15 21 10q13 -5 6 -27q-49 -139 -215 -144q-72 -1 -156 38q-84 40 -188 114l-83.5 59t-39.5 26l-42 24
t-39 20q-60 -80 -149 -119q-64 -28 -118 -4t-54 81q0 59 48 89q47 29 115 31q71 0 132 -14q35 73 49 147q6 31 15 92t20 154q22 184 24 195q17 96 3 104q-25 15 -85 -9q-61 -24 -91 -43q-16 -10 -22 -4t14 18q34 22 104 48q69 26 107 9q23 -9 32 -28t6 -61q-1 -5 -2.5 -28.5
l-4.5 -67.5t-6 -79.5t-5 -63.5q-5 -56 -15 -132q-10 -75 -21 -118q-22 -83 -60 -151q26 -10 52.5 -22.5t55.5 -29.5q35 -20 118 -85q42 -33 82.5 -61.5t78.5 -52.5q76 -47 134 -49q122 -5 186 130q1 2 3 4h-10zM62 -60q53 20 108 112q-69 26 -113 26q-19 0 -40 -3
q-20 -3 -43 -12q-22 -9 -37 -27t-15 -44q0 -34 24 -49q25 -15 54 -14q32 2 63 13z" />
    <glyph glyph-name="lacute" unicode="&#x13a;" horiz-adv-x="260" 
d="M240 841q-19 -14 -32 1q-12 25 44 99q12 15 27 27q16 12 23 11q13 -5 24 -18q11 -14 2 -24q-21 -26 -36 -42l-15 -15.5l-15 -15.5l-14 -14.5l-11 -11.5zM109 -16q-47 0 -74 36q-26 35 -31 81q-7 73 9 232q12 114 56 251q43 134 95 186q25 25 60 26q22 1 36 -20
q13 -21 15 -54q1 -85 -26 -161q-14 -38 -34 -78t-48 -83l-38.5 -60.5t-28.5 -40.5q-14 -18 -15 -57q-7 -137 11 -178q9 -19 26 -27t27 -5q6 2 9 4l9 6q6 4 9 7l8 8q5 5 8 9q6 8 7 9q2 2 7 10q2 4 3.5 6t2.5 4t2.5 4t3.5 6t3.5 6t2.5 4q34 55 66 144q6 14 19 10q6 -2 0 -18
q-4 -9 -11 -27.5l-18 -47.5q-20 -55 -39 -91q-18 -35 -45 -66q-25 -31 -83 -31zM101 346q4 -2 24 30l3 3l24 42l17 29.5t16 25.5t11.5 18.5t4.5 7.5q28 49 42 126t6 113q-3 16 -7 21q-5 6 -12 5q-15 -2 -29 -19t-24 -38q-32 -77 -75 -282q-16 -76 -4 -81z" />
    <glyph glyph-name="Lcommaaccent" unicode="&#x13b;" horiz-adv-x="415" 
d="M956 -90q7 15 21 10q13 -5 6 -27q-49 -139 -215 -144q-72 -1 -156 38q-84 40 -188 114l-83.5 59t-39.5 26l-42 24t-39 20q-60 -80 -149 -119q-64 -28 -118 -4t-54 81q0 59 48 89q47 29 115 31q71 0 132 -14q35 73 49 147q6 31 15 92t20 154q22 184 24 195q17 96 3 104
q-25 15 -85 -9q-61 -24 -91 -43q-16 -10 -22 -4t14 18q34 22 104 48q69 26 107 9q23 -9 32 -28t6 -61q-1 -5 -2.5 -28.5l-4.5 -67.5t-6 -79.5t-5 -63.5q-5 -56 -15 -132q-10 -75 -21 -118q-22 -83 -60 -151q26 -10 52.5 -22.5t55.5 -29.5q35 -20 118 -85q42 -33 82.5 -61.5
t78.5 -52.5q76 -47 134 -49q122 -5 186 130q1 2 3 4h-10zM59 -63q53 20 108 112q-69 26 -113 26q-19 0 -40 -3q-20 -3 -43 -12q-22 -9 -37 -27t-15 -44q0 -34 24 -49q25 -15 54 -14q32 2 63 13zM221 -89q20 0 30 -13t4 -27q-4 -8 -7.5 -17t-8.5 -20l-8.5 -18.5t-5.5 -12.5
l-12 -21q-7 -11 -18 -22q-17 -17 -33 -6q-10 13 24 109q1 2 1.5 5t2.5 8t3 8.5t2 5.5t2 4.5t3 5.5q3 5 8 9q4 3 12 3z" />
    <glyph glyph-name="lcommaaccent" unicode="&#x13c;" horiz-adv-x="260" 
d="M106 -19q-47 0 -74 36q-26 35 -31 81q-7 73 9 232q12 114 56 251q43 134 95 186q25 25 60 26q22 1 36 -20q13 -21 15 -54q1 -85 -26 -161q-14 -38 -34 -78t-48 -83l-38.5 -60.5t-28.5 -40.5q-14 -18 -15 -57q-7 -137 11 -178q9 -19 26 -27t27 -5q6 2 9 4l9 6q6 4 9 7l8 8
q5 5 8 9q6 8 7 9q2 2 7 10q2 4 3.5 6t2.5 4t2.5 4t3.5 6t3.5 6t2.5 4q34 55 66 144q6 14 19 10q6 -2 0 -18q-4 -9 -11 -27.5l-18 -47.5q-20 -55 -39 -91q-18 -35 -45 -66q-25 -31 -83 -31zM98 343q4 -2 24 30l3 3l24 42l17 29.5t16 25.5t11.5 18.5t4.5 7.5q28 49 42 126
t6 113q-3 16 -7 21q-5 6 -12 5q-15 -2 -29 -19t-24 -38q-32 -77 -75 -282q-16 -76 -4 -81zM95 -204q-10 13 24 109q1 2 1.5 5t2.5 8t3 8.5t2 5.5t2 4.5t3 5.5q3 5 8 9q4 3 12 3q20 0 30 -13t4 -27q-4 -8 -7.5 -17t-8.5 -20l-8.5 -18.5t-5.5 -12.5l-12 -21q-7 -11 -18 -22
q-17 -17 -33 -6z" />
    <glyph glyph-name="Lcaron" unicode="&#x13d;" horiz-adv-x="415" 
d="M956 -90q7 15 21 10q13 -5 6 -27q-49 -139 -215 -144q-72 -1 -156 38q-84 40 -188 114l-83.5 59t-39.5 26l-42 24t-39 20q-60 -80 -149 -119q-64 -28 -118 -4t-54 81q0 59 48 89q47 29 115 31q71 0 132 -14q35 73 49 147q6 31 15 92t20 154q22 184 24 195q17 96 3 104
q-25 15 -85 -9q-61 -24 -91 -43q-16 -10 -22 -4t14 18q34 22 104 48q69 26 107 9q23 -9 32 -28t6 -61q-1 -5 -2.5 -28.5l-4.5 -67.5t-6 -79.5t-5 -63.5q-5 -56 -15 -132q-10 -75 -21 -118q-22 -83 -60 -151q26 -10 52.5 -22.5t55.5 -29.5q35 -20 118 -85q42 -33 82.5 -61.5
t78.5 -52.5q76 -47 134 -49q122 -5 186 130q1 2 3 4h-10zM446 559q-21 -21 -32 -12q-1 5 -1 8.5v5.5q0 3 6 18q7 17 8 23q4 13 5 29q1 9 2 16.5t3 13.5q3 11 11 18q14 11 29 5t18 -22q5 -11 2 -24q-3 -14 -3 -19t-8 -16q-4 -5 -6.5 -9t-4.5 -6q-4 -6 -13 -15l-15 -15z
M58 -62q53 20 108 112q-69 26 -113 26q-19 0 -40 -3q-20 -3 -43 -12q-22 -9 -37 -27t-15 -44q0 -34 24 -49q25 -15 54 -14q32 2 63 13z" />
    <glyph glyph-name="lcaron" unicode="&#x13e;" horiz-adv-x="261" 
d="M106 -19q-47 0 -74 36q-26 35 -31 81q-7 73 9 232q12 114 56 251q43 134 95 186q25 25 60 26q22 1 36 -20q13 -21 15 -54q1 -85 -26 -161q-14 -38 -34 -78t-48 -83l-38.5 -60.5t-28.5 -40.5q-14 -18 -15 -57q-7 -137 11 -178q9 -19 26 -27t27 -5q6 2 9 4l9 6q6 4 9 7l8 8
q5 5 8 9q6 8 7 9q2 2 7 10q2 4 3.5 6t2.5 4t2.5 4t3.5 6t3.5 6t2.5 4q34 55 66 144q6 14 19 10q6 -2 0 -18q-4 -9 -11 -27.5l-18 -47.5q-20 -55 -39 -91q-18 -35 -45 -66q-25 -31 -83 -31zM98 343q4 -2 24 30l3 3l24 42l17 29.5t16 25.5t11.5 18.5t4.5 7.5q28 49 42 126
t6 113q-3 16 -7 21q-5 6 -12 5q-15 -2 -29 -19t-24 -38q-32 -77 -75 -282q-16 -76 -4 -81zM289 586q-1 5 -1 8.5v5.5q0 3 6 18q7 17 8 23q4 13 5 29q1 9 2 16.5t3 13.5q3 11 11 18q14 11 29 5t18 -22q5 -11 2 -24q-3 -14 -3 -19t-8 -16q-4 -5 -6.5 -9t-4.5 -6q-4 -6 -13 -15
l-15 -15q-21 -21 -32 -12z" />
    <glyph glyph-name="Ldot" unicode="&#x13f;" horiz-adv-x="415" 
d="M956 -90q7 15 21 10q13 -5 6 -27q-49 -139 -215 -144q-72 -1 -156 38q-84 40 -188 114l-83.5 59t-39.5 26l-42 24t-39 20q-60 -80 -149 -119q-64 -28 -118 -4t-54 81q0 59 48 89q47 29 115 31q71 0 132 -14q35 73 49 147q6 31 15 92t20 154q22 184 24 195q17 96 3 104
q-25 15 -85 -9q-61 -24 -91 -43q-16 -10 -22 -4t14 18q34 22 104 48q69 26 107 9q23 -9 32 -28t6 -61q-1 -5 -2.5 -28.5l-4.5 -67.5t-6 -79.5t-5 -63.5q-5 -56 -15 -132q-10 -75 -21 -118q-22 -83 -60 -151q26 -10 52.5 -22.5t55.5 -29.5q35 -20 118 -85q42 -33 82.5 -61.5
t78.5 -52.5q76 -47 134 -49q122 -5 186 130q1 2 3 4h-10zM415 326q-16 16 -6 34q4 15 24 21q17 6 36 -1q17 -14 17 -30q0 -20 -18 -30q-12 -8 -27 -6q-15 1 -24 9zM57 -60q53 20 108 112q-69 26 -113 26q-19 0 -40 -3q-20 -3 -43 -12q-22 -9 -37 -27t-15 -44q0 -34 24 -49
q25 -15 54 -14q32 2 63 13z" />
    <glyph glyph-name="ldot" unicode="&#x140;" horiz-adv-x="261" 
d="M106 -19q-47 0 -74 36q-26 35 -31 81q-7 73 9 232q12 114 56 251q43 134 95 186q25 25 60 26q22 1 36 -20q13 -21 15 -54q1 -85 -26 -161q-14 -38 -34 -78t-48 -83l-38.5 -60.5t-28.5 -40.5q-14 -18 -15 -57q-7 -137 11 -178q9 -19 26 -27t27 -5q6 2 9 4l9 6q6 4 9 7l8 8
q5 5 8 9q6 8 7 9q2 2 7 10q2 4 3.5 6t2.5 4t2.5 4t3.5 6t3.5 6t2.5 4q34 55 66 144q6 14 19 10q6 -2 0 -18q-4 -9 -11 -27.5l-18 -47.5q-20 -55 -39 -91q-18 -35 -45 -66q-25 -31 -83 -31zM98 343q4 -2 24 30l3 3l24 42l17 29.5t16 25.5t11.5 18.5t4.5 7.5q28 49 42 126
t6 113q-3 16 -7 21q-5 6 -12 5q-15 -2 -29 -19t-24 -38q-32 -77 -75 -282q-16 -76 -4 -81zM191 223q-12 -8 -27 -6q-15 1 -24 9q-16 16 -6 34q4 15 24 21q17 6 36 -1q17 -14 17 -30q0 -20 -18 -30z" />
    <glyph glyph-name="Lslash" unicode="&#x141;" horiz-adv-x="415" 
d="M952 -92q7 15 21 10q13 -5 6 -27q-49 -139 -215 -144q-72 -1 -156 38q-84 40 -188 114l-83.5 59t-39.5 26l-42 24t-39 20q-60 -80 -149 -119q-64 -28 -118 -4t-54 81q0 59 48 89q47 29 115 31q71 0 132 -14q35 73 49 147q10 55 24 174q-47 -26 -90 -54l-16 -11
q-5 -4 -9 -6t-6 -4q-3 -2 -11 -6q-6 -3 -10 -3q-22 0 -1 29q70 58 153 105q2 18 5 40t6 48l5.5 47l4.5 37q4 31 6 45q17 96 3 104q-25 15 -85 -9q-61 -24 -91 -43q-16 -10 -22 -4t14 18q34 22 104 48q69 26 107 9q23 -9 32 -28t6 -61q-1 -11 -2.5 -35t-4.5 -61t-5 -65.5
t-4 -49.5q18 8 39 14.5l44 13.5q33 7 45 -6q8 -8 5 -13t-24 -16q-7 -3 -49 -19l-36 -14t-27 -11q-14 -152 -33 -225q-22 -83 -60 -151q26 -10 52.5 -22.5t55.5 -29.5q35 -20 118 -85q42 -33 82.5 -61.5t78.5 -52.5q76 -47 134 -49q122 -5 186 130q1 2 3 4zM55 -65
q53 20 108 112q-69 26 -113 26q-19 0 -40 -3q-20 -3 -43 -12q-22 -9 -37 -27t-15 -44q0 -34 24 -49q25 -15 54 -14q32 2 63 13z" />
    <glyph glyph-name="lslash" unicode="&#x142;" horiz-adv-x="261" 
d="M229 733q-17 4 -42 10.5t-57 17.5q-65 21 -96 21q-5 0 -13 -2q-5 -1 -10 -6q-3 -3 -7 -9q-2 -3 -6 -11q-2 -4 -4 -12t-3 -13q-2 -10 -2 -12q0 -6 -1 -9t-1 -6q-2 -17 -14 -6q-10 9 -9 19q5 110 123 104q35 -1 118 -23q41 -11 65 -16.5t32 -6.5q48 -5 72 9q11 6 14 -3
t-9 -15q-2 -2 -12 -9q-9 -7 -20 -12q-7 -4 -28 -10q-20 -6 -37 -6q-9 0 -21 1.5t-26 3.5zM120 536q-11 -47 -24 -111q-5 -22 -10 -67.5t-10 -116.5q-7 -137 11 -178q9 -19 26 -27t27 -5q6 2 9 4l9 6q6 4 9 7l8 8q5 5 8 9q6 8 7 9q2 2 7 10q2 4 3.5 6t2.5 4t2.5 4t3.5 6
t3.5 6t2.5 4q34 55 66 144q6 14 19 10q6 -2 0 -18q-4 -9 -11 -27.5l-18 -47.5q-20 -55 -39 -91q-18 -35 -45 -66q-25 -31 -83 -31q-47 0 -74 36q-26 35 -31 81q-7 73 9 232q3 31 15 90.5t34 149.5q25 106 48 138q4 7 15 10t18 -1q15 -8 15 -18q0 -14 -32 -165z" />
    <glyph glyph-name="Nacute" unicode="&#x143;" horiz-adv-x="695" 
d="M527 807q-19 -14 -32 1q-12 25 44 99q12 15 27 27q16 12 23 11q13 -5 24 -18q11 -14 2 -24q-21 -26 -36 -42l-15 -15.5l-15 -15.5l-14 -14.5l-11 -11.5zM682 -42q10 7 15 1q5 -7 -4 -14q-40 -36 -111 -16q-55 16 -82 78q-27 61 -27 142q0 80 9 172q9 91 21 168
q12 76 12 128q0 51 -19 54q-63 7 -142 -57q-3 -137 -18 -235q-4 -28 -9 -55t-11 -53q-12 -54 -33 -110q-22 -59 -46 -96q-26 -39 -61 -57q-36 -18 -77 -1q-41 16 -42 81q-2 66 28 149q30 85 82 175q53 93 114 161q3 33 6 81q2 24 2.5 39.5t1.5 22.5q5 16 2 44q-3 29 -25 29
q-28 0 -67 -14q-38 -14 -57 -24q-20 -11 -30 -18q-14 -9 -24 -5q-6 3 9 14l25.5 15t37.5 20q43 22 71 30q22 4 48 6q25 1 48 -18q23 -20 26 -57q1 -13 1.5 -35.5t0.5 -54.5q82 63 147 53q50 -8 72 -46q23 -40 23 -96q0 -57 -6 -132q-3 -38 -7 -74.5t-9 -72.5
q-11 -72 -9 -149q1 -77 21 -129q8 -22 22 -32q15 -11 30 -12q14 -1 27 2t19 7zM100 26q26 -9 53 36t48 121q11 38 20.5 75.5t17.5 75.5q17 76 27 145q2 8 3.5 21.5l3.5 32.5q-115 -138 -175 -309q-60 -170 4 -198h-2z" />
    <glyph glyph-name="nacute" unicode="&#x144;" horiz-adv-x="432" 
d="M226 473q-19 -14 -32 1q-12 25 44 99q12 15 27 27q16 12 23 11q13 -5 24 -18q11 -14 2 -24q-21 -26 -36 -42l-15 -15.5l-15 -15.5l-14 -14.5l-11 -11.5zM308 -4q-56 10 -66 63q-8 36 -3 75q2 20 7.5 46.5t14.5 61.5q19 64 15 81q0 13 -9 18q-9 4 -19 0q-31 -24 -61 -62
q-9 -9 -73 -117l-8.5 -21l-17.5 -45q-2 -3 -15 -61q-5 -23 -15 -36q-6 -10 -22 -10t-24 11q-9 10 -9 21q0 10 3 25q2 11 4 25.5t6 34.5q7 39 9 57q22 181 30 216q4 28 30 25q35 -2 35 -27v-25.5t-1 -31.5t-1 -30.5v-23.5q0 -32 17 -15q12 10 30 36q17 24 26 33q26 33 42 44
q16 12 48 21q15 4 30 -6q16 -11 23 -27q9 -19 1 -105q-1 -8 -3.5 -24t-7.5 -39t-7.5 -40.5t-3.5 -28.5q-6 -75 16 -78q7 -1 15 2q7 3 15 11q4 4 7 7.5t6 6.5q5 5 13 18q4 6 6.5 10.5t4.5 7.5l9 18l7 12q7 14 27 68q10 26 15 41t7 19q5 9 12 2q2 -2 2 -6q0 -2 1 -3q1 -2 0 -3
q-13 -46 -21 -72t-11 -33q-31 -75 -53 -102q-12 -15 -38 -31q-24 -15 -41 -12z" />
    <glyph glyph-name="Ncommaaccent" unicode="&#x145;" horiz-adv-x="695" 
d="M679 -45q10 7 15 1q5 -7 -4 -14q-40 -36 -111 -16q-55 16 -82 78q-27 61 -27 142q0 80 9 172q9 91 21 168q12 76 12 128q0 51 -19 54q-63 7 -142 -57q-3 -137 -18 -235q-4 -28 -9 -55t-11 -53q-12 -54 -33 -110q-22 -59 -46 -96q-26 -39 -61 -57q-36 -18 -77 -1
q-41 16 -42 81q-2 66 28 149q30 85 82 175q53 93 114 161q3 33 6 81q2 24 2.5 39.5t1.5 22.5q5 16 2 44q-3 29 -25 29q-28 0 -67 -14q-38 -14 -57 -24q-20 -11 -30 -18q-14 -9 -24 -5q-6 3 9 14l25.5 15t37.5 20q43 22 71 30q22 4 48 6q25 1 48 -18q23 -20 26 -57
q1 -13 1.5 -35.5t0.5 -54.5q82 63 147 53q50 -8 72 -46q23 -40 23 -96q0 -57 -6 -132q-3 -38 -7 -74.5t-9 -72.5q-11 -72 -9 -149q1 -77 21 -129q8 -22 22 -32q15 -11 30 -12q14 -1 27 2t19 7zM97 23q26 -9 53 36t48 121q11 38 20.5 75.5t17.5 75.5q17 76 27 145
q2 8 3.5 21.5l3.5 32.5q-115 -138 -175 -309q-60 -170 4 -198h-2zM393 -52q20 0 30 -13t4 -27q-4 -8 -7.5 -17t-8.5 -20l-8.5 -18.5t-5.5 -12.5l-12 -21q-7 -11 -18 -22q-17 -17 -33 -6q-10 13 24 109q1 2 1.5 5t2.5 8t3 8.5t2 5.5t2 4.5t3 5.5q3 5 8 9q4 3 12 3z" />
    <glyph glyph-name="ncommaaccent" unicode="&#x146;" horiz-adv-x="432" 
d="M305 -7q-56 10 -66 63q-8 36 -3 75q2 20 7.5 46.5t14.5 61.5q19 64 15 81q0 13 -9 18q-9 4 -19 0q-31 -24 -61 -62q-9 -9 -73 -117l-8.5 -21l-17.5 -45q-2 -3 -15 -61q-5 -23 -15 -36q-6 -10 -22 -10t-24 11q-9 10 -9 21q0 10 3 25q2 11 4 25.5t6 34.5q7 39 9 57
q22 181 30 216q4 28 30 25q35 -2 35 -27v-25.5t-1 -31.5t-1 -30.5v-23.5q0 -32 17 -15q12 10 30 36q17 24 26 33q26 33 42 44q16 12 48 21q15 4 30 -6q16 -11 23 -27q9 -19 1 -105q-1 -8 -3.5 -24t-7.5 -39t-7.5 -40.5t-3.5 -28.5q-6 -75 16 -78q7 -1 15 2q7 3 15 11
q4 4 7 7.5t6 6.5q5 5 13 18q4 6 6.5 10.5t4.5 7.5l9 18l7 12q7 14 27 68q10 26 15 41t7 19q5 9 12 2q2 -2 2 -6q0 -2 1 -3q1 -2 0 -3q-13 -46 -21 -72t-11 -33q-31 -75 -53 -102q-12 -15 -38 -31q-24 -15 -41 -12zM178 -201q-10 13 24 109q1 2 1.5 5t2.5 8t3 8.5t2 5.5
t2 4.5t3 5.5q3 5 8 9q4 3 12 3q20 0 30 -13t4 -27q-4 -8 -7.5 -17t-8.5 -20l-8.5 -18.5t-5.5 -12.5l-12 -21q-7 -11 -18 -22q-17 -17 -33 -6z" />
    <glyph glyph-name="Ncaron" unicode="&#x147;" horiz-adv-x="695" 
d="M446 819l-15.5 40.5t-19.5 45.5l-3 14q1 10 3 18q4 13 16 16t21 -8q5 -6 12 -18l17 -30l6 -18q4 -14 9 -21q2 -4 8 -12q5 -7 8 -5q6 0 21 15l15 20q14 19 24 26q10 9 66 48q1 1 3 1h5h5v-3v-3v-3q0 -2 -1 -3l-34 -27q-3 -2 -7 -5l-9 -7l-21 -18q-8 -5 -8 -6
q-11 -23 -57 -60q-2 0 -2 -2q-8 -20 -33 -18q-23 3 -32 25zM682 -47q10 7 15 1q5 -7 -4 -14q-40 -36 -111 -16q-55 16 -82 78q-27 61 -27 142q0 80 9 172q9 91 21 168q12 76 12 128q0 51 -19 54q-63 7 -142 -57q-3 -137 -18 -235q-4 -28 -9 -55t-11 -53q-12 -54 -33 -110
q-22 -59 -46 -96q-26 -39 -61 -57q-36 -18 -77 -1q-41 16 -42 81q-2 66 28 149q30 85 82 175q53 93 114 161q3 33 6 81q2 24 2.5 39.5t1.5 22.5q5 16 2 44q-3 29 -25 29q-28 0 -67 -14q-38 -14 -57 -24q-20 -11 -30 -18q-14 -9 -24 -5q-6 3 9 14l25.5 15t37.5 20
q43 22 71 30q22 4 48 6q25 1 48 -18q23 -20 26 -57q1 -13 1.5 -35.5t0.5 -54.5q82 63 147 53q50 -8 72 -46q23 -40 23 -96q0 -57 -6 -132q-3 -38 -7 -74.5t-9 -72.5q-11 -72 -9 -149q1 -77 21 -129q8 -22 22 -32q15 -11 30 -12q14 -1 27 2t19 7zM100 21q26 -9 53 36t48 121
q11 38 20.5 75.5t17.5 75.5q17 76 27 145q2 8 3.5 21.5l3.5 32.5q-115 -138 -175 -309q-60 -170 4 -198h-2z" />
    <glyph glyph-name="ncaron" unicode="&#x148;" horiz-adv-x="432" 
d="M177 460q-23 3 -32 25l-15.5 40.5t-19.5 45.5l-3 14q1 10 3 18q4 13 16 16t21 -8q5 -6 12 -18l17 -30l6 -18q4 -14 9 -21q2 -4 8 -12q5 -7 8 -5q6 0 21 15l15 20q14 19 24 26q10 9 66 48q1 1 3 1h5h5v-3v-3v-3q0 -2 -1 -3l-34 -27q-3 -2 -7 -5l-9 -7l-21 -18q-8 -5 -8 -6
q-11 -23 -57 -60q-2 0 -2 -2q-8 -20 -33 -18zM308 -9q-56 10 -66 63q-8 36 -3 75q2 20 7.5 46.5t14.5 61.5q19 64 15 81q0 13 -9 18q-9 4 -19 0q-31 -24 -61 -62q-9 -9 -73 -117l-8.5 -21l-17.5 -45q-2 -3 -15 -61q-5 -23 -15 -36q-6 -10 -22 -10t-24 11q-9 10 -9 21
q0 10 3 25q2 11 4 25.5t6 34.5q7 39 9 57q22 181 30 216q4 28 30 25q35 -2 35 -27v-25.5t-1 -31.5t-1 -30.5v-23.5q0 -32 17 -15q12 10 30 36q17 24 26 33q26 33 42 44q16 12 48 21q15 4 30 -6q16 -11 23 -27q9 -19 1 -105q-1 -8 -3.5 -24t-7.5 -39t-7.5 -40.5t-3.5 -28.5
q-6 -75 16 -78q7 -1 15 2q7 3 15 11q4 4 7 7.5t6 6.5q5 5 13 18q4 6 6.5 10.5t4.5 7.5l9 18l7 12q7 14 27 68q10 26 15 41t7 19q5 9 12 2q2 -2 2 -6q0 -2 1 -3q1 -2 0 -3q-13 -46 -21 -72t-11 -33q-31 -75 -53 -102q-12 -15 -38 -31q-24 -15 -41 -12z" />
    <glyph glyph-name="Eng" unicode="&#x14a;" horiz-adv-x="705" 
d="M509 694q25 -3 42 -13q18 -11 29 -29q11 -19 17 -38q3 -10 5 -22t3 -27t1 -29v-28q0 -27 -3 -64q-3 -38 -6 -66q-3 -30 -9 -71t-9 -71q-41 -383 -189 -390q-73 -3 -103 42q-6 9 -1 14t15 -4q7 -9 24 -15q16 -6 39 -1q22 4 39 29q43 69 81 332l4.5 31l5.5 38l5.5 38
l4.5 31l9 63q4 36 6 60q1 12 2 25.5t3 27.5q3 28 3 46q0 9 -0.5 17.5t-1.5 16.5q-2 17 -7 24q-6 8 -13 9q-65 9 -144 -58q0 -58 -4 -116t-12 -117q-4 -28 -9 -55t-11 -53q-12 -54 -33 -110q-22 -59 -46 -96q-26 -39 -61 -57q-36 -18 -77 -1q-41 16 -42 81q-2 66 28 149
q15 42 35.5 86t46.5 90q53 93 114 161q4 45 9 144q5 71 -30 71q-28 0 -67 -14q-38 -14 -57 -24q-20 -11 -30 -18q-14 -9 -24 -5q-6 3 9 14l25.5 15t37.5 20q43 22 71 30q22 4 48 6q25 1 48 -18q22 -20 27 -57q2 -22 3.5 -44.5t1.5 -46.5q82 64 150 54zM108 23q26 -9 53 36
t48 121q11 38 20.5 75.5t17.5 75.5q17 76 27 145q2 8 3.5 21.5l3.5 32.5q-114 -137 -175 -308q-60 -170 4 -197z" />
    <glyph glyph-name="eng" unicode="&#x14b;" horiz-adv-x="413" 
d="M81 -351q-38 18 -33 74q4 54 29 119q24 63 59 113q5 6 12 16l17 24l33 48q13 19 21 33q11 31 23 89l9.5 47t4.5 21q19 64 15 81q0 13 -9 18q-9 4 -19 0q-31 -24 -61 -62q-9 -9 -73 -117l-8.5 -21l-17.5 -45q-2 -3 -15 -61q-5 -23 -15 -36q-6 -10 -22 -10t-24 11
q-9 10 -9 21q0 10 3 25q2 11 4 25.5t6 34.5q7 39 9 57q22 181 30 216q4 28 30 25q35 -2 35 -27v-25.5t-1 -31.5t-1 -30.5v-23.5q0 -32 17 -15q12 10 30 36q17 24 26 33q26 33 42 44q16 12 48 21q15 4 30 -6q16 -11 23 -27q12 -23 1 -105l-22 -129q10 5 16 8.5t8 5.5l6 4t9 7
l5 5t7 8l8 10t9 10q14 15 27 35l12.5 18.5l13.5 20.5l21 33q6 5 11 3q6 -2 8 -5q2 -4 2 -5t-3 -4t-3 -4q-34 -60 -63 -97q-27 -35 -78 -76q-4 -4 -10 -16t-9 -21q-2 -5 -3.5 -11.5l-3.5 -15.5l-5 -22q-11 -41 -27 -126q-32 -143 -99 -201q-38 -33 -78 -14zM94 -327
q35 -20 59 45q37 101 66 245q13 61 4 63q-4 3 -42 -56l-31.5 -49t-18.5 -31q-34 -60 -47 -127q-13 -69 10 -88v-2z" />
    <glyph glyph-name="Omacron" unicode="&#x14c;" horiz-adv-x="442" 
d="M178 899q-49 -6 -60 14q-8 10 9 15h11q5 -1 27 -1h60q76 0 138 -6t91 -22q24 -14 15 -27q-5 -8 -12 -6q-186 40 -279 30v3zM523 548q11 8 14 -3q2 -8 -6 -14q-14 -11 -57 -27q-9 -5 -19 -6q-7 -59 -21 -109q-45 -173 -108 -279t-133 -105q-74 1 -130 69q-55 67 -60 218
q-3 110 28 225q32 119 97 203q66 86 148 86q55 0 75 -42q3 -7 -4 -7q-5 0 -12 5l-7 7l-10 10q-5 5 -15 8q-11 3 -22 3q-41 0 -78 -60q-38 -60 -60 -144q-23 -85 -36 -163q-7 -40 -10 -72t-3 -56q0 -46 6 -91q6 -44 18 -85t33 -66q21 -26 49 -27q55 -2 117 108
q61 109 102 258q15 55 21 105q-40 -4 -80 8q-38 12 -58 44q-20 33 -21 75t20 77t60 44q50 11 80 -54t23 -172q27 5 65 31zM332 592q42 -72 107 -75q7 100 -18 160q-26 60 -63 51q-29 -8 -38 -55t11 -82z" />
    <glyph glyph-name="omacron" unicode="&#x14d;" 
d="M327 494q-186 40 -279 30q-49 -6 -60 14q-8 10 9 15h11q5 -1 27 -1h60q76 0 138 -6t91 -22q24 -14 15 -27q-5 -8 -12 -6v3zM118 6q-33 -16 -67 0t-45 53q-17 55 -5 132q6 27 13.5 50.5t15.5 43.5q16 40 54 78q30 32 73 36q21 2 30 -1q19 -6 30 -24q10 -15 17 -18
q6 -3 12 -14q12 -20 12 -48v-11t-1 -13l-3 -21q-2 -8 0 -9q35 3 77 39q3 2 6 5l6 6t5 4.5t3 2.5q7 7 13 0q2 0 2 -7q1 -2 -3 -9q-56 -62 -117 -75q-4 -3 -12 -17q-7 -12 -15 -32t-9 -22t-3.5 -8t-7.5 -16t-7.5 -16t-4.5 -9t-4.5 -8l-6.5 -13q-8 -15 -12 -21l-12 -15
q-8 -10 -15 -14l-15 -9h-4zM107 35q25 4 48 45q16 28 29 55t24 54q9 20 -2 25q-20 7 -34 26q-13 18 -15 38q-7 58 35 79q-2 1 -3 6q-2 4 -7 10q-6 6 -12 5q-65 -11 -90 -132q-15 -75 -9 -152q1 -15 11 -39q9 -23 23 -21zM228 247q4 1 7 18q3 16 3 26q0 14 -3 28q-1 10 -9 16
q-7 6 -15 4q-16 -3 -19 -18q-6 -32 11 -58l5 -5t7 -6q8 -6 12 -5h1z" />
    <glyph glyph-name="Ohungarumlaut" unicode="&#x150;" horiz-adv-x="442" 
d="M229 849q-17 -17 -33 -6q-10 13 24 109q17 47 33 47q13 0 27 -11q13 -11 9 -21q-24 -53 -60 -117v-1zM361 846q-14 -14 -33 -2q-13 19 24 109q20 47 33 47q16 0 26 -16q10 -17 0 -39l-20.5 -41.5t-31.5 -58.5zM525 545q11 8 14 -3q2 -8 -6 -14q-14 -11 -57 -27
q-9 -5 -19 -6q-7 -59 -21 -109q-45 -173 -108 -279t-133 -105q-74 1 -130 69q-55 67 -60 218q-3 110 28 225q32 119 97 203q66 86 148 86q55 0 75 -42q3 -7 -4 -7q-5 0 -12 5l-7 7l-10 10q-5 5 -15 8q-11 3 -22 3q-41 0 -78 -60q-38 -60 -60 -144q-23 -85 -36 -163
q-7 -40 -10 -72t-3 -56q0 -46 6 -91q6 -44 18 -85t33 -66q21 -26 49 -27q55 -2 117 108q61 109 102 258q15 55 21 105q-40 -4 -80 8q-38 12 -58 44q-20 33 -21 75t20 77t60 44q50 11 80 -54t23 -172q27 5 65 31zM334 589q42 -72 107 -75q7 100 -18 160q-26 60 -63 51
q-29 -8 -38 -55t11 -82z" />
    <glyph glyph-name="ohungarumlaut" unicode="&#x151;" 
d="M67 468q-10 13 24 109q17 47 33 47q13 0 27 -11q13 -11 9 -21q-24 -53 -60 -117q-17 -17 -33 -6v-1zM199 469q-13 19 24 109q20 47 33 47q16 0 26 -16q10 -17 0 -39l-20.5 -41.5t-31.5 -58.5q-14 -14 -33 -2zM120 3q-33 -16 -67 0t-45 53q-17 55 -5 132q6 27 13.5 50.5
t15.5 43.5q16 40 54 78q30 32 73 36q21 2 30 -1q19 -6 30 -24q10 -15 17 -18q6 -3 12 -14q12 -20 12 -48v-11t-1 -13l-3 -21q-2 -8 0 -9q35 3 77 39q3 2 6 5l6 6t5 4.5t3 2.5q7 7 13 0q2 0 2 -7q1 -2 -3 -9q-56 -62 -117 -75q-4 -3 -12 -17q-7 -12 -15 -32t-9 -22t-3.5 -8
t-7.5 -16t-7.5 -16t-4.5 -9t-4.5 -8l-6.5 -13q-8 -15 -12 -21l-12 -15q-8 -10 -15 -14l-15 -9h-4zM109 32q25 4 48 45q16 28 29 55t24 54q9 20 -2 25q-20 7 -34 26q-13 18 -15 38q-7 58 35 79q-2 1 -3 6q-2 4 -7 10q-6 6 -12 5q-65 -11 -90 -132q-15 -75 -9 -152
q1 -15 11 -39q9 -23 23 -21zM230 244q4 1 7 18q3 16 3 26q0 14 -3 28q-1 10 -9 16q-7 6 -15 4q-16 -3 -19 -18q-6 -32 11 -58l5 -5t7 -6q8 -6 12 -5h1z" />
    <glyph glyph-name="OE" unicode="&#x152;" horiz-adv-x="813" 
d="M612 -5q-39 0 -78 11q-38 11 -74 33q-36 23 -59 65t-24 99q-41 -96 -87 -150t-96 -52q-74 1 -130 69q-55 67 -60 218q-3 102 36 222q39 121 105 206t130 85q55 0 75 -42q3 -7 -4 -7q-5 0 -12 5l-7 7l-10 10q-5 5 -15 8q-11 3 -22 3q-41 0 -78 -60q-38 -60 -60 -144
q-23 -85 -36 -163q-7 -40 -10 -72t-3 -56q0 -46 6 -91q6 -44 18 -85t33 -66q21 -26 49 -27q46 -1 97 77q52 79 92 197q5 20 10.5 37t11.5 31l7 25q15 55 21 105q-40 -4 -80 8q-38 12 -58 44q-20 33 -21 75t20 77t60 44q49 10 79 -54q30 -65 23 -171q29 5 54 16q47 19 63 32
q-26 40 -21 102q4 64 44 105q39 41 98 41q48 0 69 -18t17 -51q-3 -26 -33 -66q-30 -41 -72 -69q-14 -10 -24 -16l-15 -9q16 -26 34 -45q21 -23 34 -33q16 -13 17 -15q7 -11 0 -18q-8 -8 -18 -3l-8 6q-6 4 -11 6q-2 1 -5 2t-7 3q-9 4 -17 5q-5 1 -10 1.5t-11 0.5
q-51 0 -90 -43q-38 -43 -55 -99t-18 -108q-2 -84 36 -149q37 -65 111 -63q17 0 32 3q16 3 29 9t24 12q9 5 21 17l18 18q7 7 15 18l11 17q2 3 4 6.5t4 8.5q4 8 6 10q13 24 24 21t-1 -40q-17 -52 -67 -93q-51 -42 -125 -42zM632 602q10 5 18 10.5l16 10.5q34 25 63 63
q28 37 33 57q4 27 -6 39q-11 12 -36 12q-32 0 -62 -36t-33 -105q-2 -29 6 -51h1zM440 515q7 100 -18 160q-26 60 -63 51q-29 -8 -38 -55t11 -82q41 -71 107 -74h1zM448 424q16 22 38 39t43 27q22 10 36 15q13 4 35 9t23 6q-26 22 -30 27q-62 -38 -135 -51l-4.5 -33t-6.5 -39
h1z" />
    <glyph glyph-name="oe" unicode="&#x153;" horiz-adv-x="497" 
d="M535 249q3 -4 1 -13q-3 -9 -12 -27q-5 -9 -8 -16l-5 -12q-21 -50 -33 -69q-35 -54 -64 -81q-30 -29 -75 -39q-15 -5 -43 -2q-30 3 -48 15q-20 12 -33 46q-12 32 -10 75q-41 -84 -60 -105q-14 -14 -27 -21q-33 -16 -67 0t-45 53q-17 55 -5 132q6 27 13.5 50.5t15.5 43.5
q16 40 54 78q30 32 73 36q21 2 30 -1q19 -6 30 -24q10 -15 17 -18q6 -3 12 -14q10 -16 12 -41q28 49 60 72q70 49 108 12q20 -18 14 -43t-21 -46q-8 -11 -17.5 -20.5t-20.5 -19.5q-44 -39 -81 -63q-13 -11 -14 -27v-41.5t1 -22.5q0 -20 9 -39t23 -25q39 -15 90 35
q52 50 86 120q6 12 12 27t9 24t6 12q10 10 16 3zM286 244q-9 -22 -1 -27q13 -9 62 32l5.5 5.5t9.5 8.5t10 9l6 6t5 5.5l7 8.5q7 9 12 18q9 17 6 32q-3 16 -16 23q-18 9 -36 -2t-30 -30q-23 -32 -39 -87zM107 26q25 4 48 45q16 28 29 55t24 54q9 20 -2 25q-20 7 -34 26
q-13 18 -15 38q-7 58 35 79q-2 1 -3 6q-2 4 -7 10q-6 6 -12 5q-65 -11 -90 -132q-15 -75 -9 -152q1 -15 11 -39q9 -23 23 -21zM211 330q-16 -3 -19 -18q-6 -32 11 -58l5 -5t7 -6q8 -6 12 -5t7 18q3 16 3 26q0 14 -3 28q-1 10 -9 16q-7 6 -15 4h1z" />
    <glyph glyph-name="Racute" unicode="&#x154;" horiz-adv-x="573" 
d="M371 852q-19 -14 -32 1q-12 25 44 99q12 15 27 27q16 12 23 11q13 -5 24 -18q11 -14 2 -24q-21 -26 -36 -42l-15 -15.5l-15 -15.5l-14 -14.5l-11 -11.5zM584 -77q10 4 12 -3q2 -6 -8 -11q-11 -6 -27 -9q-15 -3 -49 11q-33 13 -60 51t-33 112q-6 75 0 185q6 109 6 114
q0 40 -12 67t-26 36t-26 8q-13 -1 -15 11q-1 15 23 24l4 1q26 7 61 47q34 39 48 78q16 40 9 85q-8 45 -36 44q-75 -3 -171 -109q-1 -17 -3.5 -46t-7.5 -71q-9 -81 -12 -119q-10 -107 -47 -214q-36 -105 -91 -172t-112 -60q-44 6 -51 54t9 103q17 57 43 109l5 10.5l12 24.5
l15.5 31.5l15.5 32.5t18 35.5l21 40.5q22 43 51 90q28 46 57 87q16 86 16 91q14 89 2 96q-25 15 -85 -9q-61 -25 -92 -45q-16 -10 -22 -4t14 18q38 25 106 51q69 27 106 11q36 -15 39 -90v-18q94 97 180 97q53 0 71 -49q18 -50 9 -105q-3 -17 -16 -37q-14 -21 -30 -39
q-17 -18 -33 -33l-27 -24l-10 -8q1 0 9 -3q7 -3 21 -12q13 -9 25 -22q12 -14 21 -37q9 -24 9 -54q0 -32 -6 -95q-3 -32 -6 -60t-5 -54q-5 -51 -3 -104q1 -51 14 -78q34 -75 78 -58zM168 400q2 14 5.5 33.5t8.5 44.5q9 49 12 69q-79 -117 -165 -305q-44 -86 -51 -165
q-8 -75 33 -75q86 0 155 395z" />
    <glyph glyph-name="racute" unicode="&#x155;" horiz-adv-x="289" 
d="M164 615q-19 -14 -32 1q-12 25 44 99q12 15 27 27q16 12 23 11q13 -5 24 -18q11 -14 2 -24q-21 -26 -36 -42l-15 -15.5l-15 -15.5l-14 -14.5l-11 -11.5zM329 266q7 0 7 -8q0 -5 -9 -30q-5 -14 -33 -73q-14 -29 -25 -49t-19 -33q-23 -35 -48 -52q-24 -17 -60 -15
q-26 1 -51 15q-26 13 -33 39q-18 62 32 156l19 41q5 11 0 17q-5 7 -13 8q-23 4 -36 12q-10 -39 -42 -112q-8 -17 -17 -12q-8 4 -3 18q7 16 18 45.5l28 74.5q-13 12 -28 38q-10 24 -10 63q0 37 15 78q15 40 41 54q22 9 42 8q21 -2 33 -22q12 -21 6 -55q-6 -29 -32 -80
q-1 -2 -2.5 -4t-3.5 -6l-7 -12q-3 -5 -6 -12q-3 -8 -3 -13q0 -7 3 -11q7 -13 21 -19q13 -6 20 -6h26q7 0 15 -6q7 -6 9 -14q4 -22 -9 -70q-13 -47 -27 -76q-30 -86 6 -96q40 -12 76 37q37 51 83 159q7 17 12 22q1 1 6 0zM76 386q25 16 45 84q6 13 3 36q-5 13 -18 18
q-26 5 -38 -26t-8 -65l2 -18q0 -4 2 -14q1 -8 5 -11q3 -3 7 -3v-1z" />
    <glyph glyph-name="Rcommaaccent" unicode="&#x156;" horiz-adv-x="573" 
d="M581 -80q10 4 12 -3q2 -6 -8 -11q-11 -6 -27 -9q-15 -3 -49 11q-33 13 -60 51t-33 112q-6 75 0 185q6 109 6 114q0 40 -12 67t-26 36t-26 8q-13 -1 -15 11q-1 15 23 24l4 1q26 7 61 47q34 39 48 78q16 40 9 85q-8 45 -36 44q-75 -3 -171 -109q-1 -17 -3.5 -46t-7.5 -71
q-9 -81 -12 -119q-10 -107 -47 -214q-36 -105 -91 -172t-112 -60q-44 6 -51 54t9 103q17 57 43 109l5 10.5l12 24.5l15.5 31.5l15.5 32.5t18 35.5l21 40.5q22 43 51 90q28 46 57 87q16 86 16 91q14 89 2 96q-25 15 -85 -9q-61 -25 -92 -45q-16 -10 -22 -4t14 18
q38 25 106 51q69 27 106 11q36 -15 39 -90v-18q94 97 180 97q53 0 71 -49q18 -50 9 -105q-3 -17 -16 -37q-14 -21 -30 -39q-17 -18 -33 -33l-27 -24l-10 -8q1 0 9 -3q7 -3 21 -12q13 -9 25 -22q12 -14 21 -37q9 -24 9 -54q0 -32 -6 -95q-3 -32 -6 -60t-5 -54q-5 -51 -3 -104
q1 -51 14 -78q34 -75 78 -58zM165 397q2 14 5.5 33.5t8.5 44.5q9 49 12 69q-79 -117 -165 -305q-44 -86 -51 -165q-8 -75 33 -75q86 0 155 395zM305 -44q20 0 30 -13t4 -27q-4 -8 -7.5 -17t-8.5 -20l-8.5 -18.5t-5.5 -12.5l-12 -21q-7 -11 -18 -22q-17 -17 -33 -6
q-10 13 24 109q1 2 1.5 5t2.5 8t3 8.5t2 5.5t2 4.5t3 5.5q3 5 8 9q4 3 12 3z" />
    <glyph glyph-name="rcommaaccent" unicode="&#x157;" horiz-adv-x="289" 
d="M326 263q7 0 7 -8q0 -5 -9 -30q-5 -14 -33 -73q-14 -29 -25 -49t-19 -33q-23 -35 -48 -52q-24 -17 -60 -15q-26 1 -51 15q-26 13 -33 39q-18 62 32 156l19 41q5 11 0 17q-5 7 -13 8q-23 4 -36 12q-10 -39 -42 -112q-8 -17 -17 -12q-8 4 -3 18q7 16 18 45.5l28 74.5
q-13 12 -28 38q-10 24 -10 63q0 37 15 78q15 40 41 54q22 9 42 8q21 -2 33 -22q12 -21 6 -55q-6 -29 -32 -80q-1 -2 -2.5 -4t-3.5 -6l-7 -12q-3 -5 -6 -12q-3 -8 -3 -13q0 -7 3 -11q7 -13 21 -19q13 -6 20 -6h26q7 0 15 -6q7 -6 9 -14q4 -22 -9 -70q-13 -47 -27 -76
q-30 -86 6 -96q40 -12 76 37q37 51 83 159q7 17 12 22q1 1 6 0zM73 383q25 16 45 84q6 13 3 36q-5 13 -18 18q-26 5 -38 -26t-8 -65l2 -18q0 -4 2 -14q1 -8 5 -11q3 -3 7 -3v-1zM150 -21q20 0 30 -13t4 -27q-4 -8 -7.5 -17t-8.5 -20l-8.5 -18.5t-5.5 -12.5l-12 -21
q-7 -11 -18 -22q-17 -17 -33 -6q-10 13 24 109q1 2 1.5 5t2.5 8t3 8.5t2 5.5t2 4.5t3 5.5q3 5 8 9q4 3 12 3z" />
    <glyph glyph-name="Rcaron" unicode="&#x158;" horiz-adv-x="573" 
d="M290 864l-15.5 40.5t-19.5 45.5l-3 14q1 10 3 18q4 13 16 16t21 -8q5 -6 12 -18l17 -30l6 -18q4 -14 9 -21q2 -4 8 -12q5 -7 8 -5q6 0 21 15l15 20q14 19 24 26q10 9 66 48q1 1 3 1h5h5v-3v-3v-3q0 -2 -1 -3l-34 -27q-3 -2 -7 -5l-9 -7l-21 -18q-8 -5 -8 -6
q-11 -23 -57 -60q-2 0 -2 -2q-8 -20 -33 -18q-23 3 -32 25zM584 -82q10 4 12 -3q2 -6 -8 -11q-11 -6 -27 -9q-15 -3 -49 11q-33 13 -60 51t-33 112q-6 75 0 185q6 109 6 114q0 40 -12 67t-26 36t-26 8q-13 -1 -15 11q-1 15 23 24l4 1q26 7 61 47q34 39 48 78q16 40 9 85
q-8 45 -36 44q-75 -3 -171 -109q-1 -17 -3.5 -46t-7.5 -71q-9 -81 -12 -119q-10 -107 -47 -214q-36 -105 -91 -172t-112 -60q-44 6 -51 54t9 103q17 57 43 109l5 10.5l12 24.5l15.5 31.5l15.5 32.5t18 35.5l21 40.5q22 43 51 90q28 46 57 87q16 86 16 91q14 89 2 96
q-25 15 -85 -9q-61 -25 -92 -45q-16 -10 -22 -4t14 18q38 25 106 51q69 27 106 11q36 -15 39 -90v-18q94 97 180 97q53 0 71 -49q18 -50 9 -105q-3 -17 -16 -37q-14 -21 -30 -39q-17 -18 -33 -33l-27 -24l-10 -8q1 0 9 -3q7 -3 21 -12q13 -9 25 -22q12 -14 21 -37
q9 -24 9 -54q0 -32 -6 -95q-3 -32 -6 -60t-5 -54q-5 -51 -3 -104q1 -51 14 -78q34 -75 78 -58zM168 395q2 14 5.5 33.5t8.5 44.5q9 49 12 69q-79 -117 -165 -305q-44 -86 -51 -165q-8 -75 33 -75q86 0 155 395z" />
    <glyph glyph-name="rcaron" unicode="&#x159;" horiz-adv-x="289" 
d="M83 627l-15.5 40.5t-19.5 45.5l-3 14q1 10 3 18q4 13 16 16t21 -8q5 -6 12 -18l17 -30l6 -18q4 -14 9 -21q2 -4 8 -12q5 -7 8 -5q6 0 21 15l15 20q14 19 24 26q10 9 66 48q1 1 3 1h5h5v-3v-3v-3q0 -2 -1 -3l-34 -27q-3 -2 -7 -5l-9 -7l-21 -18q-8 -5 -8 -6
q-11 -23 -57 -60q-2 0 -2 -2q-8 -20 -33 -18q-23 3 -32 25zM329 261q7 0 7 -8q0 -5 -9 -30q-5 -14 -33 -73q-14 -29 -25 -49t-19 -33q-23 -35 -48 -52q-24 -17 -60 -15q-26 1 -51 15q-26 13 -33 39q-18 62 32 156l19 41q5 11 0 17q-5 7 -13 8q-23 4 -36 12q-10 -39 -42 -112
q-8 -17 -17 -12q-8 4 -3 18q7 16 18 45.5l28 74.5q-13 12 -28 38q-10 24 -10 63q0 37 15 78q15 40 41 54q22 9 42 8q21 -2 33 -22q12 -21 6 -55q-6 -29 -32 -80q-1 -2 -2.5 -4t-3.5 -6l-7 -12q-3 -5 -6 -12q-3 -8 -3 -13q0 -7 3 -11q7 -13 21 -19q13 -6 20 -6h26q7 0 15 -6
q7 -6 9 -14q4 -22 -9 -70q-13 -47 -27 -76q-30 -86 6 -96q40 -12 76 37q37 51 83 159q7 17 12 22q1 1 6 0zM76 381q25 16 45 84q6 13 3 36q-5 13 -18 18q-26 5 -38 -26t-8 -65l2 -18q0 -4 2 -14q1 -8 5 -11q3 -3 7 -3v-1z" />
    <glyph glyph-name="Sacute" unicode="&#x15a;" horiz-adv-x="422" 
d="M301 863q-19 -14 -32 1q-12 25 44 99q12 15 27 27q16 12 23 11q13 -5 24 -18q11 -14 2 -24q-21 -26 -36 -42l-15 -15.5l-15 -15.5l-14 -14.5l-11 -11.5zM175 -11q-44 0 -75 15q-32 15 -47 39q-14 22 -25 51q-11 27 -9 50q1 22 3 36q9 51 50 88q12 11 20 3q7 -8 -3 -18
q-27 -32 -45 -78t17 -105q34 -58 116 -58q66 0 105 54t39 146q0 40 -29 95q-29 54 -63 99q-34 44 -63 101q-29 56 -29 101q-2 85 45 144t113 57q28 -2 47 -12q21 -11 29 -22q10 -13 14 -33q5 -23 5 -28q0 -4 0.5 -10t1.5 -14q0 -18 -10 -19t-10 18v6q3 29 -19 63
q-23 34 -60 33q-35 -1 -58 -47q-22 -44 -19 -129q1 -46 30 -100q14 -27 29 -51t32 -45q33 -42 60 -96t27 -100q0 -112 -60 -172t-157 -60z" />
    <glyph glyph-name="sacute" unicode="&#x15b;" horiz-adv-x="245" 
d="M133 588q-19 -14 -32 1q-12 25 44 99q12 15 27 27q16 12 23 11q13 -5 24 -18q11 -14 2 -24q-21 -26 -36 -42l-15 -15.5l-15 -15.5l-14 -14.5l-11 -11.5zM343 342q2 -2 2 -6q-2 -6 -14 -21q-77 -77 -108 -99q-21 -17 -24 -22t-3 -11q1 -3 3 -12q1 -8 3 -13
q10 -73 -36 -133q-17 -23 -31 -33q-17 -12 -43 -20q-30 -10 -61 6q-31 15 -32 42q-1 13 14 38q15 24 33 42q34 31 54 45q8 6 18 16q6 7 6 18q0 6 -5 18q-2 4 -8 12.5l-16 22.5t-17.5 25.5l-13.5 21.5q-2 -6 -6 -15.5l-10 -23.5l-9 -21.5t-4 -9.5q-7 -15 -17 -10l-3 3
q-1 1 -1 3v4v4l26 70q1 6 3 15l1.5 7.5t0.5 3.5l-9 20q-17 43 -17 81q0 28 18 58q18 29 45 46q43 25 69 3q22 -20 12 -60q-2 -7 -3.5 -13t-3.5 -11t-4.5 -10.5t-5.5 -10.5q-6 -11 -10 -16q-5 -6 -15 -21q-5 -8 -9 -13t-6 -9q-6 -9 -1 -18q53 -100 69 -116q3 -4 5 -4
q3 -1 6 2l28.5 18.5l17.5 11.5q26 19 50 42t47 50q1 4 6 4q4 0 6 -5zM87 376q9 -2 29 24q19 25 27 54q0 3 1 6q7 31 0 37l-3 3q-20 11 -39 -16t-27 -56q-3 -15 2 -33q4 -17 12 -18zM122 23q13 25 15 48q1 22 -3 48q-3 20 -10 23q-5 2 -22 -13q-1 -1 -4 -3t-8 -7t-8 -7.5
t-5 -4.5t-4.5 -4l-7.5 -6q-9 -8 -12 -12q-4 -6 -9 -11q-6 -6 -9 -12q-4 -8 -6 -13q-15 -37 -1 -49q20 -18 49 -10q32 8 47 34z" />
    </font>
</defs>
</svg>
